<svg width="108" height="29" viewBox="0 0 108 29" fill="none" xmlns="http://www.w3.org/2000/svg">
<path d="M23.5077 8.013L24.6624 8.0344L27.8 4.89679L27.9525 3.56827C25.4595 1.3517 22.1792 0 18.5887 0C12.0861 0 6.60081 4.42244 4.97449 10.4168C5.31776 10.1796 6.048 10.3571 6.048 10.3571L12.3179 9.32726C12.3179 9.32726 12.6424 8.79406 12.8029 8.82705C14.2375 7.2578 16.2999 6.26988 18.5878 6.26988C20.4495 6.26988 22.1614 6.92344 23.5077 8.013Z" fill="#EA4335"/>
<path d="M32.2046 10.4256C31.4771 7.73822 29.9738 5.36651 27.9489 3.56543L23.5042 8.01016C25.2838 9.44835 26.4242 11.6462 26.4242 14.1062V14.8899C28.5846 14.8899 30.3429 16.6482 30.3429 18.8086C30.3429 20.969 28.5846 22.7273 26.4233 22.7273H18.5869L17.8022 23.5155V28.2188L18.5869 28.9989H26.4233C32.0406 28.9989 36.6119 24.4285 36.6119 18.8104C36.6119 15.3366 34.8634 12.2659 32.2028 10.4265L32.2046 10.4256Z" fill="#4285F4"/>
<path d="M10.7514 28.9981H18.5825V22.7283H10.7532C10.1772 22.7283 9.6324 22.6008 9.13933 22.377L8.01054 22.7229L4.87203 25.8614L4.59741 26.9207C6.30933 28.2233 8.44298 28.9981 10.7541 28.9999L10.7514 28.9981Z" fill="#34A853"/>
<path d="M10.7513 8.62207C5.13409 8.62207 0.562744 13.1925 0.562744 18.8106C0.562744 22.1185 2.14805 25.0618 4.59822 26.9244L9.14282 22.3798C7.7822 21.7637 6.83263 20.3977 6.83263 18.8106C6.83263 16.6502 8.59091 14.892 10.7513 14.892C12.3384 14.892 13.7061 15.8415 14.3205 17.2021L18.8651 12.6576C17.0034 10.2083 14.0592 8.62207 10.7513 8.62207Z" fill="#FBBC05"/>
<path d="M42.1539 25.3V16.1924H45.3085C45.7154 16.1924 46.0996 16.2615 46.46 16.3953C46.8194 16.5313 47.1356 16.7223 47.4065 16.9683C47.6774 17.2144 47.8922 17.5101 48.0486 17.8522C48.2051 18.1943 48.2839 18.5753 48.2839 18.9908C48.2839 19.4063 48.2051 19.7732 48.0486 20.1164C47.8922 20.4596 47.6774 20.7553 47.4065 21.0003C47.1356 21.2464 46.8194 21.4374 46.46 21.5734C46.1007 21.7094 45.7164 21.7763 45.3085 21.7763H43.5915V25.3H42.155H42.1539ZM45.3463 20.4024C45.5837 20.4024 45.7963 20.3625 45.9819 20.2816C46.1686 20.2017 46.3251 20.0927 46.4536 19.9578C46.5809 19.8218 46.678 19.6696 46.746 19.4991C46.8129 19.3297 46.8475 19.1602 46.8475 18.9908C46.8475 18.8127 46.8129 18.639 46.746 18.4695C46.677 18.3001 46.5798 18.1501 46.4536 18.0184C46.3262 17.8868 46.1697 17.7788 45.9819 17.6947C45.7952 17.6105 45.5837 17.5673 45.3463 17.5673H43.5904V20.4035L45.3463 20.4024Z" fill="#5F6368"/>
<path d="M53.0238 24.5373H52.9482C52.7615 24.7834 52.5198 25.0057 52.223 25.2054C51.9262 25.4039 51.5485 25.5043 51.0909 25.5043C50.7596 25.5043 50.4509 25.4514 50.1627 25.3457C49.8746 25.2399 49.6242 25.091 49.4127 24.8999C49.2012 24.7089 49.0328 24.4844 48.9098 24.2254C48.7867 23.9664 48.7252 23.6815 48.7252 23.3674C48.7252 23.0361 48.7911 22.7404 48.9227 22.4782C49.0544 22.2159 49.2368 21.9958 49.4699 21.8166C49.703 21.6385 49.9814 21.5015 50.302 21.4043C50.6247 21.3072 50.9722 21.2586 51.3445 21.2586C51.76 21.2586 52.1075 21.2986 52.387 21.3795C52.6665 21.4594 52.8781 21.5338 53.0227 21.6018V21.3601C53.0227 21.1734 52.9828 21.0007 52.9018 20.8388C52.822 20.6769 52.7108 20.5399 52.5705 20.4266C52.4302 20.3122 52.2716 20.2237 52.0935 20.16C51.9154 20.0952 51.7298 20.0639 51.5334 20.0639C51.2193 20.0639 50.9376 20.1255 50.6883 20.2485C50.439 20.3715 50.2156 20.5679 50.0203 20.8399L48.9011 20.1017C49.1979 19.6948 49.567 19.3873 50.0084 19.179C50.4498 18.9718 50.9495 18.8682 51.5096 18.8682C52.4334 18.8682 53.1479 19.097 53.653 19.5545C54.1569 20.0132 54.4095 20.6662 54.4095 21.5144V25.3047H53.0227V24.5416L53.0238 24.5373ZM53.0238 22.707C52.8371 22.5969 52.6298 22.5084 52.4011 22.4404C52.1723 22.3735 51.91 22.3389 51.6132 22.3389C51.1718 22.3389 50.8211 22.4404 50.5577 22.6444C50.2955 22.8483 50.1638 23.0944 50.1638 23.3826C50.1638 23.5358 50.1984 23.6685 50.2653 23.784C50.3322 23.8984 50.4196 23.9977 50.5264 24.083C50.6322 24.1672 50.7552 24.2319 50.8945 24.274C51.0348 24.3172 51.1761 24.3387 51.3197 24.3387C51.5485 24.3387 51.7665 24.2945 51.9748 24.2049C52.182 24.1164 52.3633 23.9977 52.5165 23.8499C52.6698 23.7009 52.7917 23.5304 52.8845 23.334C52.9774 23.1387 53.0248 22.9314 53.0248 22.7113L53.0238 22.707Z" fill="#5F6368"/>
<path d="M57.005 20.1099H57.0806C57.25 19.7548 57.5058 19.4785 57.8501 19.2832C58.1933 19.0878 58.5731 18.9907 58.9886 18.9907C59.1246 18.9907 59.2239 18.995 59.2876 19.0037C59.3502 19.0123 59.416 19.0253 59.4851 19.0425V20.4682C59.3923 20.4336 59.3005 20.411 59.212 20.398C59.1235 20.3851 59.0059 20.3797 58.8624 20.3797C58.3282 20.3797 57.8986 20.5426 57.5716 20.8696C57.2446 21.1967 57.0817 21.6262 57.0817 22.1604V25.4035H55.6689V19.171H57.004V20.112L57.005 20.1099ZM61.3931 20.3128H60.2988V19.0663H61.3931V17.1582H62.8058V19.0663H64.3459V20.3128H62.8058V23.1608C62.8058 23.3184 62.8231 23.4619 62.8577 23.5925C62.8922 23.7242 62.9418 23.8321 63.0109 23.9195C63.1555 24.0847 63.3379 24.1678 63.5581 24.1678C63.6941 24.1678 63.7998 24.158 63.8764 24.1365C63.952 24.1149 64.034 24.0836 64.1182 24.0404L64.551 25.2869C64.3729 25.3538 64.1873 25.4078 63.9908 25.4456C63.7955 25.4844 63.5753 25.5028 63.3293 25.5028C63.0325 25.5028 62.7692 25.4553 62.5414 25.3603C62.3126 25.2643 62.113 25.1358 61.9436 24.9718C61.5799 24.5994 61.3964 24.0933 61.3964 23.4533V20.3139L61.3931 20.3128Z" fill="#5F6368"/>
<path d="M66.6793 19.9068H66.7549C66.9416 19.61 67.206 19.3629 67.5503 19.1632C67.8935 18.9646 68.282 18.8643 68.7137 18.8643C69.5015 18.8643 70.0918 19.0995 70.4814 19.5701C70.871 20.0417 71.0675 20.6655 71.0675 21.4468V25.3018H69.6548V21.6389C69.6548 21.0961 69.5296 20.7162 69.2792 20.5004C69.0288 20.2845 68.7007 20.1766 68.2939 20.1766C68.0478 20.1766 67.8309 20.2284 67.6452 20.3298C67.4585 20.4313 67.2967 20.5694 67.1628 20.7421C67.0268 20.9159 66.9254 21.1144 66.8574 21.34C66.7883 21.5645 66.756 21.7997 66.756 22.0458V25.3018H65.3433V19.0693H66.6783V19.9079L66.6793 19.9068Z" fill="#5F6368"/>
<path d="M78.0641 23.8115C77.8018 24.2939 77.4284 24.6986 76.9449 25.0202C76.4625 25.3429 75.8678 25.5027 75.1642 25.5027C74.6969 25.5027 74.2673 25.4196 73.8734 25.2544C73.4795 25.0893 73.1385 24.8573 72.8492 24.5616C72.5611 24.2648 72.3366 23.9151 72.1747 23.5115C72.0128 23.1089 71.933 22.6665 71.933 22.1819C71.933 21.7319 72.0085 21.3066 72.1618 20.9041C72.315 20.5015 72.5287 20.1497 72.8039 19.8486C73.0791 19.5475 73.4126 19.3068 73.8022 19.1298C74.1918 18.9529 74.6246 18.8633 75.0994 18.8633C75.5732 18.8633 76.0135 18.9431 76.3902 19.105C76.7668 19.2669 77.0874 19.4903 77.3496 19.7795C77.6119 20.0677 77.8137 20.4152 77.954 20.8221C78.0943 21.2289 78.1644 21.6747 78.1644 22.1571V22.2715C78.1558 22.3146 78.1515 22.3513 78.1515 22.3859C78.1428 22.4204 78.1385 22.4549 78.1385 22.4873H73.3424C73.3684 22.7841 73.4396 23.0431 73.5583 23.2633C73.677 23.4834 73.8227 23.6658 73.9965 23.8104C74.1702 23.9551 74.3634 24.0608 74.5749 24.1288C74.7865 24.1979 74.9947 24.2303 75.1976 24.2303C75.6045 24.2303 75.9391 24.1331 76.2035 23.9378C76.4657 23.7425 76.6816 23.5007 76.8521 23.2126L78.0608 23.8104L78.0641 23.8115ZM76.755 21.4081C76.7377 21.2807 76.6978 21.1394 76.6341 20.9829C76.5715 20.8253 76.4722 20.6818 76.3416 20.5501C76.2099 20.4184 76.0405 20.3062 75.8333 20.2134C75.625 20.1206 75.3735 20.0731 75.0768 20.0731C74.6699 20.0731 74.3202 20.194 74.0267 20.4357C73.7342 20.6775 73.5367 21.0012 73.4353 21.4081H76.755Z" fill="#5F6368"/>
<path d="M79.1023 19.0672H80.4373V20.0082H80.5128C80.5884 19.8463 80.693 19.6974 80.8236 19.5571C80.9553 19.4168 81.1032 19.2981 81.2694 19.1999C81.4345 19.1017 81.6082 19.0218 81.7906 18.9581C81.973 18.8956 82.1489 18.8643 82.3194 18.8643C82.5223 18.8643 82.6961 18.8848 82.8407 18.9215C82.9853 18.9603 83.1159 19.0132 83.2346 19.0801L82.8278 20.3655C82.7349 20.3223 82.6303 20.291 82.5169 20.2694C82.4025 20.2478 82.2644 20.2381 82.1047 20.2381C81.8759 20.2381 81.6665 20.2856 81.4744 20.3795C81.2834 20.4734 81.1161 20.6007 80.9715 20.7626C80.8269 20.9245 80.7146 21.1166 80.6348 21.3378C80.5549 21.5591 80.5139 21.7933 80.5139 22.0404V25.3007H79.1012V19.0682L79.1023 19.0672Z" fill="#5F6368"/>
<path d="M50.1521 7.77689C50.1521 8.88201 49.824 9.76158 49.1678 10.4178C48.4307 11.1991 47.4626 11.5887 46.2625 11.5887C45.0624 11.5887 44.1419 11.1916 43.3465 10.3962C42.5511 9.60078 42.1539 8.62084 42.1539 7.45744C42.1539 6.29404 42.5511 5.3141 43.3465 4.51871C44.1419 3.72332 45.1142 3.32617 46.2625 3.32617C46.8442 3.32617 47.3925 3.4287 47.9073 3.63591C48.4231 3.84204 48.8473 4.13343 49.1786 4.509L48.4501 5.23856C48.2073 4.94393 47.8922 4.71405 47.5058 4.54893C47.1184 4.38273 46.705 4.30071 46.2636 4.30071C45.4024 4.30071 44.6728 4.59966 44.076 5.19647C43.4857 5.80083 43.1921 6.55413 43.1921 7.46176C43.1921 8.36938 43.4868 9.12268 44.076 9.72705C44.6728 10.3239 45.4013 10.6228 46.2636 10.6228C47.0514 10.6228 47.7076 10.4016 48.23 9.96016C48.7523 9.51876 49.0556 8.91008 49.1354 8.13735H46.2636V7.18764H50.097C50.1337 7.39377 50.1531 7.59342 50.1531 7.78444L50.1521 7.77689Z" fill="#5F6368"/>
<path d="M50.847 8.70477C50.847 7.87269 51.1082 7.18414 51.6306 6.64022C52.1605 6.09521 52.8274 5.82324 53.6304 5.82324C54.4333 5.82324 55.096 6.09629 55.6183 6.64022C56.1482 7.18522 56.4137 7.87377 56.4137 8.70477C56.4137 9.53577 56.1482 10.233 55.6183 10.7693C55.096 11.3143 54.4333 11.5863 53.6304 11.5863C52.8274 11.5863 52.1605 11.3133 51.6306 10.7693C51.1082 10.2243 50.847 9.53685 50.847 8.70477ZM51.8637 8.70477C51.8637 9.28647 52.0331 9.75701 52.372 10.1186C52.7109 10.4801 53.1307 10.6603 53.6314 10.6603C54.1322 10.6603 54.5531 10.4801 54.8909 10.1186C55.2287 9.75701 55.3992 9.28647 55.3992 8.70477C55.3992 8.12307 55.2298 7.66224 54.8909 7.30286C54.5455 6.93484 54.1257 6.7503 53.6314 6.7503C53.1372 6.7503 52.7184 6.93484 52.372 7.30286C52.0342 7.6644 51.8637 8.13062 51.8637 8.70477Z" fill="#5F6368"/>
<path d="M57.0344 8.70477C57.0344 7.87269 57.2956 7.18414 57.8179 6.64022C58.3478 6.09521 59.0148 5.82324 59.8177 5.82324C60.6207 5.82324 61.2833 6.09629 61.8057 6.64022C62.3356 7.18522 62.6011 7.87377 62.6011 8.70477C62.6011 9.53577 62.3356 10.233 61.8057 10.7693C61.2833 11.3143 60.6207 11.5863 59.8177 11.5863C59.0148 11.5863 58.3478 11.3133 57.8179 10.7693C57.2956 10.2243 57.0344 9.53685 57.0344 8.70477ZM58.0511 8.70477C58.0511 9.28647 58.2205 9.75701 58.5594 10.1186C58.8982 10.4801 59.3181 10.6603 59.8188 10.6603C60.3196 10.6603 60.7405 10.4801 61.0783 10.1186C61.4161 9.75701 61.5866 9.28647 61.5866 8.70477C61.5866 8.12307 61.4171 7.66224 61.0783 7.30286C60.7329 6.93484 60.3131 6.7503 59.8188 6.7503C59.3245 6.7503 58.9058 6.93484 58.5594 7.30286C58.2205 7.6644 58.0511 8.13062 58.0511 8.70477Z" fill="#5F6368"/>
<path d="M65.9248 13.9747C65.6216 13.9747 65.3388 13.9359 65.0733 13.8592C64.8078 13.7826 64.5661 13.6736 64.3492 13.5333C64.1322 13.393 63.9466 13.2279 63.7912 13.0358C63.6369 12.8448 63.5182 12.63 63.4372 12.3947L64.3988 11.9976C64.5089 12.3149 64.6999 12.5685 64.973 12.7606C65.246 12.9516 65.5611 13.0477 65.9227 13.0477C66.4752 13.0477 66.9048 12.8825 67.2156 12.5512C67.5264 12.2199 67.6797 11.7634 67.6797 11.1817V10.6615H67.6354C67.4444 10.9486 67.1843 11.1752 66.8573 11.3414C66.5292 11.5065 66.1741 11.5896 65.7921 11.5896C65.0852 11.5896 64.4765 11.3144 63.9693 10.7608C63.4685 10.1942 63.2181 9.50782 63.2181 8.70595C63.2181 7.90409 63.4685 7.22202 63.9693 6.6619C64.4776 6.10179 65.0841 5.82227 65.7921 5.82227C66.1752 5.82227 66.5303 5.90536 66.8573 6.07049C67.1843 6.23669 67.4444 6.46333 67.6354 6.7504H67.6797V5.99926H68.652V11.1806C68.652 12.0494 68.4049 12.7304 67.9128 13.2247C67.412 13.7254 66.7494 13.9758 65.9248 13.9758V13.9747ZM65.9583 10.6604C66.459 10.6604 66.8681 10.4802 67.1854 10.1187C67.5167 9.75711 67.6829 9.28658 67.6829 8.70487C67.6829 8.12317 67.5167 7.67098 67.1854 7.30296C66.8616 6.93495 66.4526 6.7504 65.9583 6.7504C65.464 6.7504 65.0647 6.93495 64.7312 7.30296C64.3999 7.67098 64.2337 8.13828 64.2337 8.70487C64.2337 9.27147 64.3999 9.7474 64.7312 10.1068C65.0625 10.4759 65.4716 10.6604 65.9583 10.6604Z" fill="#5F6368"/>
<path d="M70.9076 3.50391V11.4125H69.891V3.50391H70.9076Z" fill="#5F6368"/>
<path d="M74.5198 11.5883C73.7244 11.5883 73.0694 11.3153 72.5535 10.7714C72.0376 10.2264 71.7808 9.53782 71.7808 8.70682C71.7808 7.87582 72.0311 7.19591 72.5319 6.64659C73.0327 6.09834 73.6726 5.82422 74.454 5.82422C75.2354 5.82422 75.8948 6.08431 76.3707 6.60233C76.8466 7.12252 77.083 7.84884 77.083 8.78453L77.0711 8.89461H72.8179C72.8319 9.42451 73.0089 9.85188 73.3478 10.1756C73.6867 10.4994 74.0914 10.6613 74.563 10.6613C75.2116 10.6613 75.7188 10.3375 76.0869 9.68892L76.9923 10.1303C76.7495 10.5868 76.4128 10.9441 75.9811 11.2009C75.5494 11.4578 75.0627 11.5883 74.5177 11.5883H74.5198ZM72.8956 8.05389H76.0005C75.9703 7.67832 75.8181 7.36751 75.5419 7.12037C75.2667 6.87322 74.8954 6.75019 74.4324 6.75019C74.0493 6.75019 73.7201 6.86891 73.4438 7.10418C73.1676 7.33945 72.9852 7.65674 72.8967 8.05389H72.8956Z" fill="#5F6368"/>
<path d="M84.1197 11.5888C82.9487 11.5888 81.9688 11.1949 81.181 10.406C80.3996 9.61815 80.01 8.63498 80.01 7.45647C80.01 6.27795 80.3996 5.2991 81.181 4.51774C81.9623 3.72235 82.9401 3.3252 84.1197 3.3252C85.2993 3.3252 86.2803 3.75689 87.025 4.61811L86.2965 5.325C85.7299 4.63969 85.0036 4.29866 84.1197 4.29866C83.2358 4.29866 82.5106 4.59329 81.9213 5.18254C81.3396 5.76424 81.0482 6.52402 81.0482 7.45755C81.0482 8.39107 81.3396 9.15084 81.9213 9.73254C82.5095 10.3229 83.2434 10.6164 84.1197 10.6164C85.0413 10.6164 85.8389 10.229 86.5177 9.45626L87.257 10.175C86.8814 10.6251 86.4217 10.9715 85.8756 11.2186C85.3306 11.4658 84.7456 11.5888 84.1197 11.5888Z" fill="#5F6368"/>
<path d="M89.1789 3.50391V11.4125H88.1622V3.50391H89.1789Z" fill="#5F6368"/>
<path d="M90.052 8.70477C90.052 7.87269 90.3132 7.18414 90.8355 6.64022C91.3654 6.09521 92.0324 5.82324 92.8353 5.82324C93.6383 5.82324 94.3009 6.09629 94.8233 6.64022C95.3531 7.18522 95.6186 7.87377 95.6186 8.70477C95.6186 9.53577 95.3531 10.233 94.8233 10.7693C94.3009 11.3143 93.6383 11.5863 92.8353 11.5863C92.0324 11.5863 91.3654 11.3133 90.8355 10.7693C90.3132 10.2243 90.052 9.53685 90.052 8.70477ZM91.0686 8.70477C91.0686 9.28647 91.2381 9.75701 91.5769 10.1186C91.9158 10.4801 92.3356 10.6603 92.8364 10.6603C93.3372 10.6603 93.7581 10.4801 94.0958 10.1186C94.4336 9.75701 94.6042 9.28647 94.6042 8.70477C94.6042 8.12307 94.4347 7.66224 94.0958 7.30286C93.7505 6.93484 93.3307 6.7503 92.8364 6.7503C92.3421 6.7503 91.9234 6.93484 91.5769 7.30286C91.2391 7.6644 91.0686 8.13062 91.0686 8.70477Z" fill="#5F6368"/>
<path d="M101.241 11.4122H100.269V10.6611H100.225C100.07 10.9266 99.832 11.1467 99.5125 11.3237C99.1931 11.5007 98.8585 11.5892 98.5132 11.5892C97.8505 11.5892 97.3411 11.3993 96.9839 11.0204C96.6267 10.6406 96.4486 10.102 96.4486 9.40268V6.00098H97.4652V9.33685C97.4868 10.2207 97.9325 10.6621 98.8024 10.6621C99.2082 10.6621 99.546 10.4981 99.819 10.1711C100.092 9.84409 100.227 9.45125 100.227 8.99474V6.00098H101.244V11.4133L101.241 11.4122Z" fill="#5F6368"/>
<path d="M104.689 11.5894C103.982 11.5894 103.373 11.3099 102.866 10.7498C102.365 10.1832 102.115 9.50115 102.115 8.70576C102.115 7.91038 102.365 7.22939 102.866 6.66172C103.374 6.1016 103.981 5.82208 104.689 5.82208C105.086 5.82208 105.448 5.90626 105.776 6.07678C106.103 6.24622 106.356 6.47069 106.533 6.75129H106.577L106.533 6.00015V3.50391H107.55V11.4125H106.577V10.6613H106.533C106.356 10.9408 106.105 11.1653 105.776 11.3358C105.448 11.5053 105.087 11.5894 104.689 11.5894ZM104.855 10.6613C105.356 10.6613 105.765 10.4811 106.082 10.1195C106.413 9.758 106.578 9.28747 106.578 8.70576C106.578 8.12406 106.413 7.67187 106.082 7.30385C105.758 6.93584 105.349 6.75129 104.855 6.75129C104.36 6.75129 103.961 6.93584 103.628 7.30385C103.296 7.67187 103.131 8.13917 103.131 8.70576C103.131 9.27236 103.296 9.74829 103.628 10.1077C103.959 10.4768 104.368 10.6613 104.855 10.6613Z" fill="#5F6368"/>
</svg>
