<svg width="82" height="34" viewBox="0 0 82 34" fill="none" xmlns="http://www.w3.org/2000/svg">
<path d="M28.7177 11.478C29.0347 11.6803 29.5258 11.8528 30.1325 11.9683C30.7392 12.1408 31.3746 12.1693 32.0397 12.1693C32.675 12.1693 33.2532 12.0837 33.7729 11.9385C34.2926 11.7659 34.7551 11.5363 35.1591 11.2471C35.5346 10.9591 35.8529 10.6141 36.0555 10.1523C36.257 9.72035 36.3726 9.25984 36.3726 8.71244C36.3726 8.07816 36.1712 7.50221 35.7957 6.98336C35.4202 6.49306 34.7837 6.08966 33.8885 5.80169L32.1553 5.22574C31.52 5.02466 31.0289 4.79379 30.7678 4.53437C30.5378 4.3035 30.3924 4.01552 30.3924 3.64066C30.3924 3.15161 30.595 2.74819 30.9705 2.54587C31.3746 2.31624 31.8955 2.17226 32.6179 2.17226C33.513 2.17226 34.264 2.34479 35.0149 2.66131C35.2176 2.7482 35.3904 2.83508 35.506 2.83508C35.7087 2.83508 35.7957 2.71965 35.7957 2.43168V1.94138C35.7957 1.76884 35.7659 1.62486 35.6801 1.53797C35.593 1.42254 35.4774 1.30709 35.3046 1.22145C35.189 1.13456 34.9863 1.04768 34.7837 1.01913C34.5822 0.933481 34.351 0.903687 34.0911 0.818041C33.8599 0.788251 33.5702 0.702601 33.2818 0.702601C32.9933 0.615713 32.7036 0.615723 32.4438 0.615723C31.8657 0.615723 31.4044 0.702604 30.9133 0.818041C30.4222 0.990575 29.9883 1.19165 29.6128 1.45108C29.2374 1.73905 28.9775 2.05681 28.7177 2.46022C28.4864 2.86363 28.3994 3.29559 28.3994 3.84298C28.3994 4.47726 28.602 5.08177 29.0061 5.62916C29.4102 6.20511 30.0467 6.6085 30.9991 6.86792L32.7907 7.44387C33.3974 7.6462 33.8015 7.84728 34.0327 8.07816C34.264 8.30903 34.351 8.59701 34.351 8.91353C34.351 9.40382 34.1483 9.80723 33.7157 10.0952C33.2818 10.3832 32.7036 10.4986 31.8955 10.4986C31.4044 10.4986 30.9133 10.4701 30.4508 10.3261C29.9597 10.2392 29.5258 10.0952 29.0645 9.89288C28.9489 9.86433 28.8333 9.80722 28.7463 9.77867C28.6592 9.74888 28.5722 9.7489 28.515 9.7489C28.3123 9.7489 28.2266 9.86433 28.2266 10.1523V10.758C28.2266 10.8735 28.2552 10.9877 28.3123 11.1329C28.3994 11.2769 28.515 11.3625 28.7177 11.478Z" fill="black"/>
<path d="M7.81234 5.5135C7.37843 5.42661 6.91617 5.4266 6.51173 5.4266C5.26943 5.4266 4.25827 5.74438 3.47836 6.40721C2.69832 7.04025 2.35156 7.9054 2.35156 8.94185C2.35156 9.95099 2.64051 10.728 3.24723 11.3338C3.85383 11.9382 4.66284 12.2262 5.70285 12.2262C7.1473 12.2262 8.36062 11.6503 9.34282 10.5269C9.45844 10.8149 9.57407 11.0458 9.71829 11.2469C9.86251 11.4492 10.008 11.6503 10.1522 11.8228C10.2678 11.9382 10.3835 11.9966 10.5277 11.9966C10.6135 11.9966 10.7291 11.968 10.8447 11.8811L11.6255 11.3623C11.7983 11.2469 11.8567 11.1314 11.8567 10.9874C11.8567 10.9018 11.8269 10.8149 11.7697 10.6995C11.5969 10.3829 11.4514 10.095 11.3657 9.80701C11.2786 9.51904 11.25 9.17272 11.25 8.71222V4.67813C11.25 3.35247 10.9317 2.34457 10.238 1.65319C9.54547 0.961809 8.50485 0.644043 7.00283 0.644043C6.30945 0.644043 5.67388 0.730937 5.06728 0.874923C4.4894 1.04746 3.96946 1.19143 3.53605 1.45085C3.36274 1.53774 3.24723 1.62339 3.21827 1.68173C3.13161 1.76862 3.13161 1.91262 3.13161 2.1137V2.71942C3.13161 2.94905 3.21826 3.1216 3.36273 3.1216C3.39157 3.1216 3.47836 3.1216 3.56502 3.09305C3.65168 3.0645 3.79614 3.0074 3.9983 2.92051C4.43171 2.74797 4.89384 2.60399 5.32725 2.5171C5.76054 2.40167 6.22279 2.34456 6.6562 2.34456C7.63827 2.34456 8.27359 2.54565 8.67891 2.92051C9.08297 3.29537 9.25579 3.95821 9.25579 4.90901V5.80147C8.73609 5.68603 8.30343 5.60039 7.81234 5.5135ZM9.2272 7.70307C9.2272 8.10648 9.1986 8.48134 9.11157 8.74076C9.02454 9.02873 8.91016 9.3167 8.7075 9.51903C8.38922 9.89264 7.98515 10.1521 7.52289 10.2961C7.08948 10.4698 6.62723 10.5269 6.22279 10.5269C5.64503 10.5269 5.21162 10.3544 4.92281 10.095C4.63387 9.807 4.4894 9.37381 4.4894 8.79786C4.4894 8.19337 4.69168 7.70308 5.09613 7.38656C5.50057 7.07004 6.10729 6.89626 6.91617 6.89626C7.29177 6.89626 7.6967 6.9248 8.10077 6.98314C8.50484 7.01169 8.88032 7.09858 9.2272 7.18423V7.70307Z" fill="black"/>
<path d="M15.4581 11.2768C15.5439 11.5064 15.631 11.6802 15.6894 11.7658C15.7752 11.8527 15.9207 11.8813 16.1805 11.8813H17.2199C17.4511 11.8813 17.624 11.8527 17.711 11.7658C17.798 11.6802 17.885 11.5362 17.9422 11.2768L19.8494 3.32403L21.7852 11.2768C21.8138 11.5064 21.8996 11.6802 22.0152 11.7658C22.1023 11.8527 22.3049 11.8813 22.5063 11.8813H23.547C23.7496 11.8813 23.9225 11.8527 24.0381 11.7658C24.1251 11.6802 24.2407 11.5362 24.2693 11.2768L27.2731 1.76874C27.3029 1.65331 27.3601 1.53786 27.3601 1.48076C27.3601 1.39387 27.3887 1.36533 27.3887 1.27844C27.3887 1.07736 27.3029 0.990476 27.1003 0.990476H25.9739C25.7426 0.990476 25.5698 1.01901 25.4828 1.1059C25.3957 1.19278 25.3087 1.33679 25.2515 1.59497L23.1131 9.86421L21.1201 1.56641C21.0915 1.33677 21.0045 1.163 20.8888 1.07735C20.8018 0.990466 20.6004 0.961914 20.3977 0.961914H19.3869C19.1557 0.961914 18.9829 0.990466 18.8958 1.07735C18.8088 1.163 18.7218 1.30698 18.6646 1.56641L16.7288 9.72023L14.6774 1.56641C14.5916 1.33677 14.5045 1.163 14.4461 1.07735C14.3603 0.990466 14.2161 0.961914 13.955 0.961914H12.7428C12.5402 0.961914 12.4531 1.04757 12.4531 1.2499C12.4531 1.33679 12.4817 1.48076 12.5688 1.74018L15.4581 11.2768Z" fill="black"/>
<path d="M33.778 17.2406C29.2413 19.1708 24.2731 20.0931 19.7948 20.0931C13.1208 20.0931 6.6501 18.2771 1.42109 15.2236C0.987801 14.9356 0.612201 15.4247 1.01664 15.7995C5.87006 20.1502 12.2542 22.7717 19.3907 22.7717C24.4459 22.7717 30.3391 21.1878 34.4419 18.1617C35.02 17.7011 34.4705 16.9812 33.778 17.2406Z" fill="#FF9900"/>
<path d="M31.234 15.5694C30.8586 15.8003 30.9456 16.1751 31.3211 16.1453C32.6203 15.9728 35.5669 15.6277 36.0592 16.3191C36.5789 16.9521 35.4811 19.7189 35.0186 20.9577C34.8458 21.3325 35.1914 21.4765 35.5383 21.1873C37.7339 19.3726 38.2835 15.5408 37.8496 15.022C37.3871 14.3877 33.5453 13.9557 31.234 15.5694Z" fill="#FF9900"/>
<path d="M47.5635 9.34465C47.4777 9.34465 47.3906 9.31611 47.3906 9.17212V2.5165C47.3906 2.42961 47.4192 2.34396 47.5635 2.34396H47.7661C47.8817 2.34396 47.9389 2.37251 47.9389 2.5165L47.9688 2.9199C48.2572 2.68903 48.5755 2.5165 48.8639 2.40106C49.1524 2.28562 49.442 2.22852 49.7591 2.22852C50.3956 2.22852 50.8867 2.4594 51.2622 2.9199C51.6377 3.35186 51.8391 4.01468 51.8391 4.7644C51.8391 5.57122 51.6377 6.20427 51.2622 6.69457C50.8569 7.18362 50.3658 7.4145 49.6733 7.4145C49.0666 7.4145 48.5456 7.18362 48.0259 6.72311V9.14358C48.0259 9.22923 47.9974 9.3161 47.8531 9.3161H47.5635V9.34465ZM49.5863 6.92545C50.106 6.92545 50.51 6.75167 50.7997 6.4066C51.0882 6.03174 51.2038 5.51289 51.2038 4.82151C51.2038 3.43875 50.6841 2.77592 49.6149 2.77592C49.0952 2.77592 48.5171 2.97825 47.9974 3.41021V6.2626C48.2858 6.49224 48.5171 6.66602 48.7769 6.78022C49.0367 6.83856 49.3264 6.92545 49.5863 6.92545Z" fill="black"/>
<path d="M54.205 7.4145C53.7723 7.4145 53.3956 7.29907 53.1072 7.0111C52.8187 6.78022 52.7031 6.40659 52.7031 5.97464C52.7031 5.48434 52.8759 5.13802 53.1942 4.85005C53.5113 4.56208 53.9738 4.44665 54.5233 4.44665C54.956 4.44665 55.4185 4.53354 55.9381 4.67753V3.87072C55.9381 3.46731 55.8524 3.17933 55.6497 3.03534C55.4471 2.86281 55.1586 2.80446 54.7247 2.80446C54.292 2.80446 53.8009 2.89136 53.3098 3.03534C53.2812 3.03534 53.1942 3.06389 53.1358 3.06389C53.05 3.06389 53.05 3.03534 53.05 2.94845V2.74736C53.05 2.71881 53.05 2.66049 53.0786 2.63194C53.1072 2.60339 53.1072 2.60338 53.1656 2.54504C53.6853 2.34396 54.205 2.22852 54.8117 2.22852C55.3899 2.22852 55.8225 2.34395 56.1122 2.60338C56.4007 2.83301 56.5163 3.20787 56.5163 3.69817V7.15508C56.5163 7.24197 56.4877 7.32885 56.3435 7.32885H56.1408C56.0538 7.32885 55.968 7.29906 55.968 7.15508L55.9381 6.75167C55.4185 7.21342 54.8117 7.4145 54.205 7.4145ZM54.292 6.92545C54.5233 6.92545 54.8117 6.89566 55.1002 6.75167C55.3899 6.63624 55.6783 6.52203 55.9966 6.31971V5.10949C55.5627 4.99406 55.1586 4.93695 54.6961 4.93695C53.7723 4.93695 53.3098 5.31181 53.3098 5.97464C53.3098 6.26261 53.3956 6.49225 53.5411 6.66603C53.7139 6.83856 53.9738 6.92545 54.292 6.92545Z" fill="black"/>
<path d="M58.2197 7.32963C58.1327 7.32963 58.0469 7.29984 58.0469 7.15585V2.51727C58.0469 2.43162 58.0755 2.34473 58.2197 2.34473H58.4223C58.538 2.34473 58.5952 2.37328 58.5952 2.51727L58.6237 3.09322C58.855 2.80525 59.1149 2.60416 59.3461 2.51727C59.5774 2.40183 59.867 2.34473 60.1555 2.34473C60.2711 2.34473 60.3581 2.34473 60.3867 2.34473C60.4725 2.34473 60.5596 2.37328 60.5596 2.51727V2.74813C60.5596 2.77668 60.5595 2.77668 60.5309 2.83378C60.5309 2.86357 60.5024 2.86357 60.4439 2.86357C60.4153 2.86357 60.3283 2.86357 60.2711 2.86357C60.2425 2.86357 60.1555 2.86357 60.0684 2.86357C59.78 2.86357 59.4903 2.89213 59.2603 3.03612C59.0291 3.15155 58.8264 3.32409 58.5666 3.55496V7.15585C58.5666 7.24274 58.538 7.32963 58.3925 7.32963H58.2197Z" fill="black"/>
<path d="M63.1358 7.38643C62.7305 7.38643 62.442 7.27099 62.2394 7.06991C62.038 6.86758 61.9223 6.57961 61.9223 6.1762V2.92038H61.1416C61.0558 2.92038 60.9688 2.89182 60.9688 2.74784V2.66096C60.9688 2.63241 60.9687 2.57531 60.9973 2.54552C60.9973 2.51697 61.0259 2.51698 61.113 2.51698L61.9223 2.43133L62.0081 1.13422C62.0081 1.10567 62.038 1.04733 62.038 1.01878C62.0666 0.990228 62.0666 0.990234 62.1536 0.990234H62.3264C62.4134 0.990234 62.4992 1.01877 62.4992 1.16276V2.45987H63.9153C64.0024 2.45987 64.0882 2.48843 64.0882 2.63242V2.83473C64.0882 2.92038 64.0596 3.00728 63.9153 3.00728H62.4992V6.26308C62.4992 6.55105 62.5291 6.69504 62.6733 6.83903C62.7889 6.95446 62.9903 7.01157 63.2514 7.01157C63.4528 7.01157 63.6269 7.01156 63.7425 6.98301C63.8283 6.98301 63.8569 6.95447 63.9153 6.95447C63.9439 6.95447 64.0024 6.95447 64.0024 6.95447C64.0882 6.95447 64.118 6.98302 64.118 7.06991V7.24243C64.118 7.35787 64.0882 7.41497 64.0024 7.44352C63.7425 7.32932 63.4814 7.38643 63.1358 7.38643Z" fill="black"/>
<path d="M65.3303 7.32956C65.2433 7.32956 65.1562 7.29977 65.1562 7.15579V2.51721C65.1562 2.43156 65.1861 2.34467 65.3303 2.34467H65.533C65.6474 2.34467 65.7058 2.37322 65.7058 2.51721L65.7344 2.92062C66.0527 2.68974 66.3697 2.51721 66.7452 2.40177C67.1219 2.28633 67.4389 2.20068 67.7572 2.20068C68.2483 2.20068 68.5952 2.31612 68.855 2.57555C69.0863 2.80518 69.2305 3.18004 69.2305 3.69888V7.12725C69.2305 7.21413 69.2019 7.29977 69.0565 7.29977H68.768C68.681 7.29977 68.5952 7.27123 68.5952 7.12725V3.98685C68.5952 3.55489 68.5082 3.26692 68.3639 3.0646C68.1899 2.86351 67.93 2.77663 67.5832 2.77663C66.9478 2.77663 66.2839 2.97896 65.6772 3.41092V7.21412C65.6772 7.29977 65.6474 7.38667 65.5031 7.38667H65.3017V7.32956H65.3303Z" fill="black"/>
<path d="M72.8399 7.44304C72.0603 7.44304 71.4536 7.24197 71.1067 6.81001C70.7014 6.37805 70.5 5.71521 70.5 4.82151C70.5 4.01469 70.7014 3.38041 71.1067 2.9199C71.5108 2.48795 72.0889 2.22852 72.7528 2.22852C73.3596 2.22852 73.7935 2.40105 74.1403 2.74736C74.4574 3.06388 74.6314 3.55418 74.6314 4.18722C74.6314 4.4181 74.6314 4.62043 74.6016 4.79297C74.6016 4.87861 74.5158 4.96549 74.4288 4.96549H71.1067C71.1067 5.65687 71.2795 6.17573 71.5394 6.49225C71.8291 6.81001 72.3202 6.98253 72.9269 6.98253C73.418 6.98253 73.8507 6.89566 74.256 6.75167C74.3418 6.72312 74.4288 6.72311 74.4288 6.72311C74.4574 6.72311 74.4574 6.72312 74.5158 6.75167C74.5158 6.78022 74.5444 6.78021 74.5444 6.83855V7.0111C74.5444 7.12653 74.5158 7.18362 74.4288 7.21341C73.9091 7.32885 73.418 7.44304 72.8399 7.44304ZM74.0533 4.50498C74.0533 4.41809 74.0533 4.30266 74.0533 4.18722C74.0533 3.69817 73.9377 3.38042 73.735 3.15078C73.5038 2.91991 73.1581 2.77592 72.7242 2.77592C71.6836 2.77592 71.1353 3.35185 71.0781 4.50498H74.0533Z" fill="black"/>
<path d="M75.9619 7.32963C75.8748 7.32963 75.7891 7.29984 75.7891 7.15585V2.51727C75.7891 2.43162 75.8176 2.34473 75.9619 2.34473H76.1645C76.2802 2.34473 76.3373 2.37328 76.3373 2.51727L76.3659 3.09322C76.5972 2.80525 76.857 2.60416 77.0883 2.51727C77.3195 2.40183 77.6092 2.34473 77.8977 2.34473C78.0133 2.34473 78.1003 2.34473 78.1289 2.34473C78.2159 2.34473 78.3017 2.37328 78.3017 2.51727V2.74813C78.3017 2.77668 78.3017 2.77668 78.2732 2.83378C78.2732 2.86357 78.2445 2.86357 78.1861 2.86357C78.1289 2.86357 78.0705 2.86357 78.0133 2.86357C77.9847 2.86357 77.8977 2.86357 77.8106 2.86357C77.5222 2.86357 77.2338 2.89213 77.0025 3.03612C76.7713 3.15155 76.5686 3.32409 76.3088 3.55496V7.15585C76.3088 7.24274 76.2802 7.32963 76.1359 7.32963H75.9619Z" fill="black"/>
<path d="M47.5635 18.1904C47.4777 18.1904 47.3906 18.1618 47.3906 18.0179V13.4078C47.3906 13.3222 47.4192 13.2353 47.5635 13.2353H47.7661C47.8817 13.2353 47.9389 13.2638 47.9389 13.4078L47.9688 13.8112C48.2858 13.5804 48.6041 13.4078 48.9795 13.2924C49.355 13.177 49.6733 13.0913 49.9903 13.0913C50.4814 13.0913 50.8283 13.2067 51.0882 13.4662C51.3194 13.6958 51.4636 14.0707 51.4636 14.5895V18.0179C51.4636 18.1047 51.435 18.1904 51.2908 18.1904H51.0011C50.9154 18.1904 50.8283 18.1618 50.8283 18.0179V14.8204C50.8283 14.3872 50.7413 14.0992 50.5971 13.8981C50.4243 13.6958 50.1644 13.6102 49.8175 13.6102C49.1822 13.6102 48.517 13.8112 47.9103 14.2432V18.0464C47.9103 18.1333 47.8817 18.2202 47.7375 18.2202H47.5349V18.1904H47.5635Z" fill="black"/>
<path d="M55.0977 18.3342C54.3169 18.3342 53.7114 18.1331 53.3645 17.7011C52.9592 17.2692 52.7578 16.6063 52.7578 15.7126C52.7578 14.9058 52.9592 14.2728 53.3645 13.811C53.7686 13.3791 54.3467 13.1196 55.0106 13.1196C55.6174 13.1196 56.0513 13.2922 56.3982 13.6385C56.7152 13.955 56.8893 14.4453 56.8893 15.0796C56.8893 15.3092 56.8893 15.5115 56.8594 15.6841C56.8594 15.771 56.7736 15.8566 56.6866 15.8566H53.3645C53.3645 16.548 53.5374 17.0668 53.7972 17.3833C54.0869 17.7011 54.578 17.8736 55.1847 17.8736C55.6758 17.8736 56.1085 17.7868 56.5125 17.6428C56.5996 17.6142 56.6866 17.6142 56.6866 17.6142C56.7152 17.6142 56.7152 17.6142 56.7736 17.6428C56.7736 17.6726 56.8022 17.6726 56.8022 17.7297V17.9022C56.8022 18.0176 56.7736 18.076 56.6866 18.1045C56.1955 18.22 55.646 18.3342 55.0977 18.3342ZM56.3111 15.3676C56.3111 15.2807 56.3111 15.1652 56.3111 15.0498C56.3111 14.5607 56.1955 14.243 55.9929 14.0133C55.7616 13.7825 55.4147 13.6385 54.9821 13.6385C53.9414 13.6385 53.3931 14.2144 53.3347 15.3676H56.3111Z" fill="black"/>
<path d="M59.628 18.2775C59.2227 18.2775 58.9342 18.1621 58.7316 17.961C58.5302 17.7587 58.4145 17.4707 58.4145 17.0673V13.7544H57.6338C57.548 13.7544 57.4609 13.7258 57.4609 13.5818V13.4949C57.4609 13.4664 57.461 13.4081 57.4895 13.3795C57.4895 13.351 57.5181 13.351 57.6052 13.351L58.4145 13.2641L58.5003 11.9682C58.5003 11.9397 58.5302 11.8813 58.5302 11.8528C58.5588 11.8242 58.5588 11.8242 58.6446 11.8242H58.8186C58.9057 11.8242 58.9914 11.8528 58.9914 11.9967V13.2939H60.4075C60.4946 13.2939 60.5803 13.3224 60.5803 13.4664V13.6675C60.5803 13.7544 60.5518 13.8413 60.4075 13.8413H59.0213V17.0971C59.0213 17.3851 59.0499 17.529 59.1941 17.673C59.3383 17.817 59.5124 17.8456 59.7722 17.8456C59.9736 17.8456 60.1477 17.8456 60.2633 17.817C60.3491 17.817 60.3789 17.7885 60.4361 17.7885C60.4647 17.7885 60.5232 17.7885 60.5232 17.7885C60.6102 17.7885 60.6388 17.817 60.6388 17.9027V18.0764C60.6388 18.1919 60.6102 18.249 60.5232 18.2775C60.2347 18.2204 59.945 18.2775 59.628 18.2775Z" fill="black"/>
<path d="M62.8242 18.1907C62.7372 18.1907 62.6514 18.1621 62.6216 18.0765L61.0911 13.5236C61.0625 13.4367 61.0625 13.4081 61.0625 13.351C61.0625 13.2927 61.0911 13.2641 61.1781 13.2641H61.4952C61.5822 13.2641 61.6108 13.2927 61.6692 13.3796L62.9971 17.5291L64.1819 13.3796C64.2105 13.2927 64.2689 13.2641 64.3846 13.2641H64.76C64.8471 13.2641 64.9328 13.2927 64.9627 13.3796L66.1463 17.5291L67.5338 13.3225C67.5624 13.2356 67.6196 13.207 67.7066 13.207H67.9951C68.0821 13.207 68.1107 13.2356 68.1107 13.2927C68.1107 13.3225 68.1107 13.3796 68.0821 13.4665L66.4646 18.0181C66.436 18.105 66.3776 18.1336 66.2619 18.1336H65.9449C65.8579 18.1336 65.7708 18.105 65.7422 18.0181L64.5574 13.8699L63.3738 18.0181C63.3439 18.105 63.2867 18.1336 63.1711 18.1336H62.8827V18.1907H62.8242Z" fill="black"/>
<path d="M70.9753 18.3344C70.253 18.3344 69.6761 18.1047 69.2708 17.643C68.8667 17.211 68.6641 16.5482 68.6641 15.7128C68.6641 14.906 68.8667 14.273 69.2708 13.7827C69.6761 13.3507 70.253 13.0913 70.9753 13.0913C71.6977 13.0913 72.2758 13.3222 72.6799 13.7827C73.0852 14.2147 73.2866 14.8775 73.2866 15.7128C73.2866 16.5197 73.0852 17.1539 72.6799 17.643C72.2472 18.1047 71.6977 18.3344 70.9753 18.3344ZM70.9753 17.8168C72.103 17.8168 72.6799 17.1254 72.6799 15.7128C72.6799 14.3015 72.103 13.6102 70.9753 13.6102C69.8489 13.6102 69.2708 14.3015 69.2708 15.7128C69.2708 17.1254 69.8203 17.8168 70.9753 17.8168Z" fill="black"/>
<path d="M74.6662 18.1905C74.5792 18.1905 74.4922 18.1619 74.4922 18.0179V13.4079C74.4922 13.3222 74.522 13.2354 74.6662 13.2354H74.8677C74.9833 13.2354 75.0417 13.2639 75.0417 13.4079L75.0703 13.9838C75.3016 13.6959 75.5614 13.4948 75.7927 13.4079C76.0239 13.2925 76.3124 13.2354 76.6021 13.2354C76.7177 13.2354 76.8035 13.2354 76.8321 13.2354C76.9191 13.2354 77.0061 13.2639 77.0061 13.4079V13.6388C77.0061 13.6673 77.0061 13.6673 76.9775 13.7257C76.9477 13.7542 76.9477 13.7542 76.8905 13.7542C76.8619 13.7542 76.7749 13.7542 76.7177 13.7542C76.6878 13.7542 76.602 13.7542 76.515 13.7542C76.2266 13.7542 75.9369 13.7828 75.7056 13.9267C75.4744 14.0422 75.273 14.2147 75.0131 14.4456V18.0465C75.0131 18.1334 74.9833 18.2203 74.8391 18.2203H74.6377V18.1905H74.6662Z" fill="black"/>
<path d="M78.04 18.191C77.9542 18.191 77.8672 18.1625 77.8672 18.0185V11.0749C77.8672 10.988 77.8958 10.9023 78.04 10.9023H78.3297C78.4167 10.9023 78.5025 10.9309 78.5025 11.0749V15.454L80.8424 13.3514C80.9294 13.2645 81.0164 13.2645 81.0736 13.2645H81.4491C81.5361 13.2645 81.5647 13.293 81.5647 13.3514C81.5647 13.4085 81.5361 13.437 81.4491 13.5239L79.052 15.6278L81.6518 18.0185C81.6804 18.047 81.7388 18.1054 81.7388 18.1339C81.7388 18.2208 81.7102 18.2208 81.6232 18.2208H81.2179C81.1321 18.2208 81.045 18.191 81.0164 18.1339L78.5025 15.8004V18.047C78.5025 18.1339 78.4739 18.2208 78.3297 18.2208H78.04V18.191Z" fill="black"/>
<path d="M2.81236 30.6689C2.26345 30.4665 1.859 30.2083 1.62787 29.9191C1.39674 29.6312 1.28125 29.2575 1.28125 28.7958C1.28125 28.2198 1.48341 27.7593 1.91682 27.413C2.3501 27.0667 2.92798 26.8942 3.6502 26.8942C4.2568 26.8942 4.83469 27.0096 5.41245 27.2405V28.2769C4.80572 28.1044 4.25681 27.989 3.73686 27.989C3.01464 27.989 2.63904 28.2199 2.63904 28.6804C2.63904 28.8541 2.69686 28.9981 2.81236 29.1123C2.92798 29.2278 3.18795 29.3432 3.53458 29.4586L4.22796 29.7181C4.80571 29.9191 5.21015 30.1786 5.44128 30.438C5.67241 30.726 5.81688 31.0723 5.81688 31.5328C5.81688 32.167 5.58575 32.6573 5.1235 33.031C4.66124 33.4058 4.05464 33.5784 3.24576 33.5784C2.89901 33.5784 2.55239 33.5498 2.20563 33.4927C1.85901 33.4344 1.57006 33.3487 1.31009 33.2333V32.1671C1.62787 32.2539 1.94565 32.3396 2.29241 32.3979C2.63904 32.455 2.95682 32.4836 3.24576 32.4836C3.62123 32.4836 3.88134 32.4265 4.08349 32.2825C4.28578 32.1385 4.37243 31.9647 4.37243 31.7065C4.37243 31.5042 4.31461 31.3602 4.19911 31.2448C4.08349 31.1294 3.82352 31.0139 3.47677 30.8699L2.81236 30.6689ZM7.89678 31.4471C7.92538 31.8505 8.041 32.1385 8.27225 32.3396C8.5035 32.5121 8.85038 32.599 9.31289 32.599C9.71696 32.599 10.208 32.5121 10.7576 32.3681V33.2618C10.5549 33.3773 10.2951 33.4629 9.9768 33.5213C9.68836 33.5784 9.37008 33.6081 9.05304 33.6081C8.27226 33.6081 7.66553 33.4058 7.26134 32.9739C6.8569 32.5419 6.65474 31.9362 6.65474 31.1008C6.65474 30.3226 6.8569 29.7181 7.26134 29.2576C7.66553 28.8244 8.24366 28.5947 8.96601 28.5947C9.57273 28.5947 10.0352 28.7672 10.3809 29.1123C10.6992 29.4586 10.872 29.9191 10.872 30.5534C10.872 30.6974 10.872 30.8414 10.8434 31.0139C10.8148 31.1877 10.8148 31.3317 10.7862 31.4471H7.89678ZM8.87898 29.5455C8.56194 29.5455 8.33069 29.6312 8.15663 29.8049C7.98381 29.9775 7.89678 30.2369 7.86818 30.582H9.68835V30.438C9.68835 29.8335 9.42851 29.5455 8.87898 29.5455ZM13.964 33.3773C13.7042 33.4927 13.4145 33.5213 13.1261 33.5213C12.2881 33.5213 11.884 33.0608 11.884 32.1385V26.6348H13.2417V32.0231C13.2417 32.1956 13.2703 32.311 13.3287 32.3979C13.3859 32.455 13.4729 32.5121 13.6171 32.5121C13.7042 32.5121 13.8198 32.5121 13.964 32.4836V33.3773ZM15.8998 31.4471C15.9284 31.8505 16.044 32.1385 16.2753 32.3396C16.5065 32.5121 16.8522 32.599 17.3147 32.599C17.72 32.599 18.2111 32.5121 18.7594 32.3681V33.2618C18.5567 33.3773 18.2969 33.4629 17.9798 33.5213C17.6902 33.5784 17.3731 33.6081 17.0548 33.6081C16.2753 33.6081 15.6686 33.4058 15.2633 32.9739C14.8592 32.5419 14.6565 31.9362 14.6565 31.1008C14.6565 30.3226 14.8592 29.7181 15.2633 29.2576C15.6686 28.8244 16.2455 28.5947 16.9678 28.5947C17.5745 28.5947 18.037 28.7672 18.3839 29.1123C18.7022 29.4586 18.875 29.9191 18.875 30.5534C18.875 30.6974 18.875 30.8414 18.8464 31.0139C18.8178 31.1877 18.8178 31.3317 18.788 31.4471H15.8998ZM16.9106 29.5455C16.5923 29.5455 16.3611 29.6312 16.1883 29.8049C16.0154 29.9775 15.9284 30.2369 15.8998 30.582H17.72V30.438C17.6902 29.8335 17.4303 29.5455 16.9106 29.5455ZM23.2949 33.2618C23.1221 33.3487 22.9194 33.4344 22.6882 33.4927C22.4569 33.5498 22.1971 33.5784 21.9658 33.5784C21.2149 33.5784 20.6367 33.3773 20.2327 32.9453C19.8286 32.5121 19.626 31.9076 19.626 31.1294C19.626 30.3523 19.8286 29.7466 20.2613 29.3146C20.6952 28.8827 21.2733 28.6518 21.9957 28.6518C22.4569 28.6518 22.8622 28.7387 23.2377 28.9398V29.8335C22.8622 29.718 22.5439 29.6895 22.2257 29.6895C21.793 29.6895 21.4747 29.8049 21.2733 30.006C21.0707 30.2369 20.9836 30.582 20.9836 31.0437V31.1877C20.9836 31.6482 21.0707 31.9945 21.2733 32.2242C21.4747 32.455 21.793 32.5419 22.1971 32.5419C22.4868 32.5419 22.8622 32.4836 23.2377 32.3681V33.2618H23.2949ZM27.0509 33.3487C26.704 33.4629 26.3571 33.5498 25.9245 33.5498C25.4035 33.5498 24.9994 33.4344 24.7682 33.1749C24.5083 32.9155 24.3927 32.5419 24.3927 32.0231V29.7466H23.6704V28.9112L24.4213 28.7672L24.624 27.4701H25.7218V28.7387H26.9924V29.7466H25.7218V31.9647C25.7218 32.1671 25.7802 32.311 25.866 32.3979C25.953 32.4836 26.1259 32.5121 26.3571 32.5121C26.5598 32.5121 26.7624 32.4836 27.0223 32.455V33.3487H27.0509Z" fill="black"/>
<path d="M30.4283 32.846C30.3736 32.846 30.3502 32.8235 30.3502 32.7713V29.5911H29.2109C29.1562 29.5911 29.1328 29.5686 29.1328 29.516V29.3964C29.1328 29.3442 29.1562 29.3216 29.2109 29.3216H31.8019C31.8563 29.3216 31.8798 29.3442 31.8798 29.3964V29.516C31.8798 29.5686 31.8563 29.5911 31.8019 29.5911H30.6624V32.7713C30.6624 32.8235 30.639 32.846 30.5843 32.846H30.4283ZM33.5188 32.9208C33.0973 32.9208 32.7849 32.8087 32.5666 32.5766C32.3557 32.3448 32.2466 32.0079 32.2466 31.5588C32.2466 31.1324 32.3557 30.8032 32.5666 30.5637C32.7849 30.3242 33.0815 30.212 33.464 30.212C33.7841 30.212 34.0336 30.3019 34.2052 30.4741C34.3772 30.6536 34.4628 30.9006 34.4628 31.2297C34.4628 31.3645 34.4551 31.4692 34.4393 31.5366C34.4316 31.5888 34.4004 31.6114 34.3459 31.6114H32.5508C32.5508 31.9705 32.6368 32.2323 32.793 32.397C32.9488 32.5691 33.1987 32.6513 33.5342 32.6513C33.7918 32.6513 34.0336 32.6065 34.26 32.5243C34.3067 32.5092 34.3379 32.5018 34.3537 32.5018C34.3691 32.5018 34.3772 32.5092 34.3926 32.5166C34.4004 32.5317 34.4084 32.5392 34.4084 32.5617V32.6365C34.4084 32.6887 34.3926 32.7261 34.3459 32.7413C34.1038 32.8609 33.823 32.9208 33.5188 32.9208ZM34.174 31.3793C34.174 31.3345 34.1821 31.2745 34.1821 31.2149C34.1821 30.968 34.1196 30.7884 33.9946 30.6611C33.8697 30.5337 33.6904 30.4741 33.4482 30.4741C32.8864 30.4741 32.5898 30.7807 32.5586 31.3867H34.174V31.3793ZM36.2499 32.9057C35.8442 32.9057 35.5322 32.7935 35.3135 32.5691C35.1029 32.3448 34.9935 32.0079 34.9935 31.574C34.9935 31.1398 35.1029 30.8106 35.3135 30.5789C35.5322 30.3468 35.8442 30.2346 36.2499 30.2346C36.445 30.2346 36.6324 30.2646 36.804 30.3319C36.843 30.3468 36.8665 30.3841 36.8665 30.4367V30.5115C36.8665 30.5563 36.843 30.5789 36.804 30.5789C36.7963 30.5789 36.7805 30.5789 36.765 30.5711C36.7493 30.5637 36.7261 30.5637 36.6871 30.5563C36.5464 30.5263 36.406 30.5037 36.2656 30.5037C35.9301 30.5037 35.688 30.5863 35.5399 30.7507C35.3914 30.9154 35.3135 31.1775 35.3135 31.544V31.604C35.3135 31.9557 35.3914 32.2174 35.5399 32.3822C35.688 32.5466 35.9301 32.6365 36.2579 32.6365C36.3983 32.6365 36.5464 32.6139 36.7184 32.5691C36.7573 32.5617 36.7805 32.5543 36.7963 32.5466C36.8117 32.5392 36.8275 32.5392 36.8352 32.5392C36.8742 32.5392 36.8977 32.5617 36.8977 32.6065V32.6813C36.8977 32.7339 36.8819 32.7713 36.843 32.7861C36.6636 32.8609 36.4608 32.9057 36.2499 32.9057ZM37.6157 32.846C37.561 32.846 37.5375 32.8235 37.5375 32.7713V29.1569C37.5375 29.1047 37.561 29.0821 37.6157 29.0821H37.7561C37.8109 29.0821 37.834 29.1047 37.834 29.1569V30.5789C38.006 30.4664 38.1853 30.3767 38.3805 30.3094C38.5679 30.242 38.7549 30.212 38.9346 30.212C39.1919 30.212 39.387 30.2794 39.5277 30.4067C39.6681 30.5337 39.7306 30.7284 39.7306 30.9828V32.7713C39.7306 32.8235 39.707 32.846 39.6523 32.846H39.5119C39.4575 32.846 39.434 32.8235 39.434 32.7713V31.1101C39.434 30.8928 39.387 30.7284 39.3013 30.6311C39.2154 30.5337 39.075 30.4815 38.8799 30.4815C38.5286 30.4815 38.1853 30.5863 37.8498 30.8032V32.7713C37.8498 32.8235 37.8263 32.846 37.7716 32.846H37.6157ZM40.6279 32.846C40.5732 32.846 40.55 32.8235 40.55 32.7713V30.3616C40.55 30.3094 40.5732 30.2868 40.6279 30.2868H40.7371C40.7918 30.2868 40.8231 30.3094 40.8308 30.3616L40.8543 30.5789C41.0259 30.4589 41.2133 30.3693 41.4004 30.3019C41.5878 30.2346 41.7752 30.2046 41.9545 30.2046C42.2121 30.2046 42.4072 30.272 42.5476 30.399C42.688 30.5263 42.7505 30.721 42.7505 30.9754V32.7713C42.7505 32.8235 42.7273 32.846 42.6726 32.846H42.5322C42.4774 32.846 42.4539 32.8235 42.4539 32.7713V31.1101C42.4539 30.8928 42.4072 30.7284 42.3213 30.6311C42.2356 30.5337 42.0949 30.4815 41.9001 30.4815C41.5488 30.4815 41.2056 30.5863 40.8697 30.8032V32.7713C40.8697 32.8235 40.8466 32.846 40.7918 32.846H40.6279ZM44.6547 32.9208C44.2645 32.9208 43.9602 32.8012 43.7496 32.5617C43.531 32.3222 43.4296 31.9853 43.4296 31.5588C43.4296 31.1324 43.5387 30.8032 43.7496 30.5637C43.9679 30.3242 44.2722 30.2046 44.6547 30.2046C45.045 30.2046 45.3493 30.3242 45.5598 30.5637C45.7785 30.8032 45.8876 31.1324 45.8876 31.5588C45.8876 31.9853 45.7785 32.3222 45.5598 32.5617C45.3493 32.8012 45.045 32.9208 44.6547 32.9208ZM44.6547 32.6588C45.2633 32.6588 45.5756 32.2922 45.5756 31.5666C45.5756 30.8406 45.2713 30.4815 44.6547 30.4815C44.0462 30.4815 43.7338 30.8406 43.7338 31.5666C43.7338 32.2922 44.0381 32.6588 44.6547 32.6588ZM47.0271 32.8609C46.8868 32.8609 46.7773 32.8235 46.6994 32.7413C46.6214 32.6591 46.5821 32.5543 46.5821 32.4044V29.1495C46.5821 29.0973 46.6057 29.0747 46.6604 29.0747H46.8008C46.8555 29.0747 46.8787 29.0973 46.8787 29.1495V32.397C46.8787 32.4718 46.8945 32.5243 46.9257 32.5543C46.9569 32.584 47.0114 32.5991 47.0896 32.5991C47.1131 32.5991 47.1363 32.5991 47.1598 32.5917C47.1833 32.5917 47.2065 32.584 47.2223 32.584C47.2689 32.584 47.3002 32.6065 47.3002 32.6588V32.7561C47.3002 32.8012 47.277 32.8235 47.23 32.8309C47.1675 32.8535 47.1051 32.8609 47.0271 32.8609ZM48.9939 32.9208C48.6036 32.9208 48.299 32.8012 48.0884 32.5617C47.8698 32.3222 47.7683 31.9853 47.7683 31.5588C47.7683 31.1324 47.8778 30.8032 48.0884 30.5637C48.307 30.3242 48.6113 30.2046 48.9939 30.2046C49.3838 30.2046 49.6884 30.3242 49.899 30.5637C50.1176 30.8032 50.2267 31.1324 50.2267 31.5588C50.2267 31.9853 50.1176 32.3222 49.899 32.5617C49.6884 32.8012 49.3838 32.9208 48.9939 32.9208ZM48.9939 32.6588C49.6024 32.6588 49.9144 32.2922 49.9144 31.5666C49.9144 30.8406 49.6101 30.4815 48.9939 30.4815C48.385 30.4815 48.073 30.8406 48.073 31.5666C48.0807 32.2922 48.385 32.6588 48.9939 32.6588ZM51.8576 33.9534C51.7095 33.9534 51.5611 33.9385 51.4207 33.9086C51.2803 33.8786 51.1554 33.8412 51.0462 33.789C51.0072 33.7738 50.9837 33.7364 50.9837 33.6842V33.6091C50.9837 33.5643 50.9992 33.542 51.0462 33.542C51.0539 33.542 51.0694 33.542 51.0774 33.5495C51.0929 33.5495 51.1164 33.5569 51.1476 33.5717C51.3972 33.6465 51.6312 33.6916 51.8344 33.6916C52.1622 33.6916 52.404 33.6168 52.5602 33.4595C52.716 33.3025 52.7943 33.0556 52.7943 32.7187V32.4718C52.6616 32.5766 52.5209 32.6588 52.357 32.7187C52.2012 32.7787 52.045 32.8087 51.9046 32.8087C51.5611 32.8087 51.2957 32.6887 51.0852 32.457C50.8823 32.2249 50.7809 31.9183 50.7809 31.5366C50.7809 31.1249 50.8823 30.8032 51.0852 30.5637C51.288 30.3242 51.5691 30.2046 51.9201 30.2046C52.2556 30.2046 52.5444 30.3168 52.802 30.5415L52.8255 30.3542C52.8332 30.3019 52.8645 30.2794 52.9189 30.2794H53.0284C53.0828 30.2794 53.1063 30.3019 53.1063 30.3542V32.7187C53.1063 33.1152 52.9971 33.4221 52.7862 33.6316C52.5756 33.8412 52.2556 33.9534 51.8576 33.9534ZM51.9748 32.5466C52.2401 32.5466 52.5132 32.4418 52.7943 32.2249V30.8106C52.6458 30.6985 52.5132 30.6085 52.3728 30.5563C52.2401 30.5037 52.0917 30.4741 51.9436 30.4741C51.6625 30.4741 51.4442 30.5637 51.3038 30.7359C51.1631 30.9154 51.0929 31.1698 51.0929 31.5215C51.0929 31.8509 51.1711 32.1053 51.3193 32.2848C51.4677 32.4644 51.686 32.5466 51.9748 32.5466ZM54.0194 33.9534C53.9335 33.9534 53.8556 33.9385 53.7776 33.916C53.7229 33.9011 53.6994 33.8712 53.6994 33.8112V33.7364C53.6994 33.6916 53.7229 33.669 53.7619 33.669C53.7854 33.669 53.8008 33.669 53.8166 33.6765C53.832 33.6765 53.8556 33.6842 53.8868 33.6842C53.918 33.6842 53.9493 33.6842 53.9959 33.6842C54.1131 33.6842 54.2068 33.6542 54.277 33.5943C54.3472 33.5343 54.4097 33.4295 54.4722 33.28L54.6515 32.8535L53.6057 30.3916C53.5902 30.3616 53.5825 30.3393 53.5825 30.3242C53.5825 30.2868 53.6057 30.2646 53.6446 30.2646H53.8166C53.8633 30.2646 53.8945 30.2868 53.9103 30.3319L54.7996 32.5166L55.6973 30.3319C55.7128 30.2868 55.744 30.2646 55.791 30.2646H55.9469C55.9858 30.2646 56.0093 30.2794 56.0093 30.3242C56.0093 30.3319 56.0016 30.3542 55.9858 30.3916L54.7375 33.3699C54.6515 33.5794 54.5501 33.7216 54.4409 33.8112C54.3314 33.916 54.1911 33.9534 54.0194 33.9534Z" fill="black"/>
<path d="M58.5449 33.852C58.4752 33.852 58.4453 33.8218 58.4453 33.7506V29.1761C58.4453 29.1053 58.4752 29.0747 58.5449 29.0747H60.0581C60.486 29.0747 60.8245 29.2067 61.0837 29.4601C61.3425 29.714 61.462 30.0587 61.462 30.4948C61.462 30.9209 61.3326 31.2656 61.0837 31.5191C60.8245 31.7729 60.486 31.9045 60.0581 31.9045H58.8336V33.7506C58.8336 33.8218 58.8037 33.852 58.734 33.852H58.5449ZM60.0482 31.5396C60.7153 31.5396 61.0537 31.1948 61.0537 30.4948C61.0537 29.7948 60.7153 29.44 60.0482 29.44H58.8336V31.5396H60.0482ZM63.1244 33.9333C62.8159 33.9333 62.567 33.8419 62.3776 33.6593C62.1985 33.4767 62.0991 33.2333 62.0991 32.9291C62.0991 32.5944 62.2084 32.3305 62.4376 32.1378C62.6664 31.9451 62.9753 31.8437 63.3635 31.8437C63.6621 31.8437 63.9907 31.8944 64.3292 32.0063V31.4282C64.3292 31.1442 64.2593 30.9515 64.1299 30.8295C64.0006 30.7076 63.7816 30.6469 63.483 30.6469C63.1741 30.6469 62.8455 30.7076 62.4971 30.8195C62.4573 30.8295 62.4175 30.8396 62.3977 30.8396C62.3579 30.8396 62.3279 30.8094 62.3279 30.7483V30.6368C62.3279 30.5962 62.3378 30.5761 62.348 30.5556C62.3579 30.5355 62.3879 30.5149 62.4175 30.5049C62.7761 30.3629 63.1544 30.2921 63.5524 30.2921C63.9509 30.2921 64.2396 30.3729 64.4384 30.5455C64.6377 30.7181 64.7272 30.9716 64.7272 31.3163V33.7506C64.7272 33.8218 64.6972 33.852 64.6278 33.852H64.4881C64.4187 33.852 64.3887 33.8218 64.3789 33.7506L64.3489 33.4565C63.9509 33.7707 63.5426 33.9333 63.1244 33.9333ZM63.1741 33.568C63.3433 33.568 63.5327 33.5378 63.7315 33.4666C63.9307 33.3958 64.1299 33.2944 64.339 33.1625V32.3004C64.0404 32.2191 63.7418 32.1784 63.4629 32.1784C62.8356 32.1784 62.5173 32.4218 62.5173 32.9191C62.5173 33.1319 62.5768 33.2944 62.6865 33.4059C62.7859 33.5173 62.9552 33.568 63.1741 33.568ZM65.8621 33.852C65.7923 33.852 65.7627 33.8218 65.7627 33.7506V30.4848C65.7627 30.4136 65.7923 30.3834 65.8621 30.3834H65.9915C66.0614 30.3834 66.1012 30.4136 66.1111 30.4848L66.1411 30.8903C66.3103 30.6976 66.4795 30.5556 66.6488 30.4848C66.818 30.4035 66.9971 30.3629 67.2062 30.3629C67.276 30.3629 67.3356 30.3629 67.3853 30.3729C67.4551 30.3729 67.4851 30.4136 67.4851 30.4848V30.6569C67.4851 30.6775 67.4748 30.6976 67.465 30.7076C67.4551 30.7282 67.435 30.7282 67.4153 30.7282C67.3754 30.7282 67.3454 30.7282 67.3159 30.7282C67.2859 30.7282 67.2362 30.7282 67.1762 30.7282C66.9671 30.7282 66.788 30.7688 66.6286 30.8496C66.4697 30.9309 66.3103 31.0528 66.1706 31.225V33.7607C66.1706 33.8319 66.1411 33.862 66.0712 33.862H65.8621V33.852ZM69.1376 33.8926C68.869 33.8926 68.6697 33.8218 68.5301 33.6798C68.3908 33.5378 68.3214 33.3246 68.3214 33.0506V30.7382H67.7837C67.7139 30.7382 67.6839 30.7076 67.6839 30.6368V30.5661C67.6839 30.5254 67.6942 30.5049 67.704 30.4848C67.7139 30.4642 67.7439 30.4542 67.7837 30.4542L68.3313 30.4035L68.381 29.4907C68.381 29.4501 68.3908 29.43 68.411 29.4094C68.4307 29.3893 68.4508 29.3893 68.4804 29.3893H68.5999C68.6697 29.3893 68.6997 29.4199 68.6997 29.4907V30.3935H69.6851C69.755 30.3935 69.7845 30.424 69.7845 30.4948V30.6368C69.7845 30.7076 69.755 30.7382 69.6851 30.7382H68.6997V33.0305C68.6997 33.2232 68.7391 33.3552 68.8188 33.426C68.8985 33.5072 69.0279 33.5479 69.2173 33.5479C69.3467 33.5479 69.4662 33.5378 69.5656 33.5173C69.6153 33.5072 69.6552 33.4972 69.6851 33.4972C69.7151 33.4871 69.7348 33.4871 69.755 33.4871C69.8047 33.4871 69.8342 33.5173 69.8342 33.568V33.6693C69.8342 33.7506 69.8145 33.7913 69.755 33.8114C69.5755 33.862 69.3664 33.8926 69.1376 33.8926ZM70.641 33.852C70.5712 33.852 70.5412 33.8218 70.5412 33.7506V30.4848C70.5412 30.4136 70.5712 30.3834 70.641 30.3834H70.7802C70.8501 30.3834 70.8899 30.4136 70.8998 30.4848L70.9293 30.7789C71.1487 30.6167 71.3874 30.4948 71.6264 30.4035C71.8655 30.3122 72.1041 30.2715 72.3334 30.2715C72.662 30.2715 72.9109 30.3629 73.09 30.5355C73.2691 30.7076 73.3488 30.9716 73.3488 31.3163V33.7506C73.3488 33.8218 73.3188 33.852 73.2494 33.852H73.0699C73.0004 33.852 72.9705 33.8218 72.9705 33.7506V31.499C72.9705 31.2049 72.9109 30.9816 72.8012 30.8496C72.6915 30.7181 72.5124 30.6469 72.2635 30.6469C71.8158 30.6469 71.3775 30.7889 70.9495 31.083V33.7506C70.9495 33.8218 70.9195 33.852 70.8501 33.852H70.641ZM75.8277 33.9534C75.29 33.9534 74.892 33.8013 74.6131 33.4871C74.3445 33.1725 74.2048 32.7159 74.2048 32.1076C74.2048 31.5295 74.3445 31.083 74.6131 30.7588C74.892 30.4341 75.2703 30.282 75.7579 30.282C76.1662 30.282 76.4845 30.4035 76.7039 30.6368C76.9228 30.8802 77.0321 31.2149 77.0321 31.6611C77.0321 31.8437 77.0222 31.9857 77.0025 32.0771C76.9927 32.1483 76.9528 32.1784 76.883 32.1784H74.5934C74.5934 32.6652 74.7027 33.0205 74.9019 33.2433C75.1011 33.4766 75.4194 33.5885 75.8475 33.5885C76.1761 33.5885 76.4845 33.5273 76.7733 33.4159C76.8333 33.3958 76.8731 33.3853 76.8929 33.3853C76.913 33.3853 76.9228 33.3958 76.9426 33.4059C76.9528 33.426 76.9627 33.436 76.9627 33.4666V33.568C76.9627 33.6392 76.9426 33.6899 76.883 33.71C76.5745 33.8725 76.2159 33.9534 75.8277 33.9534ZM76.6641 31.8643C76.6641 31.8031 76.6739 31.7223 76.6739 31.641C76.6739 31.3063 76.5942 31.0629 76.4349 30.8903C76.2755 30.7181 76.0467 30.6368 75.7382 30.6368C75.0214 30.6368 74.6431 31.0528 74.6033 31.8743H76.6641V31.8643ZM77.9978 33.852C77.9284 33.852 77.8984 33.8218 77.8984 33.7506V30.4848C77.8984 30.4136 77.9284 30.3834 77.9978 30.3834H78.1272C78.197 30.3834 78.2369 30.4136 78.2467 30.4848L78.2767 30.8903C78.446 30.6976 78.6152 30.5556 78.7844 30.4848C78.9537 30.4035 79.1328 30.3629 79.3418 30.3629C79.4117 30.3629 79.4712 30.3629 79.5214 30.3729C79.5908 30.3729 79.6208 30.4136 79.6208 30.4848V30.6569C79.6208 30.6775 79.6109 30.6976 79.6006 30.7076C79.5908 30.7282 79.5711 30.7282 79.5509 30.7282C79.5111 30.7282 79.4815 30.7282 79.4515 30.7282C79.4215 30.7282 79.3718 30.7282 79.3123 30.7282C79.1032 30.7282 78.9237 30.7688 78.7647 30.8496C78.6053 30.9309 78.446 31.0528 78.3067 31.225V33.7607C78.3067 33.8319 78.2767 33.862 78.2069 33.862H77.9978V33.852Z" fill="black"/>
</svg>
