<svg width="26" height="28" viewBox="0 0 26 28" fill="none" xmlns="http://www.w3.org/2000/svg">
<path d="M17.5731 25.7274H16.6032V24.7173H9.81329V25.7274H8.8433C8.18622 25.7274 7.6543 26.2325 7.6543 26.8639C7.6543 27.4952 8.15493 28.0003 8.8433 28.0003H17.5731C18.2302 28.0003 18.7621 27.4952 18.7621 26.8639C18.7308 26.2009 18.2302 25.7274 17.5731 25.7274Z" fill="#FBCB67"/>
<path d="M23.7684 6.75488H22.6106V8.36481H23.7684C23.8622 8.36481 23.9248 8.45951 23.9248 8.55421L23.8935 20.8023H2.49136V8.58578C2.49136 8.45951 2.58523 8.39637 2.64781 8.39637H3.74295V6.78645H2.61652C1.64654 6.78645 0.833008 7.6072 0.833008 8.61734V22.1912C0.833008 23.2014 1.64654 24.0221 2.61652 24.0221H23.7371C24.707 24.0221 25.5206 23.2014 25.5206 22.1912V8.58578C25.5519 7.54406 24.7696 6.75488 23.7684 6.75488ZM13.1924 23.1382C12.7857 23.1382 12.4415 22.791 12.4415 22.3806C12.4415 21.9702 12.7857 21.623 13.1924 21.623C13.5992 21.623 13.9434 21.9702 13.9434 22.3806C13.9434 22.8226 13.5992 23.1382 13.1924 23.1382Z" fill="#FBCB67"/>
<path d="M10.3455 8.14361L11.6597 6.12331C11.7536 5.96547 11.7223 5.80764 11.5658 5.71294C11.4094 5.61824 11.2529 5.6498 11.1591 5.80764L9.75104 7.95421C9.68846 8.04891 9.68846 8.20674 9.75104 8.30144L11.1904 10.4164C11.2529 10.5111 11.3468 10.5427 11.4407 10.5427C11.5033 10.5427 11.5658 10.5427 11.6284 10.4796C11.7536 10.3849 11.7849 10.1955 11.691 10.0692L10.3455 8.14361Z" fill="#FBCB67"/>
<path d="M15.195 5.77688C15.1012 5.61904 14.9134 5.58747 14.7883 5.68218C14.6318 5.77688 14.6005 5.96628 14.6944 6.09255L16.0399 8.11285L14.7257 10.07C14.6318 10.2278 14.6631 10.3857 14.7883 10.4804C14.8509 10.5119 14.8821 10.5435 14.9447 10.5435C15.0386 10.5435 15.1325 10.4804 15.195 10.4172L16.6344 8.30225C16.6969 8.20755 16.6969 8.08128 16.6344 7.95501L15.195 5.77688Z" fill="#FBCB67"/>
<path d="M19.9818 0H6.40203C5.2756 0 4.33691 0.915447 4.33691 2.08343V14.3315C4.33691 15.4679 5.24431 16.4149 6.40203 16.4149H9.87519L13.1919 19.7295L16.5086 16.3833H19.9818C21.1082 16.3833 22.0469 15.4679 22.0469 14.2999V2.08343C22.0469 0.915447 21.1082 0 19.9818 0ZM15.4448 1.67306C15.4448 1.42052 15.6325 1.19955 15.9141 1.19955C16.1644 1.19955 16.3834 1.38895 16.3834 1.67306V2.90418H15.476V1.67306H15.4448ZM12.8164 1.67306C12.8164 1.42052 13.0042 1.19955 13.2858 1.19955C13.5361 1.19955 13.7551 1.38895 13.7551 1.67306V2.90418H12.8477V1.67306H12.8164ZM10.1881 1.67306C10.1881 1.42052 10.3758 1.19955 10.6574 1.19955C10.9078 1.19955 11.1268 1.38895 11.1268 1.67306V2.90418H10.2194V1.67306H10.1881ZM6.8088 4.89291H8.0291V5.83992H6.8088C6.55848 5.83992 6.33945 5.61895 6.33945 5.36642C6.37074 5.11388 6.55848 4.89291 6.8088 4.89291ZM6.8088 7.54455H8.0291V8.49156H6.8088C6.55848 8.49156 6.33945 8.27059 6.33945 8.01806C6.37074 7.73395 6.55848 7.54455 6.8088 7.54455ZM8.06039 11.1116H6.84009C6.58977 11.1116 6.37074 10.9222 6.37074 10.6381C6.37074 10.3856 6.55848 10.1646 6.84009 10.1646H8.06039V11.1116ZM10.939 14.5209C10.939 14.7734 10.7513 14.9944 10.4697 14.9944C10.2194 14.9944 10.0003 14.805 10.0003 14.5209V13.2898H10.9077V14.5209H10.939ZM13.5674 14.5209C13.5674 14.7734 13.3796 14.9944 13.098 14.9944C12.8477 14.9944 12.6287 14.805 12.6287 14.5209V13.2898H13.5361V14.5209H13.5674ZM16.1957 14.5209C16.1957 14.7734 16.008 14.9944 15.7264 14.9944C15.476 14.9944 15.257 14.805 15.257 14.5209V13.2898H16.1644V14.5209H16.1957ZM17.6037 11.3326C17.4473 11.9324 16.978 12.3428 16.4147 12.5322H9.96906C9.37455 12.3743 8.96779 11.9008 8.78005 11.3326V4.86134C8.9365 4.26157 9.40584 3.85119 9.96906 3.66179H16.3834C16.978 3.81962 17.3847 4.29313 17.5725 4.86134V11.3326H17.6037ZM18.3234 5.08231H19.5437C19.794 5.08231 20.0131 5.27171 20.0131 5.55582C20.0131 5.80835 19.8253 6.02932 19.5437 6.02932H18.3234V5.08231ZM19.575 11.301H18.3547V10.354H19.575C19.8253 10.354 20.0443 10.575 20.0443 10.8275C20.0131 11.0801 19.8253 11.301 19.575 11.301ZM19.575 8.6494H18.3547V7.70238H19.575C19.8253 7.70238 20.0443 7.92335 20.0443 8.17589C20.0131 8.42843 19.8253 8.6494 19.575 8.6494Z" fill="#FFAD00"/>
<path d="M13.8801 5.30341C13.7237 5.27184 13.5359 5.36655 13.5047 5.52438L12.2531 10.4804C12.2218 10.6383 12.3156 10.8277 12.4721 10.8592C12.5347 10.8592 12.566 10.8592 12.6285 10.8592C12.7537 10.8277 12.8476 10.733 12.8476 10.6383L14.0992 5.68222C14.1617 5.52438 14.0679 5.36655 13.8801 5.30341Z" fill="#FBCB67"/>
</svg>
