<svg width="32" height="30" viewBox="0 0 32 30" fill="none" xmlns="http://www.w3.org/2000/svg">
<path d="M12.1523 21.1164H20.2017V13.0723H17.1832V15.0833H15.1708V13.0723H12.1523V21.1164Z" fill="#FBCB67"/>
<path d="M12.1523 9.0498V11.0608H13.1585V10.5581H19.1955V11.0608H20.2017V9.0498H19.1955V9.55256H13.1585V9.0498H12.1523Z" fill="#FBCB67"/>
<path d="M13.1585 23.1274H12.1523V24.1336H13.1585V23.1274Z" fill="#FBCB67"/>
<path d="M15.1712 23.1274H14.165V24.1336H15.1712V23.1274Z" fill="#FBCB67"/>
<path d="M20.2015 23.1274H19.1953V24.1336H20.2015V23.1274Z" fill="#FBCB67"/>
<path d="M21.5904 4.23339L21.3842 4.34903C21.3449 4.37052 21.3103 4.39961 21.2824 4.43461C21.2545 4.46961 21.2339 4.50982 21.2217 4.55288C21.2095 4.59594 21.206 4.64099 21.2115 4.68541C21.2169 4.72982 21.2312 4.77271 21.2534 4.81156L21.8219 5.7467C21.8462 5.78841 21.8787 5.82484 21.9173 5.85383C21.9559 5.88282 22 5.90379 22.0469 5.9155C22.0938 5.92721 22.1425 5.92943 22.1903 5.92203C22.238 5.91462 22.2838 5.89775 22.3249 5.87239L22.5312 5.75675C22.5956 5.72404 22.668 5.71 22.74 5.71622C22.812 5.72244 22.8808 5.74867 22.9387 5.79195C23.1427 5.94048 23.364 6.06372 23.5977 6.15896C23.6634 6.18285 23.7205 6.22573 23.7617 6.28213C23.8029 6.33854 23.8264 6.40592 23.8292 6.4757V6.70194C23.8298 6.74727 23.8395 6.79202 23.8576 6.83359C23.8757 6.87515 23.9019 6.9127 23.9347 6.94404C23.9674 6.97539 24.0061 6.99991 24.0485 7.01618C24.0908 7.03244 24.136 7.04013 24.1813 7.03879H25.3183C25.3636 7.04013 25.4088 7.03244 25.4511 7.01618C25.4935 6.99991 25.5322 6.97539 25.5649 6.94404C25.5977 6.9127 25.6239 6.87515 25.642 6.83359C25.6601 6.79202 25.6698 6.74727 25.6704 6.70194V6.4757C25.6732 6.40592 25.6967 6.33854 25.7379 6.28213C25.7791 6.22573 25.8362 6.18285 25.9019 6.15896C26.1356 6.06372 26.3569 5.94048 26.5609 5.79195C26.6188 5.74867 26.6876 5.72244 26.7596 5.71622C26.8316 5.71 26.904 5.72404 26.9684 5.75675L27.1747 5.87239C27.2158 5.89775 27.2616 5.91462 27.3093 5.92203C27.3571 5.92943 27.4058 5.92721 27.4527 5.9155C27.4996 5.90379 27.5437 5.88282 27.5823 5.85383C27.6209 5.82484 27.6534 5.78841 27.6777 5.7467L28.2462 4.81156C28.2684 4.77271 28.2827 4.72982 28.2881 4.68541C28.2936 4.64099 28.2901 4.59594 28.2779 4.55288C28.2657 4.50982 28.2451 4.46961 28.2172 4.43461C28.1893 4.39961 28.1547 4.37052 28.1154 4.34903L27.9092 4.23339C27.8506 4.20266 27.8025 4.15513 27.7711 4.0969C27.7398 4.03867 27.7265 3.9724 27.7331 3.9066C27.7731 3.65006 27.7731 3.38888 27.7331 3.13235C27.7265 3.06654 27.7398 3.00027 27.7711 2.94204C27.8025 2.88382 27.8506 2.83629 27.9092 2.80555L28.1154 2.68992C28.1547 2.66843 28.1893 2.63933 28.2172 2.60433C28.2451 2.56933 28.2657 2.52913 28.2779 2.48607C28.2901 2.443 28.2936 2.39795 28.2881 2.35354C28.2827 2.30912 28.2684 2.26623 28.2462 2.22738L27.6375 1.29224C27.6132 1.25053 27.5807 1.2141 27.5421 1.18511C27.5034 1.15612 27.4593 1.13516 27.4125 1.12344C27.3656 1.11173 27.3168 1.10951 27.2691 1.11691C27.2213 1.12432 27.1755 1.1412 27.1344 1.16655L26.9282 1.28219C26.8637 1.3149 26.7914 1.32894 26.7194 1.32272C26.6474 1.3165 26.5785 1.29027 26.5207 1.24699C26.3166 1.09846 26.0953 0.975218 25.8616 0.879979C25.7959 0.85609 25.7389 0.813214 25.6977 0.75681C25.6565 0.700406 25.633 0.633025 25.6302 0.56324V0.336998C25.6296 0.291668 25.6199 0.24692 25.6018 0.205357C25.5837 0.163794 25.5575 0.126246 25.5247 0.094899C25.4919 0.0635521 25.4532 0.0390319 25.4109 0.0227654C25.3685 0.00649889 25.3234 -0.00118905 25.278 0.000148938H24.1612C24.1158 -0.00118905 24.0707 0.00649889 24.0283 0.0227654C23.986 0.0390319 23.9473 0.0635521 23.9146 0.094899C23.8818 0.126246 23.8556 0.163794 23.8375 0.205357C23.8193 0.24692 23.8097 0.291668 23.809 0.336998V0.56324C23.8063 0.633025 23.7828 0.700406 23.7416 0.75681C23.7004 0.813214 23.6433 0.85609 23.5776 0.879979C23.3439 0.975218 23.1226 1.09846 22.9186 1.24699C22.8607 1.29027 22.7919 1.3165 22.7199 1.32272C22.6478 1.32894 22.5755 1.3149 22.5111 1.28219L22.3048 1.16655C22.2637 1.1412 22.2179 1.12432 22.1702 1.11691C22.1224 1.10951 22.0736 1.11173 22.0268 1.12344C21.9799 1.13516 21.9358 1.15612 21.8972 1.18511C21.8585 1.2141 21.8261 1.25053 21.8017 1.29224L21.2534 2.22738C21.2312 2.26623 21.2169 2.30912 21.2115 2.35354C21.206 2.39795 21.2095 2.443 21.2217 2.48607C21.2339 2.52913 21.2545 2.56933 21.2824 2.60433C21.3103 2.63933 21.3449 2.66843 21.3842 2.68992L21.5904 2.80555C21.649 2.83629 21.6971 2.88382 21.7285 2.94204C21.7598 3.00027 21.7731 3.06654 21.7665 3.13235C21.7265 3.38888 21.7265 3.65006 21.7665 3.9066C21.7731 3.9724 21.7598 4.03867 21.7285 4.0969C21.6971 4.15513 21.649 4.20266 21.5904 4.23339ZM24.7297 2.34804C24.9615 2.34804 25.1881 2.41674 25.3809 2.54546C25.5737 2.67418 25.7239 2.85713 25.8126 3.07118C25.9014 3.28523 25.9246 3.52077 25.8793 3.74801C25.8341 3.97524 25.7225 4.18397 25.5585 4.3478C25.3946 4.51163 25.1857 4.62319 24.9584 4.66839C24.731 4.71359 24.4953 4.6904 24.2811 4.60173C24.0669 4.51307 23.8838 4.36292 23.755 4.17028C23.6262 3.97764 23.5575 3.75116 23.5575 3.51947C23.5575 3.20879 23.681 2.91083 23.9008 2.69114C24.1206 2.47146 24.4188 2.34804 24.7297 2.34804Z" fill="#FFAD00"/>
<path d="M2.5938 30L8.35411 17.9338L8.81192 16.9685C8.86225 16.8645 8.8915 16.7517 8.89799 16.6365C8.90448 16.5212 8.88807 16.4058 8.84973 16.2969C8.81138 16.188 8.75184 16.0878 8.67455 16.002C8.59726 15.9162 8.50374 15.8465 8.39939 15.797H8.37423L8.23337 15.7568C8.15955 15.7369 8.08344 15.7268 8.00698 15.7266C7.87805 15.7269 7.75082 15.7561 7.6347 15.8121C7.51035 15.8692 7.40162 15.9554 7.31776 16.0635L6.11539 17.5969V11.7397L5.73807 12.0213C2.40263 14.5703 1.80396 16.2143 2.21649 19.7286C2.62902 23.2429 0.833008 25.078 0.833008 25.078L2.5938 30Z" fill="#FFAD00"/>
<path d="M7.19656 14.9124C7.48684 14.7758 7.80711 14.7153 8.12726 14.7364V4.02261H20.2013V3.01709H7.62418C7.49075 3.01709 7.36279 3.07006 7.26844 3.16435C7.1741 3.25863 7.12109 3.38651 7.12109 3.51985V14.9476L7.19656 14.9124Z" fill="#FBCB67"/>
<path d="M30.1218 19.7286C30.5495 16.2093 29.9508 14.5703 26.6002 12.0213L26.238 11.7397V17.5969L25.0457 16.0886C24.9619 15.9806 24.8531 15.8943 24.7288 15.8372C24.6127 15.7812 24.4854 15.752 24.3565 15.7518C24.28 15.7519 24.2039 15.762 24.1301 15.7819L23.9892 15.8222C23.8849 15.8717 23.7914 15.9413 23.7141 16.0271C23.6368 16.1129 23.5772 16.2131 23.5389 16.322C23.5006 16.4309 23.4842 16.5463 23.4906 16.6616C23.4971 16.7768 23.5264 16.8897 23.5767 16.9936L24.0345 17.9589L29.7596 30L31.5003 25.078C31.5003 25.078 29.6942 23.2379 30.1218 19.7286Z" fill="#FFAD00"/>
<path d="M25.1573 14.9123L25.2327 14.9475V8.54736H24.2266V14.7363C24.5467 14.7152 24.867 14.7757 25.1573 14.9123Z" fill="#FBCB67"/>
<path d="M25.2321 28.658V22.8209L24.2259 20.7144V28.1552H8.12726V20.7144L7.12109 22.8209V28.658C7.12109 28.7913 7.1741 28.9192 7.26844 29.0135C7.36279 29.1078 7.49075 29.1607 7.62418 29.1607H24.729C24.8625 29.1607 24.9904 29.1078 25.0848 29.0135C25.1791 28.9192 25.2321 28.7913 25.2321 28.658Z" fill="#FBCB67"/>
</svg>
