<svg width="30" height="29" viewBox="0 0 30 29" fill="none" xmlns="http://www.w3.org/2000/svg">
<path d="M17.2987 9.91924C17.3309 9.9632 17.373 9.99896 17.4216 10.0236C17.4701 10.0482 17.5239 10.0611 17.5783 10.0611H18.2578C18.354 10.3203 18.5398 10.5365 18.7815 10.6705C19.0233 10.8046 19.3051 10.8476 19.5759 10.7919C19.8467 10.7362 20.0886 10.5854 20.2578 10.3667C20.427 10.1481 20.5124 9.87613 20.4984 9.60002C20.4845 9.32391 20.3721 9.06192 20.1817 8.86147C19.9913 8.66102 19.7355 8.53535 19.4604 8.50721C19.1854 8.47908 18.9094 8.55034 18.6824 8.70809C18.4553 8.86583 18.2923 9.09965 18.2227 9.36722H17.7541L16.8402 8.12134C16.808 8.07737 16.7659 8.04162 16.7174 8.01697C16.6688 7.99232 16.6151 7.97948 16.5606 7.97949H15.1729V8.67335H16.3849L17.2987 9.91924Z" fill="#FBCB67"/>
<path d="M21.1802 11.679C20.9135 11.679 20.655 11.7712 20.4485 11.94C20.242 12.1087 20.1002 12.3437 20.047 12.605H18.3916L17.386 11.3474C17.3534 11.3068 17.3122 11.274 17.2653 11.2515C17.2184 11.229 17.167 11.2173 17.1149 11.2173H15.2646V11.9111H16.9483L17.9538 13.1688C17.9864 13.2094 18.0276 13.2421 18.0745 13.2646C18.1215 13.2871 18.1728 13.2988 18.2249 13.2989H20.1219C20.2055 13.4897 20.3392 13.6544 20.5087 13.7755C20.6782 13.8966 20.8774 13.9697 21.085 13.9869C21.2926 14.0042 21.5011 13.965 21.6883 13.8735C21.8755 13.782 22.0344 13.6416 22.1484 13.4672C22.2624 13.2927 22.3271 13.0907 22.3356 12.8826C22.3442 12.6744 22.2964 12.4677 22.1972 12.2845C22.098 12.1013 21.9511 11.9483 21.7721 11.8417C21.5931 11.7351 21.3886 11.6789 21.1802 11.679Z" fill="#FBCB67"/>
<path d="M19.437 17.8652C19.2017 17.8656 18.9721 17.9379 18.779 18.0725C18.586 18.2071 18.4387 18.3976 18.3569 18.6182H17.5783C17.5239 18.6182 17.4701 18.6311 17.4216 18.6557C17.373 18.6804 17.3309 18.7161 17.2987 18.7601L16.3849 20.006H15.1729V20.6998H16.5606C16.6151 20.6998 16.6688 20.687 16.7174 20.6624C16.7659 20.6377 16.808 20.602 16.8402 20.558L17.7541 19.3121H18.3219C18.3765 19.5209 18.4886 19.7103 18.6455 19.8586C18.8023 20.007 18.9975 20.1084 19.2091 20.1513C19.4206 20.1943 19.64 20.1771 19.8423 20.1016C20.0445 20.0262 20.2216 19.8956 20.3534 19.7246C20.4851 19.5537 20.5663 19.3492 20.5878 19.1344C20.6092 18.9196 20.5699 18.7031 20.4745 18.5094C20.3791 18.3158 20.2313 18.1528 20.0479 18.0389C19.8645 17.9251 19.6529 17.8649 19.437 17.8652Z" fill="#FBCB67"/>
<path d="M21.0303 14.5713C20.785 14.5719 20.5463 14.6507 20.3489 14.7963C20.1515 14.9419 20.0057 15.1466 19.9327 15.3808H18.1335C18.0815 15.3808 18.0301 15.3925 17.9832 15.415C17.9363 15.4376 17.895 15.4703 17.8625 15.5109L16.8565 16.7685H15.1729V17.4624H17.0232C17.0752 17.4624 17.1265 17.4507 17.1735 17.4281C17.2204 17.4056 17.2616 17.3729 17.2942 17.3323L18.3002 16.0747H19.9327C19.9972 16.2779 20.1168 16.4593 20.2782 16.5987C20.4396 16.7381 20.6365 16.8301 20.8469 16.8644C21.0574 16.8987 21.2733 16.874 21.4706 16.7931C21.6679 16.7122 21.8389 16.5781 21.9647 16.4059C22.0905 16.2336 22.166 16.0299 22.183 15.8173C22.2 15.6047 22.1578 15.3916 22.061 15.2016C21.9642 15.0115 21.8166 14.852 21.6347 14.7408C21.4527 14.6295 21.2435 14.5709 21.0303 14.5713Z" fill="#FBCB67"/>
<path d="M28.3099 11.5793C28.0146 11.5742 27.7287 11.4748 27.494 11.2954C27.2594 11.116 27.0883 10.8662 27.006 10.5826C26.7923 9.91082 26.5214 9.25865 26.1963 8.63322C26.0534 8.37412 25.9973 8.07603 26.0363 7.78272C26.0754 7.48941 26.2074 7.21635 26.4131 7.00364L27.0753 6.34149C26.0377 4.80074 24.712 3.47507 23.1713 2.43741L22.509 3.09957C22.2963 3.30525 22.0233 3.4373 21.73 3.47634C21.4367 3.51538 21.1386 3.45934 20.8795 3.31646C20.2541 2.99127 19.6019 2.72036 18.9301 2.50669C18.6465 2.42436 18.3967 2.25333 18.2173 2.01867C18.0379 1.78402 17.9384 1.49808 17.9334 1.20276V0.271578C16.1109 -0.0905259 14.2349 -0.0905259 12.4123 0.271578V1.20277C12.4073 1.49808 12.3078 1.78402 12.1284 2.01868C11.949 2.25333 11.6992 2.42436 11.4156 2.50669C10.7438 2.72036 10.0916 2.99127 9.46619 3.31645C9.20709 3.45934 8.90901 3.51537 8.61572 3.47634C8.32242 3.4373 8.04937 3.30524 7.83667 3.09956L7.17443 2.43741C5.6337 3.47507 4.30805 4.80074 3.27041 6.34149L3.93257 7.00364C4.13826 7.21635 4.27033 7.48941 4.30936 7.78272C4.34839 8.07603 4.29234 8.37412 4.14943 8.63322C3.82428 9.25865 3.55338 9.91082 3.33972 10.5826C3.25739 10.8662 3.08637 11.116 2.85172 11.2954C2.61707 11.4748 2.33113 11.5742 2.03582 11.5793H1.10456C0.742491 13.4018 0.742491 15.2778 1.10456 17.1004H2.0358C2.33111 17.1054 2.61706 17.2049 2.85171 17.3842C3.08637 17.5636 3.2574 17.8134 3.33972 18.0971C3.5534 18.7688 3.8243 19.421 4.14945 20.0464C4.29236 20.3055 4.34842 20.6036 4.30938 20.8969C4.27035 21.1902 4.13829 21.4633 3.93259 21.676L3.27041 22.3381C4.30806 23.8789 5.6337 25.2046 7.17443 26.2422L7.83667 25.58C8.04938 25.3744 8.32243 25.2423 8.61573 25.2033C8.90902 25.1643 9.2071 25.2203 9.46619 25.3632C10.0916 25.6884 10.7438 25.9593 11.4156 26.1729C11.6992 26.2553 11.949 26.4263 12.1284 26.661C12.3078 26.8956 12.4073 27.1816 12.4123 27.4769V28.408C14.2348 28.7702 16.1109 28.7702 17.9334 28.408V27.4769C17.9385 27.1816 18.0379 26.8956 18.2173 26.661C18.3967 26.4263 18.6465 26.2553 18.9301 26.1729C19.6019 25.9593 20.2541 25.6884 20.8795 25.3632C21.1386 25.2203 21.4367 25.1643 21.73 25.2033C22.0233 25.2423 22.2963 25.3744 22.509 25.58L23.1713 26.2422C24.712 25.2046 26.0376 23.8789 27.0753 22.3381L26.4131 21.676C26.2074 21.4633 26.0754 21.1902 26.0363 20.8969C25.9973 20.6036 26.0534 20.3055 26.1963 20.0464C26.5214 19.421 26.7923 18.7688 27.006 18.0971C27.0883 17.8135 27.2594 17.5636 27.494 17.3843C27.7287 17.2049 28.0146 17.1054 28.3099 17.1004H29.2411C29.6032 15.2778 29.6032 13.4018 29.2411 11.5793L28.3099 11.5793ZM15.1729 24.3777C13.1875 24.3777 11.2468 23.789 9.59611 22.686C7.94539 21.583 6.6588 20.0153 5.89906 18.1812C5.13932 16.347 4.94054 14.3287 5.32785 12.3815C5.71516 10.4344 6.67118 8.6458 8.075 7.24197C9.47882 5.83815 11.2674 4.88214 13.2146 4.49482C15.1617 4.10751 17.18 4.30629 19.0142 5.06604C20.8484 5.82578 22.4161 7.11236 23.519 8.76308C24.622 10.4138 25.2107 12.3545 25.2107 14.3398C25.2107 15.658 24.9511 16.9633 24.4466 18.1812C23.9422 19.399 23.2028 20.5056 22.2707 21.4377C21.3386 22.3698 20.232 23.1092 19.0142 23.6136C17.7963 24.1181 16.491 24.3777 15.1729 24.3777Z" fill="#FFAD00"/>
<path d="M16.1517 12.8354H15.2266V13.7606H16.1517V12.8354Z" fill="#FBCB67"/>
<path d="M17.013 14.6343H16.0879V15.5594H17.013V14.6343Z" fill="#FBCB67"/>
<path d="M12.0888 7.86412C10.5986 7.86412 9.3905 8.89964 9.3905 10.177C9.3905 10.2263 9.40024 10.2732 9.4047 10.3215C9.76326 10.4412 10.0676 10.6844 10.2634 11.0077C10.4592 11.3311 10.5338 11.7135 10.4737 12.0867L9.94327 11.9874C9.97821 11.759 9.93629 11.5256 9.82409 11.3237C9.71189 11.1217 9.53577 10.9628 9.32342 10.8719C8.88606 11.0233 8.50425 11.3026 8.22753 11.6735C7.9508 12.0445 7.79192 12.4901 7.77148 12.9524C7.77629 13.2622 7.84798 13.5672 7.98167 13.8466C8.11535 14.1261 8.30786 14.3733 8.54601 14.5714C8.30786 14.7695 8.11536 15.0168 7.98167 15.2962C7.84799 15.5757 7.77629 15.8807 7.77148 16.1904C7.78872 16.633 7.93384 17.0611 8.18928 17.4229C8.44472 17.7848 8.79955 18.0648 9.21082 18.2292C9.42658 18.1184 9.5974 17.9365 9.69431 17.7142C9.79123 17.4918 9.80828 17.2428 9.74257 17.0094L10.2566 16.8451C10.3628 17.2098 10.3353 17.6004 10.179 17.9466C10.0227 18.2928 9.74784 18.5718 9.40405 18.7333C9.53878 19.9026 10.6892 20.8162 12.0888 20.8162C12.4947 20.8226 12.8972 20.7422 13.2695 20.5804C13.6418 20.4187 13.9752 20.1793 14.2475 19.8784V13.9653C13.9269 13.965 13.6144 14.0657 13.3543 14.2531C13.0942 14.4406 12.8998 14.7052 12.7987 15.0095L12.7768 15.0759L12.2645 14.9058L12.2867 14.8391C12.4235 14.4273 12.6866 14.069 13.0386 13.8153C13.3906 13.5616 13.8136 13.4252 14.2475 13.4256V8.80198C13.9752 8.50099 13.6418 8.26162 13.2695 8.09988C12.8972 7.93814 12.4947 7.85776 12.0888 7.86412Z" fill="#FBCB67"/>
</svg>
