<svg width="25" height="40" viewBox="0 0 25 40" fill="none" xmlns="http://www.w3.org/2000/svg">
<path opacity="0.58" d="M20.983 0.0512695H4.08301C3.22137 0.0523016 2.39532 0.395043 1.78605 1.00431C1.17678 1.61358 0.83404 2.43963 0.833008 3.30127V35.8013C0.83404 36.6629 1.17678 37.489 1.78605 38.0982C2.39532 38.7075 3.22137 39.0502 4.08301 39.0513H20.983C21.8446 39.0502 22.6707 38.7075 23.28 38.0982C23.8892 37.489 24.232 36.6629 24.233 35.8013V3.30127C24.232 2.43963 23.8892 1.61358 23.28 1.00431C22.6707 0.395043 21.8446 0.0523016 20.983 0.0512695ZM22.933 31.9013C22.932 32.7629 22.5892 33.589 21.98 34.1982C21.3707 34.8075 20.5446 35.1502 19.683 35.1513H5.38301C4.52137 35.1502 3.69532 34.8075 3.08605 34.1982C2.47678 33.589 2.13404 32.7629 2.13301 31.9013V3.30127C2.13301 2.7841 2.33845 2.28811 2.70415 1.92241C3.06985 1.55672 3.56584 1.35127 4.08301 1.35127H7.45261C7.37562 1.55944 7.33516 1.77933 7.33301 2.00127C7.33301 2.51844 7.53845 3.01443 7.90415 3.38013C8.26985 3.74582 8.76584 3.95127 9.28301 3.95127H15.783C16.3002 3.95127 16.7962 3.74582 17.1619 3.38013C17.5276 3.01443 17.733 2.51844 17.733 2.00127C17.7309 1.77933 17.6904 1.55944 17.6134 1.35127H20.983C21.5002 1.35127 21.9962 1.55672 22.3619 1.92241C22.7276 2.28811 22.933 2.7841 22.933 3.30127V31.9013Z" fill="#FFAD00"/>
<path d="M19.3749 31.3485C19.2807 31.2903 19.1732 31.2571 19.0627 31.2521C18.9521 31.2471 18.8421 31.2704 18.7431 31.3199L17.4431 31.9699C17.3349 32.0238 17.2439 32.1068 17.1803 32.2095C17.1167 32.3123 17.083 32.4307 17.083 32.5516C17.083 32.6725 17.1167 32.7909 17.1803 32.8937C17.2439 32.9964 17.3349 33.0794 17.4431 33.1334L18.7431 33.7834C18.8422 33.8329 18.9523 33.8563 19.063 33.8512C19.1737 33.8462 19.2813 33.813 19.3755 33.7547C19.4698 33.6964 19.5475 33.615 19.6015 33.5182C19.6554 33.4214 19.6837 33.3124 19.6836 33.2016V31.9016C19.6836 31.7907 19.6552 31.6817 19.6012 31.5849C19.5471 31.488 19.4692 31.4067 19.3749 31.3485Z" fill="#FFAD00"/>
<path d="M7.62044 31.9695L6.32044 31.3195C6.22132 31.27 6.11118 31.2466 6.00048 31.2516C5.88979 31.2567 5.78221 31.2899 5.68797 31.3482C5.59373 31.4065 5.51596 31.4879 5.46204 31.5847C5.40812 31.6815 5.37984 31.7905 5.37989 31.9013V33.2013C5.37928 33.3124 5.40716 33.4218 5.46085 33.519C5.51454 33.6162 5.59226 33.6981 5.68658 33.7568C5.78091 33.8155 5.8887 33.849 5.99967 33.8541C6.11064 33.8593 6.22107 33.8359 6.32044 33.7863L7.62044 33.1363C7.72861 33.0824 7.8196 32.9994 7.8832 32.8966C7.94681 32.7938 7.9805 32.6754 7.9805 32.5545C7.9805 32.4337 7.94681 32.3152 7.8832 32.2124C7.8196 32.1097 7.72861 32.0267 7.62044 31.9728V31.9695Z" fill="#FFAD00"/>
<path d="M13.1814 31.2515H11.8814C11.5225 31.2515 11.2314 31.5425 11.2314 31.9015V33.2015C11.2314 33.5604 11.5225 33.8515 11.8814 33.8515H13.1814C13.5404 33.8515 13.8314 33.5604 13.8314 33.2015V31.9015C13.8314 31.5425 13.5404 31.2515 13.1814 31.2515Z" fill="#FFAD00"/>
<path d="M18.3846 23.4512H15.1346V22.1512C15.9962 22.1502 16.8223 21.8075 17.4315 21.1982C18.0408 20.5889 18.3835 19.7629 18.3846 18.9012H19.0346C19.5517 18.9012 20.0477 18.6958 20.4134 18.3301C20.7791 17.9644 20.9846 17.4684 20.9846 16.9512V15.6512C20.9846 15.1341 20.7791 14.6381 20.4134 14.2724C20.0477 13.9067 19.5517 13.7012 19.0346 13.7012H18.3846C18.3835 12.8396 18.0408 12.0136 17.4315 11.4043C16.8223 10.795 15.9962 10.4523 15.1346 10.4512H13.1846V9.03164C13.6183 8.87831 13.9838 8.5766 14.2165 8.17983C14.4493 7.78306 14.5343 7.31679 14.4565 6.86342C14.3787 6.41004 14.1431 5.99877 13.7914 5.70227C13.4398 5.40578 12.9946 5.24316 12.5346 5.24316C12.0746 5.24316 11.6294 5.40578 11.2777 5.70227C10.926 5.99877 10.6904 6.41004 10.6127 6.86342C10.5349 7.31679 10.6199 7.78306 10.8526 8.17983C11.0854 8.5766 11.4509 8.87831 11.8846 9.03164V10.4512H9.93457C9.07293 10.4523 8.24688 10.795 7.63761 11.4043C7.02834 12.0136 6.6856 12.8396 6.68457 13.7012H6.03457C5.5174 13.7012 5.02141 13.9067 4.65571 14.2724C4.29002 14.6381 4.08457 15.1341 4.08457 15.6512V16.9512C4.08457 17.4684 4.29002 17.9644 4.65571 18.3301C5.02141 18.6958 5.5174 18.9012 6.03457 18.9012H6.68457C6.6856 19.7629 7.02834 20.5889 7.63761 21.1982C8.24688 21.8075 9.07293 22.1502 9.93457 22.1512V23.4512H6.68457C5.82293 23.4523 4.99688 23.795 4.38761 24.4043C3.77834 25.0136 3.4356 25.8396 3.43457 26.7012V29.3012C3.43457 29.4736 3.50305 29.639 3.62495 29.7609C3.74685 29.8828 3.91218 29.9512 4.08457 29.9512H20.9846C21.157 29.9512 21.3223 29.8828 21.4442 29.7609C21.5661 29.639 21.6346 29.4736 21.6346 29.3012V26.7012C21.6335 25.8396 21.2908 25.0136 20.6815 24.4043C20.0723 23.795 19.2462 23.4523 18.3846 23.4512ZM7.98457 18.9012V13.7012C7.98457 13.1841 8.19002 12.6881 8.55571 12.3224C8.92141 11.9567 9.4174 11.7512 9.93457 11.7512H15.1346C15.6517 11.7512 16.1477 11.9567 16.5134 12.3224C16.8791 12.6881 17.0846 13.1841 17.0846 13.7012V18.9012C17.0846 19.4184 16.8791 19.9144 16.5134 20.2801C16.1477 20.6458 15.6517 20.8512 15.1346 20.8512H9.93457C9.4174 20.8512 8.92141 20.6458 8.55571 20.2801C8.19002 19.9144 7.98457 19.4184 7.98457 18.9012ZM11.2346 22.1512H13.8346V23.4512H11.2346V22.1512ZM20.3346 28.6512H17.7346V26.7012C17.7346 26.5289 17.6661 26.3635 17.5442 26.2416C17.4223 26.1197 17.257 26.0512 17.0846 26.0512C16.9122 26.0512 16.7469 26.1197 16.625 26.2416C16.5031 26.3635 16.4346 26.5289 16.4346 26.7012V28.6512H15.1346C15.1346 27.9617 14.8606 27.3004 14.373 26.8128C13.8855 26.3252 13.2241 26.0512 12.5346 26.0512C11.845 26.0512 11.1837 26.3252 10.6961 26.8128C10.2085 27.3004 9.93457 27.9617 9.93457 28.6512H8.63457V26.7012C8.63457 26.5289 8.56609 26.3635 8.44419 26.2416C8.32229 26.1197 8.15696 26.0512 7.98457 26.0512C7.81218 26.0512 7.64685 26.1197 7.52495 26.2416C7.40305 26.3635 7.33457 26.5289 7.33457 26.7012V28.6512H4.73457V26.7012C4.73457 26.1841 4.94002 25.6881 5.30571 25.3224C5.67141 24.9567 6.1674 24.7512 6.68457 24.7512H18.3846C18.9017 24.7512 19.3977 24.9567 19.7634 25.3224C20.1291 25.6881 20.3346 26.1841 20.3346 26.7012V28.6512Z" fill="#FFAD00"/>
<path d="M10.5861 15.6513C11.3041 15.6513 11.8861 15.0692 11.8861 14.3513C11.8861 13.6333 11.3041 13.0513 10.5861 13.0513C9.86816 13.0513 9.28613 13.6333 9.28613 14.3513C9.28613 15.0692 9.86816 15.6513 10.5861 15.6513Z" fill="#FFAD00"/>
<path d="M14.4846 15.6513C15.2025 15.6513 15.7846 15.0692 15.7846 14.3513C15.7846 13.6333 15.2025 13.0513 14.4846 13.0513C13.7666 13.0513 13.1846 13.6333 13.1846 14.3513C13.1846 15.0692 13.7666 15.6513 14.4846 15.6513Z" fill="#FFAD00"/>
<path d="M14.2939 17.7915C14.1721 17.6696 14.0068 17.6011 13.8344 17.6011H11.2344C11.062 17.6011 10.8967 17.6696 10.7748 17.7915L10.1248 18.4415C10.0064 18.5641 9.94093 18.7283 9.94241 18.8987C9.94389 19.0692 10.0122 19.2322 10.1328 19.3527C10.2533 19.4732 10.4163 19.5416 10.5867 19.5431C10.7572 19.5445 10.9214 19.479 11.0439 19.3606L11.5035 18.9011H13.5653L14.0248 19.3606C14.1474 19.479 14.3116 19.5445 14.4821 19.5431C14.6525 19.5416 14.8155 19.4732 14.936 19.3527C15.0565 19.2322 15.1249 19.0692 15.1264 18.8987C15.1279 18.7283 15.0623 18.5641 14.9439 18.4415L14.2939 17.7915Z" fill="#FFAD00"/>
</svg>
