<svg width="29" height="25" viewBox="0 0 29 25" fill="none" xmlns="http://www.w3.org/2000/svg">
<path d="M4.83333 3.70556C4.83333 4.35 4.28556 4.89778 3.64111 4.89778C2.99667 4.89778 2.44889 4.35 2.44889 3.70556C2.44889 3.06111 2.99667 2.51333 3.64111 2.51333C4.28556 2.51333 4.83333 3.06111 4.83333 3.70556ZM1.35333 14.5644V24.1989L0 22.5878V13.7589C0 12.0189 1.09556 10.4722 2.70667 9.86C2.28778 9.31222 2.41667 8.53889 2.96444 8.12C3.06111 8.05556 3.15778 7.99111 3.25444 7.95889V7.18555H1.41778C1.35333 7.12111 1.28889 7.05667 1.22444 6.99222C-0.386667 5.38111 -0.386667 2.77111 1.22444 1.19222C1.99778 0.418889 3.06111 0 4.12444 0H4.93C7.21778 0 9.05444 1.83667 9.05444 4.12444V4.86556L9.89222 6.70222C9.98889 6.89556 9.89222 7.15333 9.69889 7.25C9.63444 7.25 9.57 7.25 9.50556 7.25H9.05444C9.05444 7.86222 9.05444 8.41 9.05444 8.82889C9.05444 9.31222 8.66778 9.73111 8.15222 9.73111H6.89556C6.38 9.69889 5.92889 9.34444 5.70333 8.89333L5.44556 8.28111C5.22 7.73333 4.73667 7.34667 4.15667 7.21778V7.95889C4.80111 8.21667 5.12333 8.92556 4.86556 9.57C4.83333 9.63444 4.80111 9.73111 4.76889 9.79556L8.21667 13.8556C8.53889 14.2422 8.7 14.7256 8.7 15.2089V20.7833L6.02556 20.4611V14.5644C6.02556 13.2756 4.99444 12.2444 3.70556 12.2444C2.41667 12.2444 1.35333 13.2756 1.35333 14.5644ZM7.15333 4.96222H7.66889L8.21667 5.28444V4.41444H7.15333V4.96222ZM3.67333 5.57444C4.70444 5.57444 5.54222 4.73667 5.54222 3.70556C5.54222 2.67444 4.70444 1.83667 3.67333 1.83667C2.64222 1.83667 1.80444 2.67444 1.80444 3.70556C1.77222 4.73667 2.61 5.57444 3.67333 5.57444ZM29 14.8544L24.4889 24.1989H3.38333C2.64222 24.1989 2.03 23.5867 2.03 22.8456V14.5644C2.03 13.6622 2.77111 12.9211 3.67333 12.9211C3.70556 12.9211 3.73778 12.9211 3.73778 12.9211C4.64 12.9856 5.31667 13.7267 5.31667 14.6289V21.0411L16.2722 22.1689L17.4644 20.9122L20.3322 22.7811L20.3 22.8778C20.0744 23.2322 19.6233 23.3933 19.2367 23.2322L17.4967 22.4911L16.3044 23.2967H23.9411L28.2267 14.4678L29 14.8544ZM4.02778 19.2367V15.3378C4.41444 15.1444 4.57556 14.6933 4.41444 14.2744C4.22111 13.8878 3.77 13.7267 3.35111 13.8878C2.93222 14.0489 2.80333 14.5322 2.96444 14.9511C3.02889 15.1122 3.19 15.2411 3.35111 15.3378V18.4311L4.02778 19.2367Z" fill="#FFAD00"/>
<path opacity="0.5" d="M21.4606 6.54084V3.83417C21.4606 2.5775 20.4617 1.57861 19.205 1.57861H13.7595C12.5028 1.57861 11.5039 2.5775 11.5039 3.83417V8.82861H19.205C20.4617 8.79639 21.4606 7.7975 21.4606 6.54084ZM12.4061 3.83417C12.4061 3.09306 13.0184 2.48084 13.7595 2.48084H19.205C19.9461 2.48084 20.5584 3.09306 20.5584 3.83417V6.54084C20.5584 7.28195 19.9461 7.89417 19.205 7.89417H12.4061V3.83417ZM17.755 5.1875C17.755 5.54195 18.045 5.83195 18.3995 5.83195C18.7539 5.83195 19.0439 5.54195 19.0439 5.1875C19.0439 4.83306 18.7539 4.54306 18.3995 4.54306C18.045 4.54306 17.755 4.83306 17.755 5.1875ZM15.8539 5.1875C15.8539 5.54195 16.1439 5.83195 16.4984 5.83195C16.8528 5.83195 17.1428 5.54195 17.1428 5.1875C17.1428 4.83306 16.8528 4.54306 16.4984 4.54306C16.1439 4.54306 15.8539 4.83306 15.8539 5.1875ZM13.9528 5.1875C13.9528 5.54195 14.2428 5.83195 14.5972 5.83195C14.9517 5.83195 15.2417 5.54195 15.2417 5.1875C15.2417 4.83306 14.9517 4.54306 14.5972 4.54306C14.2428 4.54306 13.9528 4.83306 13.9528 5.1875ZM25.1017 13.8231C25.1017 12.5664 24.1028 11.5675 22.8461 11.5675H17.4006C16.1439 11.5675 15.145 12.5664 15.145 13.8231V16.5297C15.145 17.7864 16.1439 18.7853 17.4006 18.7853H25.1017V13.8231ZM22.8461 12.4697C23.5872 12.4697 24.1672 13.0819 24.1672 13.8231V17.8831H17.4006C16.6595 17.8831 16.0472 17.2708 16.0472 16.5297V13.8231C16.0472 13.0819 16.6595 12.4697 17.4006 12.4697H22.8461ZM18.2061 14.5319C17.8517 14.5319 17.5617 14.8219 17.5617 15.1764C17.5617 15.5308 17.8517 15.8208 18.2061 15.8208C18.5606 15.8208 18.8506 15.5308 18.8506 15.1764C18.8506 14.8219 18.5606 14.5319 18.2061 14.5319ZM20.1072 14.5319C19.7528 14.5319 19.4628 14.8219 19.4628 15.1764C19.4628 15.5308 19.7528 15.8208 20.1072 15.8208C20.4617 15.8208 20.7517 15.5308 20.7517 15.1764C20.7517 14.8219 20.4617 14.5319 20.1072 14.5319ZM22.0084 14.5319C21.6539 14.5319 21.3639 14.8219 21.3639 15.1764C21.3639 15.5308 21.6539 15.8208 22.0084 15.8208C22.3628 15.8208 22.6528 15.5308 22.6528 15.1764C22.6528 14.8219 22.3628 14.5319 22.0084 14.5319Z" fill="#FFAD00"/>
</svg>
