<svg width="32" height="32" viewBox="0 0 32 32" fill="none" xmlns="http://www.w3.org/2000/svg">
<g clip-path="url(#clip0_6957_7391)">
<path d="M19.7684 25.5278H11.9033V27.6055H19.7684V25.5278Z" fill="#FFB81D"/>
<path d="M28.0785 7.78849C27.9825 7.4045 27.8317 7.04793 27.6328 6.72565C27.5025 6.51308 27.4957 6.25251 27.6191 6.03308L27.9277 5.47766L27.53 5.07995L26.9745 5.38852C26.762 5.51195 26.4945 5.50509 26.282 5.37481C25.9665 5.17595 25.6031 5.03195 25.2191 4.9291C24.986 4.86738 24.794 4.6891 24.7254 4.45596L24.554 3.85254H23.9917L23.8203 4.45596C23.7517 4.6891 23.5666 4.87424 23.3266 4.9291C22.9426 5.0251 22.586 5.17595 22.2569 5.37481C22.0443 5.50509 21.7837 5.50509 21.5712 5.38852L21.0226 5.07995L20.6249 5.47766L20.9266 6.02623C21.0432 6.2388 21.0432 6.49937 20.9129 6.71193C20.714 7.04107 20.5632 7.4045 20.4672 7.78164C20.4055 8.01478 20.2272 8.20677 19.994 8.27534L19.3906 8.44677V9.00905L19.994 9.18048C20.2272 9.24905 20.4055 9.43419 20.4672 9.67418C20.5632 10.0513 20.714 10.4147 20.9129 10.7439C21.0363 10.9565 21.0432 11.217 20.9266 11.4296L20.6249 11.9782L21.0226 12.3759L21.5712 12.0742C21.7837 11.9576 22.0443 11.9576 22.2569 12.0879C22.586 12.2867 22.9494 12.4376 23.3266 12.5336C23.5597 12.5953 23.7517 12.7736 23.8203 13.0067L23.9917 13.6101H24.554L24.7254 13.0067C24.794 12.7736 24.9791 12.5953 25.2191 12.5336C25.6031 12.4376 25.9597 12.2867 26.2888 12.0879C26.5014 11.9644 26.762 11.9576 26.9745 12.0742L27.5231 12.3759L27.9208 11.9782L27.6122 11.4296C27.4957 11.217 27.4957 10.9496 27.626 10.7439C27.8248 10.4147 27.9757 10.0513 28.0717 9.67418C28.1334 9.44104 28.3117 9.24905 28.5448 9.18048L29.1482 9.00905V8.44677L28.5448 8.27534C28.3185 8.21363 28.1334 8.02163 28.0785 7.78849ZM24.2729 11.6216C22.682 11.6216 21.386 10.3256 21.386 8.73477C21.386 7.14393 22.682 5.84794 24.2729 5.84794C25.8637 5.84794 27.1597 7.14393 27.1597 8.73477C27.1597 10.3256 25.8637 11.6216 24.2729 11.6216Z" fill="#FFB81D"/>
<path d="M31.9253 2.27537C31.9253 1.49366 31.2944 0.855957 30.5196 0.855957H1.49363C0.711925 0.855957 0.0742188 1.49366 0.0742188 2.27537V18.6157H31.9184V2.27537H31.9253ZM2.01477 4.07878C2.01477 3.19421 2.7279 2.48108 3.61246 2.48108H14.6112C15.4957 2.48108 16.2089 3.20107 16.2089 4.07878V12.4924C16.2089 13.377 15.4889 14.0901 14.6112 14.0901H3.61246C2.7279 14.0901 2.01477 13.3701 2.01477 12.4924V4.07878ZM15.5232 17.0386H2.70047C2.32333 17.0386 2.01477 16.7301 2.01477 16.3529C2.01477 15.9758 2.32333 15.6672 2.70047 15.6672H15.5232C15.9003 15.6672 16.2089 15.9758 16.2089 16.3529C16.2089 16.7301 15.9003 17.0386 15.5232 17.0386ZM30.5264 9.19414C30.5264 9.69471 30.1904 10.1473 29.7036 10.2844L29.2853 10.4078C29.203 10.6478 29.107 10.881 28.9973 11.1073L29.203 11.4844C29.4499 11.9233 29.3676 12.4787 29.011 12.8421L28.3596 13.4935C28.003 13.8501 27.4476 13.9255 27.0088 13.6855L26.6316 13.4798C26.4053 13.5964 26.1722 13.6924 25.9253 13.7747L25.8088 14.1861C25.6716 14.6661 25.2191 15.0021 24.7185 15.0021H23.7997C23.2991 15.0021 22.8465 14.6661 22.7094 14.1861L22.5928 13.7747C22.3528 13.6924 22.1128 13.5964 21.8865 13.4798L21.5094 13.6855C21.0705 13.9255 20.5151 13.8501 20.1586 13.4935L19.5071 12.8421C19.1506 12.4855 19.0751 11.9301 19.3151 11.4913L19.5208 11.1141C19.4043 10.8878 19.3083 10.6547 19.226 10.4078L18.8146 10.2913C18.3346 10.1541 17.9986 9.70157 17.9986 9.201V8.28215C17.9986 7.78159 18.3346 7.32902 18.8214 7.19188L19.2328 7.07531C19.3151 6.83531 19.4111 6.59532 19.5277 6.36903L19.322 5.9919C19.082 5.55304 19.1574 4.99762 19.514 4.64105L20.1654 3.98963C20.522 3.63307 21.0774 3.55764 21.5231 3.79764L21.9002 4.00335C22.1265 3.88678 22.3597 3.79078 22.5997 3.71535L22.7162 3.29707C22.8602 2.81708 23.3128 2.48108 23.8134 2.48108H24.7322C25.2328 2.48108 25.6853 2.81708 25.8225 3.30393L25.9391 3.72221C26.1791 3.80449 26.419 3.90049 26.6385 4.01021L27.0156 3.80449C27.4545 3.55764 28.0099 3.63992 28.3665 3.99649L29.0179 4.64791C29.3744 5.00448 29.4499 5.5599 29.2099 5.99875L29.0042 6.37589C29.1139 6.60217 29.2167 6.83531 29.2922 7.07531L29.7104 7.19188C30.1904 7.32902 30.5333 7.78159 30.5333 8.28215V9.19414H30.5264Z" fill="#FFD67C"/>
<path d="M31.9262 22.7438V19.9873H0.0820312V22.7438C0.0820312 23.5255 0.712881 24.1564 1.49459 24.1564H30.5205C31.2954 24.1564 31.9262 23.5255 31.9262 22.7438ZM16.6144 22.7576H15.387C15.0099 22.7576 14.7013 22.449 14.7013 22.0719C14.7013 21.6947 15.0099 21.3861 15.387 21.3861H16.6144C16.9915 21.3861 17.3001 21.6947 17.3001 22.0719C17.3001 22.449 16.9984 22.7576 16.6144 22.7576Z" fill="#FFB81D"/>
<path d="M3.61203 12.7187H14.6108C14.7342 12.7187 14.837 12.6159 14.837 12.4924V4.07882C14.837 3.95539 14.7342 3.85254 14.6108 3.85254H3.61203C3.4886 3.85254 3.38574 3.95539 3.38574 4.07882V12.4924C3.38574 12.6159 3.48174 12.7187 3.61203 12.7187ZM11.7445 8.21363L12.9376 9.41362C13.2051 9.68104 13.2051 10.113 12.9376 10.3805L11.7445 11.5736C11.6074 11.7107 11.4359 11.7724 11.2576 11.7724C11.0794 11.7724 10.9079 11.7039 10.7708 11.5736C10.5034 11.3062 10.5034 10.8742 10.7708 10.6067L11.4839 9.89361L10.7708 9.18048C10.5034 8.91305 10.5034 8.48106 10.7708 8.21363C11.0382 7.93935 11.4771 7.93935 11.7445 8.21363ZM10.7159 4.89481C11.0588 5.05938 11.2028 5.46395 11.0382 5.8068L8.40511 11.3473C8.28854 11.5942 8.04169 11.7382 7.78798 11.7382C7.69198 11.7382 7.58912 11.7176 7.49312 11.6696C7.15027 11.505 7.00627 11.1005 7.17084 10.7576L9.80395 5.22395C9.96852 4.8811 10.3731 4.73024 10.7159 4.89481ZM5.27829 6.19765L6.47142 4.99767C6.73885 4.73024 7.17084 4.73024 7.43827 4.99767C7.70569 5.26509 7.70569 5.69709 7.43827 5.96451L6.72513 6.67765L7.43827 7.39078C7.70569 7.65821 7.70569 8.0902 7.43827 8.35763C7.30112 8.49477 7.1297 8.55648 6.95141 8.55648C6.77313 8.55648 6.6017 8.48791 6.46456 8.35763L5.27143 7.1645C5.01087 6.89707 5.01087 6.46508 5.27829 6.19765Z" fill="#FFB81D"/>
<path d="M24.2722 7.21973C23.4357 7.21973 22.7568 7.89858 22.7568 8.73514C22.7568 9.5717 23.4357 10.2505 24.2722 10.2505C25.1088 10.2505 25.7877 9.5717 25.7877 8.73514C25.7877 7.89858 25.1088 7.21973 24.2722 7.21973Z" fill="#FFB81D"/>
<path d="M8.74805 29.8543V31.1435H22.9147V29.8543C22.9147 29.3743 22.5239 28.9835 22.0439 28.9835H9.61889C9.1389 28.9766 8.74805 29.3675 8.74805 29.8543Z" fill="#FFB81D"/>
</g>
<defs>
<clipPath id="clip0_6957_7391">
<rect width="32" height="32" fill="white"/>
</clipPath>
</defs>
</svg>
