<svg width="32" height="32" viewBox="0 0 32 32" fill="none" xmlns="http://www.w3.org/2000/svg">
<g clip-path="url(#clip0_6957_7414)">
<path d="M30.3099 16.2905C29.9023 16.2905 29.5401 16.2905 29.1778 16.3226H29.1325V15.2973C29.1325 14.9448 28.725 14.6885 28.2721 14.6885C24.0154 14.6885 19.8946 15.2652 16.0002 16.4187C12.1058 15.2652 7.93965 14.6885 3.72825 14.6885C3.23012 14.6885 2.86785 14.9768 2.86785 15.2973V16.3226H2.82257C2.4603 16.3226 2.05274 16.2905 1.69047 16.2905C1.19235 16.2905 0.830078 16.5789 0.830078 16.8993V29.2671C0.830078 29.6195 1.19235 29.8758 1.69047 29.8758C6.53585 29.8758 11.2454 30.5487 15.6832 31.8944C15.819 31.9264 15.9096 31.9585 16.0455 31.9585C16.1813 31.9585 16.2719 31.9585 16.4077 31.8944C20.755 30.5487 25.4645 29.8758 30.3099 29.8758C30.808 29.8758 31.1703 29.6195 31.1703 29.2671V16.8993C31.1703 16.5789 30.808 16.2905 30.3099 16.2905ZM15.0945 29.1709C11.6529 28.2418 8.12078 27.7291 4.54336 27.665V15.906C8.16607 15.9701 11.6982 16.5148 15.0945 17.476V29.1709ZM27.3664 27.665C23.789 27.7291 20.2569 28.2418 16.8153 29.1709V17.5081C20.2116 16.5468 23.789 16.0022 27.3664 15.9381V27.665Z" fill="#FFB81D"/>
<path d="M6.81306 18.9642C8.4698 19.0924 10.0861 19.3807 11.7025 19.7332C11.7833 19.7332 11.8641 19.7652 11.9045 19.7652C12.2278 19.7652 12.5511 19.573 12.6319 19.3167C12.7531 18.9963 12.5106 18.6438 12.1066 18.5477C10.4094 18.1312 8.67184 17.8748 6.93428 17.7146C6.5302 17.6826 6.12612 17.9389 6.08571 18.2593C6.0453 18.4195 6.12611 18.5797 6.24734 18.7079C6.40897 18.8681 6.61102 18.9642 6.81306 18.9642Z" fill="#FFD67C"/>
<path d="M6.81306 21.3039C8.4698 21.4321 10.0861 21.7204 11.7025 22.0729C11.7833 22.1049 11.8641 22.1049 11.9045 22.1049C12.2682 22.1049 12.5511 21.9447 12.6319 21.6563C12.7531 21.3359 12.5106 20.9835 12.1066 20.8874C10.4094 20.5029 8.67184 20.2145 6.93428 20.0543C6.48979 20.0223 6.12612 20.2465 6.08571 20.599C6.0453 20.7592 6.12611 20.9194 6.24734 21.0476C6.40897 21.2078 6.61102 21.3039 6.81306 21.3039Z" fill="#FFD67C"/>
<path d="M6.81306 23.6424C8.4698 23.7706 10.0861 24.059 11.7025 24.4114C11.7833 24.4435 11.8641 24.4435 11.9045 24.4435C12.2682 24.4435 12.5511 24.2512 12.6319 23.9949C12.7531 23.6745 12.5106 23.322 12.1066 23.2259C10.4094 22.8414 8.67184 22.5531 6.93428 22.3928C6.5302 22.3608 6.12612 22.6171 6.08571 22.9375C6.0453 23.0977 6.12611 23.258 6.24734 23.3861C6.40897 23.5463 6.61102 23.6424 6.81306 23.6424Z" fill="#FFD67C"/>
<path d="M6.81306 26.0129C8.4698 26.141 10.0861 26.4294 11.7025 26.7819C11.7833 26.8139 11.8641 26.8139 11.9045 26.8139C12.2682 26.8139 12.5511 26.6537 12.6319 26.3653C12.7531 26.0449 12.5106 25.6925 12.1066 25.5964C10.4094 25.2119 8.67184 24.9235 6.93428 24.7633C6.48979 24.7312 6.12612 24.9555 6.08571 25.308C6.0453 25.4682 6.12611 25.6284 6.24734 25.7566C6.40897 25.9168 6.61102 25.9808 6.81306 26.0129Z" fill="#FFD67C"/>
<path d="M19.7304 19.874C19.8112 19.874 19.892 19.874 19.9324 19.842C21.5084 19.4575 23.1651 19.2012 24.8218 19.073C25.0239 19.073 25.2259 18.9769 25.3472 18.8487C25.4684 18.7206 25.5492 18.5604 25.5088 18.4002C25.4684 18.0798 25.1451 17.8555 24.741 17.8555C24.7006 17.8555 24.7006 17.8555 24.6602 17.8555C22.9227 18.0157 21.1851 18.272 19.4879 18.6885C19.2859 18.7206 19.1243 18.8487 19.0434 18.9769C18.9626 19.1051 18.9222 19.2973 19.003 19.4575C19.0839 19.7138 19.3667 19.874 19.7304 19.874Z" fill="#FFD67C"/>
<path d="M19.7304 22.2454C19.8112 22.2454 19.892 22.2454 19.9324 22.2134C21.5084 21.8289 23.1651 21.5725 24.8218 21.4444C25.0239 21.4123 25.2259 21.3483 25.3472 21.2201C25.4684 21.0919 25.5492 20.9317 25.5088 20.7715C25.4684 20.4511 25.0643 20.1948 24.6602 20.2268C22.9227 20.387 21.1851 20.6434 19.4879 21.0599C19.2859 21.0919 19.1243 21.2201 19.0434 21.3483C18.9626 21.5085 18.9222 21.6687 19.003 21.8289C19.0839 22.0532 19.3667 22.2454 19.7304 22.2454Z" fill="#FFD67C"/>
<path d="M19.7304 24.5843C19.8112 24.5843 19.892 24.5843 19.9324 24.5522C21.5084 24.1677 23.1651 23.9114 24.8218 23.7832C25.0239 23.7512 25.2259 23.6871 25.3472 23.559C25.4684 23.4308 25.5492 23.2706 25.5088 23.1104C25.4684 22.79 25.0643 22.5337 24.6602 22.5657C22.9227 22.7259 21.1851 22.9822 19.4879 23.3988C19.2859 23.4308 19.1243 23.559 19.0434 23.6871C18.9626 23.8473 18.9222 24.0075 19.003 24.1677C19.0839 24.392 19.3667 24.5843 19.7304 24.5843Z" fill="#FFD67C"/>
<path d="M19.7304 26.9236C19.8112 26.9236 19.892 26.9236 19.9324 26.8916C21.5084 26.5071 23.1651 26.2508 24.8218 26.1226C25.0239 26.0906 25.2259 26.0265 25.3472 25.8983C25.4684 25.7702 25.5492 25.61 25.5088 25.4497C25.4684 25.1293 25.0643 24.873 24.6602 24.9051C22.9227 25.0653 21.1851 25.3216 19.4879 25.7381C19.2859 25.8022 19.1243 25.8983 19.0434 26.0265C18.9626 26.1867 18.9222 26.3469 19.003 26.5071C19.0839 26.7314 19.3667 26.9236 19.7304 26.9236Z" fill="#FFD67C"/>
<path d="M1.63374 4.8646L14.176 7.96547C14.8169 8.1186 15.4577 8.19517 16.0986 8.19517C16.7394 8.19517 17.3802 8.1186 18.0211 7.96547L28.6408 5.32399V9.95616H28.5035C28.3204 9.95616 28.1831 10.071 28.1831 10.2241V11.564C28.1831 11.7171 28.3204 11.832 28.5035 11.832H28.5493L28.0458 12.6742C27.9542 12.8273 28.0915 13.057 28.3204 13.057H29.8767C30.1056 13.057 30.2429 12.8656 30.1514 12.6742L29.6479 11.832H29.6936C29.8767 11.832 30.0141 11.7171 30.0141 11.564V10.1859C30.0141 10.0327 29.8767 9.91788 29.6936 9.91788H29.5563V5.09429L30.5176 4.8646C31.3873 4.6349 31.3873 3.60128 30.5176 3.40987L18.0211 0.27071C17.3802 0.11758 16.7394 0.0410156 16.0986 0.0410156C15.4577 0.0410156 14.8169 0.11758 14.176 0.27071L1.63374 3.37159C0.764015 3.60128 0.764015 4.6349 1.63374 4.8646Z" fill="#FFB81D"/>
<path d="M13.6738 9.80348L6.0752 7.92764V11.8324C6.0752 12.5981 6.67027 13.2489 7.53999 13.4786L10.79 14.2825C14.3146 15.163 18.114 15.163 21.6386 14.2825L24.8428 13.4786C25.7126 13.2489 26.3076 12.5981 26.3076 11.8324V7.85107L18.5259 9.80348C17.7478 9.99489 16.9238 10.1097 16.0541 10.1097C15.2759 10.1097 14.452 9.99489 13.6738 9.80348Z" fill="#FFD67C"/>
</g>
<defs>
<clipPath id="clip0_6957_7414">
<rect width="32" height="32" fill="white"/>
</clipPath>
</defs>
</svg>
