<svg width="32" height="32" viewBox="0 0 32 32" fill="none" xmlns="http://www.w3.org/2000/svg">
<g clip-path="url(#clip0_6959_7561)">
<path d="M14.4891 29.2231H6.77539V31.4271H14.4891V29.2231Z" fill="#FFCF6B"/>
<path d="M3.629 14.7328L4.74197 18.0718C5.01195 17.7467 5.35907 17.5153 5.73373 17.372L4.23507 12.876C4.09182 12.4408 3.77776 12.0992 3.36453 11.9063C2.94579 11.7135 2.48297 11.7025 2.05321 11.8733L1.9375 11.9173L2.30665 13.1956C2.92375 13.5207 3.4031 14.0606 3.629 14.7328Z" fill="#FFCF6B"/>
<path d="M7.87664 27.0193V28.1213H13.3864V23.7465C13.3864 23.2121 13.1274 22.7107 12.6922 22.4021L7.29811 18.5453C6.75265 18.1596 5.99781 18.2643 5.58458 18.7877C5.32562 19.1073 5.24848 19.5205 5.34766 19.8952L5.37521 19.9833L5.39173 20.0329C5.46887 20.2313 5.60111 20.4131 5.77742 20.5564L9.87118 23.8347C10.1136 24.022 10.1522 24.3691 9.95933 24.606C9.772 24.8485 9.42488 24.887 9.18796 24.6942L5.0887 21.4214C4.69199 21.0963 4.42202 20.6721 4.28978 20.2092L2.58175 15.0852C2.42748 14.6223 2.08036 14.2532 1.63958 14.0769C1.23737 13.9171 0.796588 13.9171 0.399885 14.0769L0.28418 14.1209L2.69746 22.325C2.79112 22.6611 2.98948 22.9476 3.26496 23.1625L7.66176 26.584C7.7995 26.6887 7.87664 26.8485 7.87664 27.0193Z" fill="#FFCF6B"/>
<path d="M31.884 14.0769C31.4873 13.9171 31.0465 13.9171 30.6443 14.0769C30.2035 14.2532 29.8564 14.6223 29.7021 15.0852L27.9886 20.2203C27.8619 20.6776 27.5919 21.1018 27.1952 21.4214L23.0959 24.6942C22.859 24.887 22.5119 24.8485 22.3245 24.606C22.1317 24.3691 22.1703 24.022 22.4127 23.8347L26.5065 20.5564C26.6773 20.4186 26.8095 20.2423 26.8866 20.0439C26.8921 20.0219 26.8976 19.9999 26.9087 19.9778C26.9087 19.9723 26.9307 19.9172 26.9307 19.9062V19.8952C27.0354 19.5205 26.9583 19.1073 26.6993 18.7877C26.2806 18.2643 25.5312 18.1596 24.9858 18.5453L19.5917 22.4021C19.1564 22.7107 18.8975 23.2121 18.8975 23.7465V28.1213H24.4072V27.0193C24.4072 26.8485 24.4844 26.6887 24.6221 26.584L29.0189 23.1625C29.2944 22.9476 29.4927 22.6611 29.5864 22.325L31.9997 14.1209L31.884 14.0769Z" fill="#FFCF6B"/>
<path d="M27.5406 18.0718L28.6536 14.7328C28.8795 14.0606 29.3588 13.5207 29.9759 13.1901L30.3451 11.9173L30.2294 11.8733C29.7996 11.7025 29.3368 11.7135 28.918 11.9063C28.5048 12.0992 28.1907 12.4408 28.0475 12.8816L26.5488 17.372C26.9235 17.5153 27.2706 17.7467 27.5406 18.0718Z" fill="#FFCF6B"/>
<path d="M25.5086 29.2231H17.7949V31.4271H25.5086V29.2231Z" fill="#FFCF6B"/>
<path d="M26.0595 6.8534V6.21427C26.0595 3.09574 23.5305 0.572266 20.4175 0.572266H20.1365C18.6378 0.572266 17.2053 1.16732 16.1474 2.2252C15.0895 1.16732 13.6515 0.572266 12.1584 0.572266H11.8774C8.75883 0.572266 6.23535 3.10125 6.23535 6.21427V6.8534C6.23535 8.46776 6.92407 9.99948 8.13071 11.0739L16.1529 18.2035L24.1752 11.0739C25.3818 10.005 26.0705 8.46776 26.0705 6.8534H26.0595ZM19.4478 9.3879H17.2439V11.5918H15.04V9.3879H12.8361V7.18399H15.04V4.98008H17.2439V7.18399H19.4478V9.3879Z" fill="#FFAD00"/>
</g>
<defs>
<clipPath id="clip0_6959_7561">
<rect width="32" height="32" fill="white"/>
</clipPath>
</defs>
</svg>
