<svg width="32" height="32" viewBox="0 0 32 32" fill="none" xmlns="http://www.w3.org/2000/svg">
<g clip-path="url(#clip0_6959_7552)">
<path opacity="0.58" d="M17.1431 1.10698C17.0996 0.964339 16.9001 0.964339 16.8566 1.10698L16.1472 3.42997C16.1279 3.49358 16.0697 3.53696 16.004 3.53696H13.6933C13.5498 3.53696 13.4882 3.72125 13.6022 3.80941L15.4844 5.26457C15.5343 5.30319 15.5552 5.36925 15.5366 5.43003L14.8208 7.77441C14.7776 7.91563 14.9391 8.02959 15.0551 7.93986L16.9088 6.50671C16.9625 6.46514 17.0372 6.46514 17.0909 6.50671L18.9446 7.93986C19.0606 8.02959 19.2221 7.91563 19.1789 7.77441L18.4631 5.43003C18.4445 5.36925 18.4654 5.30319 18.5153 5.26457L20.3975 3.80941C20.5115 3.72125 20.4499 3.53696 20.3065 3.53696H17.9957C17.93 3.53696 17.8718 3.49358 17.8525 3.42997L17.1431 1.10698Z" fill="#FFAD00"/>
<path fill-rule="evenodd" clip-rule="evenodd" d="M10.2539 9.74609C9.42549 9.74609 8.75391 10.4258 8.75391 11.2642V30.9997H25.254V11.2642C25.254 10.4258 24.5825 9.74609 23.754 9.74609H10.2539ZM14.0039 14.3004C13.5897 14.3004 13.2539 14.6403 13.2539 15.0595V16.5776C13.2539 16.9968 13.5897 17.3367 14.0039 17.3367H15.504C15.9181 17.3367 16.254 16.9968 16.254 16.5776V15.0595C16.254 14.6403 15.9181 14.3004 15.504 14.3004H14.0039ZM13.2539 19.6139C13.2539 19.1947 13.5897 18.8548 14.0039 18.8548H15.504C15.9181 18.8548 16.254 19.1947 16.254 19.6139V21.132C16.254 21.5511 15.9181 21.891 15.504 21.891H14.0039C13.5897 21.891 13.2539 21.5511 13.2539 21.132V19.6139ZM14.0039 23.4091C13.5897 23.4091 13.2539 23.749 13.2539 24.1682V25.6863C13.2539 26.1055 13.5897 26.4454 14.0039 26.4454H15.504C15.9181 26.4454 16.254 26.1055 16.254 25.6863V24.1682C16.254 23.749 15.9181 23.4091 15.504 23.4091H14.0039ZM17.754 15.0595C17.754 14.6403 18.0898 14.3004 18.504 14.3004H20.004C20.4181 14.3004 20.754 14.6403 20.754 15.0595V16.5776C20.754 16.9968 20.4181 17.3367 20.004 17.3367H18.504C18.0898 17.3367 17.754 16.9968 17.754 16.5776V15.0595ZM18.504 18.8548C18.0898 18.8548 17.754 19.1947 17.754 19.6139V21.132C17.754 21.5511 18.0898 21.891 18.504 21.891H20.004C20.4181 21.891 20.754 21.5511 20.754 21.132V19.6139C20.754 19.1947 20.4181 18.8548 20.004 18.8548H18.504ZM17.754 24.1682C17.754 23.749 18.0898 23.4091 18.504 23.4091H20.004C20.4181 23.4091 20.754 23.749 20.754 24.1682V25.6863C20.754 26.1055 20.4181 26.4454 20.004 26.4454H18.504C18.0898 26.4454 17.754 26.1055 17.754 25.6863V24.1682Z" fill="#FFAD00"/>
<path opacity="0.58" d="M5.00002 14.3008H7.25004V31.0001H2.75001C2.33579 31.0001 2 30.6602 2 30.241C2 29.8219 2.33579 29.4819 2.75001 29.4819H3.50001V15.8189C3.50001 14.9804 4.1716 14.3008 5.00002 14.3008Z" fill="#FFAD00"/>
<path opacity="0.58" d="M26.75 14.3008V31.0001H31.25C31.6642 31.0001 32 30.6602 32 30.241C32 29.8219 31.6642 29.4819 31.25 29.4819H30.5V15.8189C30.5 14.9804 29.8285 14.3008 29 14.3008H26.75Z" fill="#FFAD00"/>
</g>
<defs>
<clipPath id="clip0_6959_7552">
<rect width="32" height="32" fill="white"/>
</clipPath>
</defs>
</svg>
