<svg width="32" height="32" viewBox="0 0 32 32" fill="none" xmlns="http://www.w3.org/2000/svg">
<g clip-path="url(#clip0_6957_7424)">
<path d="M29.4054 2.0434C29.4054 1.16466 28.7352 0.492676 27.8587 0.492676H4.1415C3.26499 0.492676 2.59473 1.16466 2.59473 2.0434V11.8646H29.4054V2.0434ZM28.3743 1.52649V1.88833L25.7447 5.66175H24.5073L27.3946 1.52649H28.3743ZM24.5073 1.52649L21.62 5.66175H20.3826L23.2699 1.52649H24.5073ZM20.3826 1.52649L17.4953 5.66175H16.2579L19.1452 1.52649H20.3826ZM16.2579 1.52649L13.3706 5.66175H12.1332L15.0205 1.52649H16.2579ZM7.75063 1.52649H8.78181V4.73132L10.8957 1.52649H12.1332L9.40052 5.66175H8.78181H7.75063V1.52649ZM10.8957 10.8308L8.78181 7.626V10.8308H7.75063V6.69557H9.40052L12.1332 10.8308H10.8957ZM15.0205 10.8308L12.1332 6.69557H13.3706L16.2579 10.8308H15.0205ZM19.1452 10.8308L16.2579 6.69557H17.4953L20.3826 10.8308H19.1452ZM23.2699 10.8308L20.3826 6.69557H21.62L24.5073 10.8308H23.2699ZM28.3743 10.8308H27.3946L24.5073 6.69557H25.7447L28.3743 10.469V10.8308Z" fill="#FFD67C"/>
<path d="M12.3908 19.1016H2.079C1.20249 19.1016 0.532227 19.7735 0.532227 20.6523V29.9566C0.532227 30.8354 1.20249 31.5073 2.079 31.5073H12.3908C13.2673 31.5073 13.9376 30.8354 13.9376 29.9566V20.6523C13.9376 19.7735 13.2673 19.1016 12.3908 19.1016ZM3.62577 29.233V21.376L11.4627 25.3045L3.62577 29.233Z" fill="#FFB81D"/>
<path d="M23.2188 23.2365C23.2188 23.8051 23.6828 24.2703 24.2499 24.2703V22.2026C23.6828 22.2026 23.2188 22.6679 23.2188 23.2365Z" fill="#FFD67C"/>
<path d="M25.2803 27.3718C25.8474 27.3718 26.3115 26.9066 26.3115 26.338C26.3115 25.7694 25.8474 25.3042 25.2803 25.3042V27.3718Z" fill="#FFD67C"/>
<path d="M24.7662 18.0674C21.0539 18.0674 18.0635 21.0654 18.0635 24.7872C18.0635 28.5089 21.0539 31.507 24.7662 31.507C28.4784 31.507 31.4688 28.5089 31.4688 24.7872C31.4688 21.0654 28.4784 18.0674 24.7662 18.0674ZM27.3441 26.3379C27.3441 27.4751 26.416 28.4055 25.2817 28.4055V29.4394H24.2506V28.4055C23.1163 28.4055 22.1882 27.4751 22.1882 26.3379H23.2194C23.2194 26.9065 23.6834 27.3717 24.2506 27.3717V25.3041C23.1163 25.3041 22.1882 24.3737 22.1882 23.2365C22.1882 22.0993 23.1163 21.1688 24.2506 21.1688V20.135H25.2817V21.1688C26.416 21.1688 27.3441 22.0993 27.3441 23.2365H26.3129C26.3129 22.6679 25.8489 22.2026 25.2817 22.2026V24.2703C26.416 24.2703 27.3441 25.2007 27.3441 26.3379Z" fill="#FFD67C"/>
<path d="M24.7651 17.0337C26.5181 17.0337 28.1165 17.6023 29.4054 18.5844V12.8984H2.59473V18.0675H12.3909C13.8346 18.0675 14.9689 19.2047 14.9689 20.6521V26.338H17.1859C17.0828 25.8211 17.0313 25.3042 17.0313 24.7873C17.0313 20.497 20.4857 17.0337 24.7651 17.0337Z" fill="#FFB81D"/>
</g>
<defs>
<clipPath id="clip0_6957_7424">
<rect width="32" height="32" fill="white"/>
</clipPath>
</defs>
</svg>
