<svg width="32" height="32" viewBox="0 0 32 32" fill="none" xmlns="http://www.w3.org/2000/svg">
<path d="M14.9316 6.34956V8.49405H17.0678V6.34956C17.0678 5.75846 17.5471 5.27731 18.1359 5.27731H21.3402V3.13281H18.1359C16.369 3.13281 14.9316 4.57574 14.9316 6.34956Z" fill="#FFD67C"/>
<path d="M22.4082 11.7109H26.109C26.4661 11.7109 26.7996 11.8901 26.9977 12.1884L28.8168 14.9277H22.4082V11.7109Z" fill="#FFB81D"/>
<path d="M11.728 23.5058C12.9078 23.5058 13.8642 22.5457 13.8642 21.3613C13.8642 20.1769 12.9078 19.2168 11.728 19.2168C10.5482 19.2168 9.5918 20.1769 9.5918 21.3613C9.5918 22.5457 10.5482 23.5058 11.728 23.5058Z" fill="#FFD67C"/>
<path d="M22.4082 16V18.3421C22.7439 18.2219 23.0999 18.1445 23.4763 18.1445C25.2432 18.1445 26.6806 19.5874 26.6806 21.3612H27.7487C28.3386 21.3612 28.8168 20.8812 28.8168 20.289V16H22.4082Z" fill="#FFB81D"/>
<path d="M23.476 23.5058C24.6558 23.5058 25.6122 22.5457 25.6122 21.3613C25.6122 20.1769 24.6558 19.2168 23.476 19.2168C22.2962 19.2168 21.3398 20.1769 21.3398 21.3613C21.3398 22.5457 22.2962 23.5058 23.476 23.5058Z" fill="#FFD67C"/>
<path d="M26.3851 3.2225C26.5646 3.10208 26.7982 3.10208 26.9776 3.2225L27.7495 3.73925V0.988281H25.6133V3.73925L26.3851 3.2225Z" fill="#FFD67C"/>
<path d="M29.8849 0.988281H28.8168V4.74082C28.8168 4.93873 28.7083 5.1204 28.5346 5.2136C28.4559 5.256 28.3693 5.27695 28.2827 5.27695C28.1789 5.27695 28.0757 5.24658 27.9865 5.18689L26.6806 4.31308L25.3747 5.18689C25.2109 5.29684 24.9997 5.30731 24.8265 5.2136C24.6529 5.1204 24.5444 4.93873 24.5444 4.74082V0.988281H23.4763C22.8864 0.988281 22.4082 1.46832 22.4082 2.06053V7.42177C22.4082 8.01398 22.8864 8.49402 23.4763 8.49402H29.8849C30.4748 8.49402 30.9529 8.01398 30.9529 7.42177V2.06053C30.9529 1.46832 30.4748 0.988281 29.8849 0.988281Z" fill="#FFD67C"/>
<path d="M5.02284 25.7396C5.20225 25.6192 5.43589 25.6192 5.6153 25.7396L6.38716 26.2563V23.5054H4.25098V26.2563L5.02284 25.7396Z" fill="#FFD67C"/>
<path d="M8.52353 23.5054H7.45543V27.2579C7.45543 27.4558 7.34696 27.6375 7.17329 27.7307C7.09454 27.7731 7.00796 27.794 6.92139 27.794C6.8176 27.794 6.71434 27.7637 6.62516 27.704L5.31925 26.8302L4.01334 27.704C3.84958 27.8139 3.63836 27.8244 3.46521 27.7307C3.29154 27.6375 3.18306 27.4558 3.18306 27.2579V23.5054H2.11497C1.52512 23.5054 1.04688 23.9854 1.04688 24.5776V29.9389C1.04688 30.531 1.52512 31.0111 2.11497 31.0111H8.52353C9.11344 31.0111 9.59162 30.531 9.59162 29.9389V24.5776C9.59162 23.9854 9.11344 23.5054 8.52353 23.5054Z" fill="#FFD67C"/>
<path d="M14.9325 25.6499C14.9325 26.2409 14.4532 26.7221 13.8644 26.7221H10.6602V28.8666H13.8644C15.6314 28.8666 17.0687 27.4237 17.0687 25.6499V22.4331H14.9325V25.6499Z" fill="#FFD67C"/>
<path d="M20.2726 9.56641H6.38743C5.79758 9.56641 5.31934 10.0464 5.31934 10.6387V20.2889C5.31934 20.8811 5.79758 21.3611 6.38743 21.3611H8.52362C8.52362 19.5873 9.96095 18.1444 11.7279 18.1444C13.4948 18.1444 14.9322 19.5873 14.9322 21.3611H20.2726C20.2726 20.4142 20.6899 19.5702 21.3407 18.981V10.6387C21.3407 10.0464 20.8626 9.56641 20.2726 9.56641Z" fill="#FFB81D"/>
</svg>
