<svg width="32" height="32" viewBox="0 0 32 32" fill="none" xmlns="http://www.w3.org/2000/svg">
<g clip-path="url(#clip0_6957_7401)">
<path d="M18.1249 18.6636H9.63086V19.7288H18.1249V18.6636Z" fill="#FFD67C"/>
<path d="M17.0625 11.2065H10.6924V17.598H17.0625V11.2065Z" fill="#FFD67C"/>
<path d="M18.1243 17.598C18.7098 17.598 19.186 18.0757 19.186 18.6632V19.7284C19.186 20.3159 18.7098 20.7937 18.1243 20.7937H9.63079C9.04527 20.7937 8.5691 20.3159 8.5691 19.7284V18.6632C8.5691 18.0757 9.04527 17.598 9.63079 17.598V14.4023H5.91488V2.68467H22.9019V12.2718H25.0253V0.554199H3.79151V8.01085H2.72982V0.740615C1.49455 1.18056 0.606445 2.36137 0.606445 3.74991V26.1784C1.16436 25.6064 1.9033 25.2165 2.72982 25.0967V9.07608H3.79151V25.0546H25.0253V16.5327H18.1243V17.598ZM5.91488 22.9241H4.8532V21.8589H5.91488V22.9241ZM8.03826 22.9241H6.97657V21.8589H8.03826V22.9241ZM22.9019 21.8589H23.9636V22.9241H22.9019V21.8589ZM20.7785 21.8589H21.8402V22.9241H20.7785V21.8589ZM19.7168 22.9241H9.09995V21.8589H19.7168V22.9241Z" fill="#FFB81D"/>
<path d="M24.3272 27.1849C24.5167 26.7865 24.7705 26.4248 25.0815 26.1196H3.26066C2.39698 26.1196 1.63575 26.542 1.15109 27.1849H3.79151V28.2501H0.660061C0.625025 28.4221 0.606445 28.6006 0.606445 28.7827C0.606445 28.9649 0.625025 29.1433 0.660061 29.3153H18.6551V30.3806H1.15109C1.63575 31.0234 2.39698 31.4458 3.26066 31.4458H25.081C24.7705 31.1406 24.5162 30.779 24.3267 30.3806H19.7168V29.3153H24.006C23.9811 29.1406 23.9636 28.9638 23.9636 28.7827C23.9636 28.6016 23.9811 28.4248 24.006 28.2501H4.8532V27.1849H24.3272Z" fill="#FFD67C"/>
<path d="M29.8026 12.8042C29.3195 12.8042 28.9697 13.0226 28.7605 13.2053L28.6108 13.3368H18.124V15.4673H28.6108L28.7605 15.5988C28.9697 15.7815 29.3195 15.9999 29.8026 15.9999C30.6806 15.9999 31.3951 15.283 31.3951 14.4021C31.3951 13.5211 30.6806 12.8042 29.8026 12.8042Z" fill="#FFD67C"/>
<path d="M21.8402 3.75H6.97656V13.3371H9.63078V11.2066C9.04526 11.2066 8.56909 10.7289 8.56909 10.1414V9.07618C8.56909 8.4887 9.04526 8.01094 9.63078 8.01094H18.1243C18.7098 8.01094 19.186 8.4887 19.186 9.07618V10.1414C19.186 10.7289 18.7098 11.2066 18.1243 11.2066V12.2719H21.8402V3.75Z" fill="#FFB81D"/>
<path d="M18.1249 9.07617H9.63086V10.1414H18.1249V9.07617Z" fill="#FFD67C"/>
</g>
<defs>
<clipPath id="clip0_6957_7401">
<rect width="32" height="32" fill="white"/>
</clipPath>
</defs>
</svg>
