<svg width="32" height="32" viewBox="0 0 32 32" fill="none" xmlns="http://www.w3.org/2000/svg">
<g clip-path="url(#clip0_6959_7520)">
<path d="M13.8919 17.9813L12.9824 16.1623L16.2307 12.9141L18.0497 13.8886C18.3095 13.7586 18.6343 13.6287 18.8942 13.4988C17.8548 12.0046 16.4905 10.8352 14.8664 10.0557C13.697 11.0951 12.2028 11.6798 10.5138 11.6798C8.88965 11.6798 7.3305 11.0301 6.16114 10.0557C3.1078 11.4849 0.899008 14.3433 0.379291 17.7865C0.314327 18.3711 0.639149 19.0208 1.22383 19.2157C4.60199 20.385 7.98015 20.8398 11.4233 20.7748V19.8653L13.3722 19.2157C13.5021 18.8259 13.697 18.3711 13.8919 17.9813Z" fill="#FFD67C"/>
<path d="M10.5139 9.86081C13.1331 9.86081 15.2563 7.73756 15.2563 5.11839C15.2563 2.49923 13.1331 0.375977 10.5139 0.375977C7.89474 0.375977 5.77148 2.49923 5.77148 5.11839C5.77148 7.73756 7.89474 9.86081 10.5139 9.86081Z" fill="#FFD67C"/>
<path d="M29.8743 20.2551C29.6794 19.4756 29.3546 18.696 28.8998 17.9814L29.7444 16.3573L27.8604 14.4733L26.2363 15.3178C25.5217 14.928 24.807 14.6032 23.9625 14.4083L23.5078 12.7192H20.8442L20.3245 14.4733C19.5449 14.6682 18.7653 14.993 18.0507 15.3828L16.4266 14.5382L14.5426 16.4222L15.3872 18.0463C14.9324 18.7609 14.6726 19.4756 14.4127 20.3201L12.7236 20.8398V23.5034L14.4127 24.0231C14.6076 24.8676 14.9324 25.6472 15.3872 26.2968L14.5426 27.856L16.4266 29.74L17.9858 28.9604C18.7004 29.4151 19.48 29.74 20.3245 29.9349L20.8442 31.6239H23.5078L24.0275 29.9349C24.872 29.74 25.6516 29.4151 26.3662 28.9604L27.9254 29.74L29.8093 27.856L28.9648 26.2968C29.4195 25.5822 29.7444 24.8027 29.9393 24.0231L31.6283 23.5034V20.8398L29.8743 20.2551ZM22.1435 27.856C19.0252 27.856 16.4916 25.3224 16.4916 22.2041C16.4916 19.0858 19.0252 16.5521 22.1435 16.5521C25.2618 16.5521 27.7954 19.0858 27.7954 22.2041C27.7954 25.3224 25.2618 27.856 22.1435 27.856Z" fill="#FFB81D"/>
<path d="M22.4668 22.5942V24.0235C22.7267 24.0235 22.9216 23.8935 23.0515 23.8286C23.1814 23.6986 23.2464 23.5687 23.2464 23.3738C23.2464 23.1789 23.1814 23.049 23.0515 22.9191C22.9865 22.7891 22.7916 22.7242 22.4668 22.5942Z" fill="#FFD67C"/>
<path d="M21.2324 20.7751C21.2324 20.97 21.2974 21.1 21.3624 21.1649C21.4923 21.2949 21.6872 21.3598 21.947 21.4897V20.1255C21.6872 20.1255 21.5572 20.1905 21.4273 20.3204C21.2974 20.5153 21.2324 20.6452 21.2324 20.7751Z" fill="#FFD67C"/>
<path d="M22.1427 17.7861C19.739 17.7861 17.79 19.7351 17.79 22.1388C17.79 24.5425 19.739 26.4914 22.1427 26.4914C24.5464 26.4914 26.4953 24.5425 26.4953 22.1388C26.4953 19.7351 24.5464 17.7861 22.1427 17.7861ZM23.7668 24.3476C23.442 24.6074 22.9872 24.8023 22.4675 24.8023V25.387H21.9478V24.8023C21.2332 24.7373 20.5835 24.4775 19.9988 23.9578L20.5835 23.3081C21.0383 23.6979 21.493 23.8928 21.9478 23.9578V22.4636C21.3631 22.3337 20.9083 22.1388 20.6485 21.8789C20.3886 21.619 20.2587 21.2942 20.2587 20.8395C20.2587 20.3847 20.3886 19.9949 20.7134 19.7351C21.0383 19.4752 21.4281 19.2803 21.9478 19.2803V18.8905H22.4675V19.2803C23.0522 19.3453 23.5719 19.5402 24.0916 19.865L23.5719 20.5796C23.2471 20.3198 22.8573 20.1898 22.4675 20.1249V21.619C23.0522 21.749 23.5069 21.9439 23.7668 22.2037C24.0266 22.4636 24.1566 22.7884 24.1566 23.2432C24.2215 23.6979 24.0916 24.0877 23.7668 24.3476Z" fill="#FFB81D"/>
</g>
<defs>
<clipPath id="clip0_6959_7520">
<rect width="32" height="32" fill="white"/>
</clipPath>
</defs>
</svg>
