<svg width="32" height="32" viewBox="0 0 32 32" fill="none" xmlns="http://www.w3.org/2000/svg">
<path d="M9.88629 2.17947C9.88629 3.09533 9.14367 3.83795 8.22781 3.83795C7.31195 3.83795 6.56934 3.09533 6.56934 2.17947C6.56934 1.26362 7.31195 0.520996 8.22781 0.520996C9.14367 0.520996 9.88629 1.26362 9.88629 2.17947Z" fill="#FFB81D"/>
<path d="M17.1301 3.23212H17.7426L17.62 2.63202C17.559 2.3333 17.559 2.02525 17.62 1.72657L17.7426 1.12646H17.1301H10.9385H10.326L10.4486 1.72656C10.5096 2.02528 10.5096 2.33333 10.4486 2.63201L10.326 3.23212H10.9385H17.1301Z" fill="#FFB81D" stroke="#FFB81D"/>
<path d="M29.7879 27.0566H3.25229C2.46228 27.0566 1.73224 27.4782 1.33717 28.1623C0.942297 28.8464 0.942297 29.6895 1.33717 30.3736C1.73229 31.0577 2.46235 31.4792 3.25229 31.4792H29.7879C30.5779 31.4792 31.308 31.0577 31.703 30.3736C32.0979 29.6895 32.0979 28.8464 31.703 28.1623C31.3079 27.4782 30.5779 27.0566 29.7879 27.0566ZM3.80511 30.9264C3.36532 30.9264 2.94327 30.7517 2.63236 30.4407C2.32146 30.1298 2.14667 29.7077 2.14667 29.268C2.14667 28.8282 2.3214 28.4061 2.63236 28.0952C2.94333 27.7843 3.36538 27.6095 3.80511 27.6095C4.24485 27.6095 4.66695 27.7843 4.97786 28.0952C5.28877 28.4062 5.46356 28.8282 5.46356 29.268C5.46356 29.7077 5.28883 30.1298 4.97786 30.4407C4.6669 30.7516 4.24485 30.9264 3.80511 30.9264ZM7.67489 29.8208H6.01642V28.7151H7.67489V29.8208ZM9.8862 30.9264C9.44641 30.9264 9.02436 30.7517 8.71345 30.4407C8.40254 30.1298 8.22775 29.7077 8.22775 29.268C8.22775 28.8282 8.40248 28.4061 8.71345 28.0952C9.02442 27.7843 9.44646 27.6095 9.8862 27.6095C10.3259 27.6095 10.748 27.7843 11.0589 28.0952C11.3699 28.4062 11.5446 28.8282 11.5446 29.268C11.5446 29.7077 11.3699 30.1298 11.0589 30.4407C10.748 30.7516 10.3259 30.9264 9.8862 30.9264ZM14.3088 29.8208H12.0975V28.7151H14.3088V29.8208ZM16.5201 30.9264C16.0803 30.9264 15.6583 30.7517 15.3474 30.4407C15.0365 30.1298 14.8617 29.7077 14.8617 29.268C14.8617 28.8282 15.0364 28.4061 15.3474 28.0952C15.6583 27.7843 16.0804 27.6095 16.5201 27.6095C16.9598 27.6095 17.382 27.7843 17.6929 28.0952C18.0038 28.4062 18.1786 28.8282 18.1786 29.268C18.1786 29.7077 18.0038 30.1298 17.6929 30.4407C17.3819 30.7516 16.9598 30.9264 16.5201 30.9264ZM20.9427 29.8208H18.7314V28.7151H20.9427V29.8208ZM23.154 30.9264C22.7142 30.9264 22.2922 30.7517 21.9813 30.4407C21.6704 30.1298 21.4956 29.7077 21.4956 29.268C21.4956 28.8282 21.6703 28.4061 21.9813 28.0952C22.2922 27.7843 22.7143 27.6095 23.154 27.6095C23.5938 27.6095 24.0159 27.7843 24.3268 28.0952C24.6377 28.4062 24.8125 28.8282 24.8125 29.268C24.8125 29.7077 24.6377 30.1298 24.3268 30.4407C24.0158 30.7516 23.5938 30.9264 23.154 30.9264ZM27.0238 29.8208H25.3653V28.7151H27.0238V29.8208ZM29.2351 30.9264C28.7953 30.9264 28.3733 30.7517 28.0624 30.4407C27.7514 30.1298 27.5767 29.7077 27.5767 29.268C27.5767 28.8282 27.7514 28.4061 28.0624 28.0952C28.3733 27.7843 28.7954 27.6095 29.2351 27.6095C29.6748 27.6095 30.0969 27.7843 30.4079 28.0952C30.7188 28.4062 30.8936 28.8282 30.8936 29.268C30.8936 29.7077 30.7188 30.1298 30.4079 30.4407C30.0969 30.7516 29.6748 30.9264 29.2351 30.9264Z" fill="#FFB81D"/>
<path d="M21.4957 2.17947C21.4957 3.09533 20.753 3.83795 19.8372 3.83795C18.9213 3.83795 18.1787 3.09533 18.1787 2.17947C18.1787 1.26362 18.9213 0.520996 19.8372 0.520996C20.753 0.520996 21.4957 1.26362 21.4957 2.17947Z" fill="#FFB81D"/>
<path d="M4.35938 19.3174V25.9513H12.0989V19.3174H9.88763V22.6343C9.88862 22.8263 9.7899 23.0053 9.62677 23.1067C9.46364 23.2081 9.25954 23.2178 9.08777 23.1319L8.22915 22.6995L7.37053 23.1289V23.1292C7.19926 23.2148 6.99565 23.2057 6.83276 23.1047C6.66963 23.004 6.57067 22.8259 6.57067 22.6343V19.3174L4.35938 19.3174Z" fill="#FFB81D" fill-opacity="0.58"/>
<path d="M4.3576 29.2677C4.3576 29.573 4.11007 29.8205 3.80478 29.8205C3.49949 29.8205 3.25195 29.573 3.25195 29.2677C3.25195 28.9624 3.49949 28.7148 3.80478 28.7148C4.11007 28.7148 4.3576 28.9624 4.3576 29.2677Z" fill="#FFB81D"/>
<path d="M8.47272 21.5867L8.7785 21.7397V19.3174H7.67285V21.74L7.97863 21.5869V21.5867C8.13411 21.509 8.31724 21.509 8.47272 21.5867L8.47272 21.5867Z" fill="#FFB81D" fill-opacity="0.58"/>
<path d="M10.4377 29.2677C10.4377 29.573 10.1901 29.8205 9.88486 29.8205C9.57957 29.8205 9.33203 29.573 9.33203 29.2677C9.33203 28.9624 9.57957 28.7148 9.88486 28.7148C10.1901 28.7148 10.4377 28.9624 10.4377 29.2677Z" fill="#FFB81D"/>
<path d="M23.7062 29.2677C23.7062 29.573 23.4587 29.8205 23.1534 29.8205C22.8481 29.8205 22.6006 29.573 22.6006 29.2677C22.6006 28.9624 22.8481 28.7148 23.1534 28.7148C23.4587 28.7148 23.7062 28.9624 23.7062 29.2677Z" fill="#FFB81D"/>
<path d="M17.0744 29.2677C17.0744 29.573 16.8269 29.8205 16.5216 29.8205C16.2163 29.8205 15.9688 29.573 15.9688 29.2677C15.9688 28.9624 16.2163 28.7148 16.5216 28.7148C16.8269 28.7148 17.0744 28.9624 17.0744 29.2677Z" fill="#FFB81D"/>
<path d="M29.7873 29.2677C29.7873 29.573 29.5398 29.8205 29.2345 29.8205C28.9292 29.8205 28.6816 29.573 28.6816 29.2677C28.6816 28.9624 28.9292 28.7148 29.2345 28.7148C29.5398 28.7148 29.7873 28.9624 29.7873 29.2677Z" fill="#FFB81D"/>
<path d="M9.3324 10.4714C9.3324 11.082 8.83732 11.577 8.22675 11.577C7.61617 11.577 7.12109 11.082 7.12109 10.4714C7.12109 9.8608 7.61617 9.36572 8.22675 9.36572C8.83732 9.36572 9.3324 9.8608 9.3324 10.4714Z" fill="#FFB81D" fill-opacity="0.58"/>
<path d="M29.2348 9.36572C28.5018 9.36572 27.7987 9.65694 27.2802 10.1752C26.7619 10.6937 26.4707 11.3968 26.4707 12.1299C26.4707 12.8629 26.7619 13.5659 27.2802 14.0845C27.7987 14.6028 28.5018 14.894 29.2348 14.894C29.9678 14.894 30.6709 14.6028 31.1895 14.0845C31.7078 13.566 31.999 12.8629 31.999 12.1299C31.998 11.3971 31.7065 10.6945 31.1885 10.1762C30.6702 9.65817 29.9676 9.36673 29.2348 9.36572ZM29.2348 13.7883C28.795 13.7883 28.373 13.6136 28.0621 13.3026C27.7512 12.9917 27.5764 12.5696 27.5764 12.1299C27.5764 11.6902 27.7511 11.268 28.0621 10.9571C28.373 10.6462 28.7951 10.4714 29.2348 10.4714C29.6746 10.4714 30.0967 10.6462 30.4076 10.9571C30.7185 11.2681 30.8933 11.6902 30.8933 12.1299C30.8933 12.5696 30.7185 12.9917 30.4076 13.3026C30.0966 13.6135 29.6746 13.7883 29.2348 13.7883Z" fill="#FFB81D"/>
<path d="M21.0333 4.09108L20.4973 4.42352L20.9433 4.86953L25.9918 9.91851L26.3674 10.2941L26.7196 9.89652C26.9349 9.65351 27.184 9.44261 27.4595 9.26991L27.9912 8.93652L27.5474 8.49274L22.4565 3.40182L22.0363 2.98159L21.6941 3.46751C21.5178 3.71795 21.2932 3.92993 21.0333 4.09108Z" fill="#FFB81D" stroke="#FFB81D"/>
<path d="M24.2609 22.0811C24.2609 21.9345 24.2026 21.7939 24.099 21.6902C23.9953 21.5866 23.8546 21.5283 23.708 21.5283H18.1798C17.8745 21.5283 17.627 21.7759 17.627 22.0811V25.9509H24.2609V22.0811ZM20.9439 25.3981C20.5041 25.3981 20.0821 25.2234 19.7712 24.9124C19.4602 24.6014 19.2855 24.1794 19.2855 23.7397C19.2855 23.2999 19.4602 22.8778 19.7712 22.5669C20.0821 22.256 20.5042 22.0812 20.9439 22.0812C21.3836 22.0812 21.8057 22.2559 22.1167 22.5669C22.4276 22.8779 22.6024 23.2999 22.6024 23.7397C22.6024 24.1794 22.4276 24.6015 22.1167 24.9124C21.8057 25.2233 21.3836 25.3981 20.9439 25.3981Z" fill="#FFB81D"/>
<path d="M29.7873 12.1305C29.7873 12.4357 29.5398 12.6833 29.2345 12.6833C28.9292 12.6833 28.6816 12.4357 28.6816 12.1305C28.6816 11.8252 28.9292 11.5776 29.2345 11.5776C29.5398 11.5776 29.7873 11.8252 29.7873 12.1305Z" fill="#FFB81D"/>
<path d="M8.7785 8.33889V4.88818C8.41374 4.96272 8.03759 4.96272 7.67285 4.88818V8.3394C8.03391 8.23476 8.41743 8.23476 8.7785 8.3394V8.33889Z" fill="#FFB81D"/>
<path d="M25.8627 14.2176L19.7301 20.3519L19.5594 20.5226H19.8008H22.9252H22.9666L22.9959 20.4933L27.7502 15.739L27.6972 15.6859L27.7202 15.5768C27.0721 15.2905 26.5177 14.8284 26.1194 14.2437L26.2321 14.131H25.9907H25.9907H25.8064L25.8627 14.2176Z" fill="#FFB81D" stroke="#FFB81D" stroke-width="0.2"/>
<path d="M21.4953 23.7398C21.4953 24.0451 21.2478 24.2927 20.9425 24.2927C20.6372 24.2927 20.3896 24.0451 20.3896 23.7398C20.3896 23.4346 20.6372 23.187 20.9425 23.187C21.2478 23.187 21.4953 23.4346 21.4953 23.7398Z" fill="#FFB81D"/>
<path d="M14.1869 12.8904L11.9756 10.1263C11.8707 9.9952 11.7118 9.91895 11.544 9.91895H10.3604C10.4643 10.2803 10.4643 10.6633 10.3604 11.0246H11.2787L13.0714 13.2658L11.0812 16.2461C10.9119 16.5001 10.9803 16.8434 11.2345 17.0129C11.4885 17.1822 11.8317 17.1136 12.0011 16.8597L14.2124 13.5427C14.3471 13.3431 14.3368 13.0792 14.1869 12.8904L14.1869 12.8904Z" fill="#FFB81D" fill-opacity="0.58"/>
<path d="M6.09634 9.91901H4.91272C4.7449 9.91901 4.58596 9.99527 4.48107 10.1263L2.26977 12.8904C2.11923 13.0785 2.10763 13.3423 2.24139 13.5427L4.45269 16.8597C4.62224 17.1136 4.96554 17.1822 5.21951 17.0129C5.47346 16.8434 5.54208 16.5001 5.37277 16.2461L3.3826 13.2658L5.17805 11.0246H6.09637C5.99247 10.6633 5.99247 10.2803 6.09637 9.91895L6.09634 9.91901Z" fill="#FFB81D" fill-opacity="0.58"/>
</svg>
