<svg width="33" height="33" viewBox="0 0 33 33" fill="none" xmlns="http://www.w3.org/2000/svg">
<path d="M13.555 27.8525H16.6213L16.9327 26.1382H13.555V27.8525Z" fill="#FFB81D"/>
<path d="M17.8521 21.0791C17.5655 21.0262 17.2749 20.9981 16.9836 20.9951H16.9041C16.4813 22.5951 14.3858 23.2288 14.2864 23.258C14.1579 23.2955 14.0203 23.2867 13.8975 23.2332C13.7748 23.1796 13.6748 23.0846 13.615 22.9648C13.184 22.3348 12.5636 21.8584 11.8436 21.6048C11.1229 21.8591 10.5013 22.3352 10.0681 22.9648C10.0083 23.0846 9.9083 23.1796 9.78559 23.2332C9.66287 23.2867 9.52524 23.2955 9.39671 23.258C9.29729 23.2288 7.20186 22.5934 6.77901 20.9951H6.69787C5.33436 20.9966 4.02714 21.5389 3.063 22.5031C2.09885 23.4672 1.55654 24.7745 1.55502 26.138V27.8522H12.4121V26.138C12.4121 25.8349 12.5325 25.5442 12.7469 25.3298C12.9612 25.1155 13.2519 24.9951 13.555 24.9951H17.1401L17.8521 21.0791Z" fill="#FFB81D"/>
<path d="M16.9835 3.28096H12.9836C12.832 3.28096 12.6867 3.22076 12.5795 3.1136C12.4723 3.00643 12.4121 2.86109 12.4121 2.70954C12.4121 2.55798 12.4723 2.41264 12.5795 2.30548C12.6867 2.19831 12.832 2.13811 12.9836 2.13811H14.9944L15.623 1.3524C15.6902 1.26838 15.7324 1.16708 15.7446 1.06015C15.7569 0.953216 15.7386 0.845008 15.6921 0.747981C15.6455 0.650953 15.5725 0.569051 15.4814 0.511703C15.3903 0.454356 15.2849 0.423895 15.1773 0.423828H9.555C8.34258 0.423828 7.17982 0.905458 6.32252 1.76276C5.46521 2.62007 4.98358 3.78283 4.98358 4.99524V6.81067C5.078 6.77634 5.17536 6.75071 5.27444 6.7341C5.7233 6.66128 6.18281 6.76779 6.55386 7.03067C6.74401 6.75123 6.9882 6.51271 7.27203 6.32918C7.55586 6.14565 7.87358 6.02084 8.20643 5.9621C9.26989 5.77878 10.2726 5.33882 11.1276 4.68039C11.3274 4.51593 11.5779 4.42563 11.8367 4.4248C12.0955 4.42397 12.3467 4.51265 12.5476 4.67582C13.4058 5.33741 14.4127 5.77936 15.4807 5.96324C15.814 6.0187 16.1324 6.14176 16.4164 6.32483C16.7004 6.50791 16.944 6.74714 17.1321 7.02781C17.5009 6.76583 17.9584 6.66025 18.4047 6.7341C18.5046 6.75063 18.6027 6.77645 18.6978 6.81124V4.99524C18.6978 4.54059 18.5172 4.10455 18.1957 3.78306C17.8742 3.46157 17.4382 3.28096 16.9835 3.28096Z" fill="#FFB81D"/>
<path d="M14.355 22.0102C14.8693 21.7856 15.7167 21.3084 15.8276 20.5816C15.5848 20.321 15.2869 20.118 14.9556 19.9873C14.6145 20.5356 14.1169 20.9692 13.527 21.2319C13.839 21.4501 14.1179 21.7122 14.355 22.0102Z" fill="#FFB81D"/>
<path d="M14.1264 19.1134V18.3626C13.3883 18.6009 12.6164 18.718 11.8407 18.7094C11.065 18.7172 10.2931 18.5995 9.55501 18.3608V19.1128C9.58015 19.1843 10.043 20.4237 11.8407 20.4237C13.6384 20.4237 14.1024 19.1826 14.1264 19.1134Z" fill="#FFB81D"/>
<path d="M31.8407 28.9951H0.983597C0.832045 28.9951 0.686701 29.0553 0.579537 29.1625C0.472374 29.2696 0.41217 29.415 0.41217 29.5665C0.41217 29.7181 0.472374 29.8634 0.579537 29.9706C0.686701 30.0778 0.832045 30.138 0.983597 30.138H31.8407C31.9922 30.138 32.1375 30.0778 32.2447 29.9706C32.3519 29.8634 32.4121 29.7181 32.4121 29.5665C32.4121 29.415 32.3519 29.2696 32.2447 29.1625C32.1375 29.0553 31.9922 28.9951 31.8407 28.9951Z" fill="#FFB81D"/>
<path d="M16.9836 12.4239C16.9836 12.2723 17.0438 12.127 17.1509 12.0198C17.2581 11.9126 17.4034 11.8524 17.555 11.8524C17.8581 11.8524 18.1488 11.732 18.3631 11.5177C18.5774 11.3034 18.6978 11.0127 18.6978 10.7096V8.48674C18.7026 8.34397 18.658 8.20392 18.5715 8.09024C18.485 7.97656 18.3619 7.89621 18.223 7.86274C18.1411 7.84871 18.0572 7.85268 17.9771 7.87438C17.8969 7.89609 17.8225 7.935 17.7589 7.98841C17.6953 8.04182 17.6441 8.10845 17.6089 8.18366C17.5737 8.25887 17.5553 8.34084 17.555 8.42388C17.555 8.57544 17.4948 8.72078 17.3876 8.82794C17.2805 8.93511 17.1351 8.99531 16.9836 8.99531C16.832 8.99531 16.6867 8.93511 16.5795 8.82794C16.4723 8.72078 16.4121 8.57544 16.4121 8.42388C16.4136 8.10452 16.3015 7.79504 16.0958 7.55072C15.8901 7.30641 15.6042 7.14317 15.2893 7.09017C14.0252 6.87678 12.8343 6.35118 11.8247 5.56104C10.8317 6.35587 9.6511 6.88223 8.39617 7.0896C8.08198 7.14518 7.79719 7.30909 7.59132 7.55286C7.38546 7.79663 7.27152 8.10482 7.26931 8.42388C7.26931 8.57544 7.20911 8.72078 7.10194 8.82794C6.99478 8.93511 6.84944 8.99531 6.69788 8.99531C6.54633 8.99531 6.40099 8.93511 6.29382 8.82794C6.18666 8.72078 6.12646 8.57544 6.12646 8.42388C6.12699 8.34869 6.11257 8.27415 6.08404 8.20458C6.05551 8.13501 6.01344 8.07181 5.96028 8.01864C5.90711 7.96547 5.8439 7.9234 5.77433 7.89487C5.70477 7.86634 5.63022 7.85193 5.55503 7.85246C5.52173 7.85261 5.4885 7.85528 5.4556 7.86046C5.31691 7.89466 5.19424 7.97561 5.10827 8.08969C5.02229 8.20377 4.97827 8.34399 4.9836 8.48674V10.7096C4.9836 11.0127 5.10401 11.3034 5.31834 11.5177C5.53266 11.732 5.82335 11.8524 6.12646 11.8524C6.27801 11.8524 6.42335 11.9126 6.53052 12.0198C6.63768 12.127 6.69788 12.2723 6.69788 12.4239C6.69788 12.6324 6.77846 17.5667 11.8407 17.5667C13.9761 17.5667 15.4864 16.7096 16.3293 15.0256C16.723 14.2122 16.9457 13.3267 16.9836 12.4239Z" fill="#FFD67C"/>
<path d="M8.72472 19.9883C8.39342 20.119 8.0955 20.322 7.85272 20.5826C7.96358 21.3083 8.81215 21.7826 9.32529 22.0111C9.56265 21.7136 9.84172 21.4518 10.1539 21.234C9.56359 20.9711 9.06576 20.5371 8.72472 19.9883Z" fill="#FFB81D"/>
<path d="M1.55502 31.2812V31.8527C1.55502 32.0042 1.61523 32.1496 1.72239 32.2567C1.82955 32.3639 1.9749 32.4241 2.12645 32.4241H30.6978C30.8493 32.4241 30.9947 32.3639 31.1019 32.2567C31.209 32.1496 31.2692 32.0042 31.2692 31.8527V31.2812H1.55502Z" fill="#FFB81D"/>
<path d="M32.403 17.0981C32.418 17.0157 32.4148 16.931 32.3935 16.85C32.3722 16.769 32.3334 16.6936 32.2797 16.6293C32.2261 16.565 32.1589 16.5132 32.0831 16.4777C32.0072 16.4422 31.9244 16.4238 31.8407 16.4238H20.335C20.2012 16.4238 20.0716 16.4708 19.9688 16.5565C19.8661 16.6422 19.7967 16.7613 19.7727 16.893L17.7836 27.8524H30.4498L32.403 17.0981ZM27.2635 24.9667C27.2686 25.0461 27.2569 25.1257 27.229 25.2003C27.2011 25.2748 27.1578 25.3426 27.1018 25.3992C26.9947 25.5064 26.8493 25.5665 26.6978 25.5665C26.5463 25.5665 26.401 25.5064 26.2938 25.3992L25.7224 24.8278C25.6153 24.7206 25.5551 24.5753 25.5551 24.4238C25.5551 24.2723 25.6153 24.127 25.7224 24.0198L26.2938 23.4484C26.3713 23.369 26.4703 23.314 26.5787 23.2904C26.6871 23.2668 26.8 23.2755 26.9035 23.3155C27.0069 23.3554 27.0964 23.4249 27.1607 23.5153C27.225 23.6057 27.2614 23.713 27.2653 23.8238C27.5304 23.7705 27.775 23.6429 27.9706 23.456C28.1661 23.2691 28.3046 23.0306 28.3699 22.768C28.4352 22.5055 28.4246 22.2299 28.3393 21.9732C28.2541 21.7164 28.0977 21.4892 27.8884 21.3179C27.6791 21.1465 27.4254 21.0381 27.1569 21.0053C26.8884 20.9725 26.6161 21.0165 26.3717 21.1324C26.1273 21.2482 25.9207 21.4311 25.7762 21.6597C25.6316 21.8883 25.5549 22.1533 25.555 22.4238C25.5575 22.921 25.4159 23.4083 25.1472 23.8266C24.8786 24.245 24.4943 24.5765 24.0411 24.781C23.5879 24.9855 23.0852 25.0542 22.5937 24.9788C22.1023 24.9034 21.6432 24.6872 21.2721 24.3562C20.901 24.0253 20.6339 23.5939 20.5029 23.1143C20.372 22.6346 20.3829 22.1273 20.5344 21.6537C20.6859 21.1801 20.9714 20.7606 21.3564 20.446C21.7414 20.1314 22.2093 19.9351 22.7036 19.881C22.6985 19.8015 22.7102 19.7219 22.7381 19.6474C22.766 19.5728 22.8093 19.505 22.8653 19.4484C22.9724 19.3413 23.1177 19.2811 23.2693 19.2811C23.4208 19.2811 23.5661 19.3413 23.6733 19.4484L24.2447 20.0198C24.3518 20.127 24.412 20.2723 24.412 20.4238C24.412 20.5753 24.3518 20.7207 24.2447 20.8278L23.6733 21.3992C23.5958 21.4787 23.4968 21.5336 23.3884 21.5572C23.28 21.5809 23.1671 21.5721 23.0636 21.5322C22.9602 21.4922 22.8707 21.4227 22.8064 21.3323C22.7421 21.2419 22.7057 21.1347 22.7018 21.0238C22.4366 21.0772 22.1921 21.2047 21.9965 21.3916C21.801 21.5785 21.6625 21.8171 21.5972 22.0796C21.5319 22.3421 21.5425 22.6177 21.6278 22.8745C21.713 23.1312 21.8694 23.3584 22.0787 23.5298C22.288 23.7011 22.5416 23.8095 22.8101 23.8423C23.0786 23.8752 23.351 23.8311 23.5954 23.7152C23.8398 23.5994 24.0463 23.4165 24.1909 23.1879C24.3355 22.9593 24.4122 22.6943 24.4121 22.4238C24.4096 21.9266 24.5512 21.4393 24.8199 21.021C25.0885 20.6026 25.4727 20.2711 25.9259 20.0667C26.3792 19.8622 26.8819 19.7935 27.3734 19.8688C27.8648 19.9442 28.3239 20.1605 28.695 20.4914C29.066 20.8223 29.3332 21.2537 29.4642 21.7334C29.5951 22.213 29.5842 22.7203 29.4327 23.1939C29.2812 23.6675 28.9957 24.087 28.6107 24.4016C28.2257 24.7162 27.7578 24.9125 27.2635 24.9667Z" fill="#FFD67C"/>
</svg>
