<svg width="33" height="33" viewBox="0 0 33 33" fill="none" xmlns="http://www.w3.org/2000/svg">
<path d="M18.6191 30.2904H25.2398V24.957H18.6191V30.2904ZM19.7226 26.0237H24.1364V27.0904H19.7226V26.0237ZM19.7226 28.1571H24.1364V29.2237H19.7226V28.1571Z" fill="#FFD67C"/>
<path d="M11.9984 14.8237V15.8914H12.5507C12.8555 15.8914 13.1029 15.6517 13.1029 15.3575C13.1029 15.0634 12.8555 14.8237 12.5507 14.8237H11.9984Z" fill="#FFB81D"/>
<path d="M3.62106 13.7671C3.65527 13.7649 3.68782 13.7569 3.72258 13.7569H4.73609L4.82602 13.7281C5.71375 13.4417 6.53306 12.9527 7.19458 12.3132L7.58464 11.9356L7.97471 12.3132C8.61913 12.9361 9.43237 13.3569 10.3267 13.5297L11.5013 13.7569H12.5502C12.6605 13.7569 12.7675 13.7687 12.8718 13.7884C13.0197 13.5575 13.1019 13.2913 13.1019 13.0177V12.5596C13.1019 12.1239 12.9033 11.7137 12.5568 11.4343L11.0241 10.1996C10.4558 9.74197 9.73637 9.49023 8.99761 9.49023H7.91899C6.85802 9.49023 5.87375 9.99957 5.28561 10.8529L5.16699 11.0246L4.31899 11.2295C3.64258 11.3927 3.17085 11.9772 3.17085 12.6503C3.17085 12.9255 3.25085 13.1937 3.40092 13.4268L3.62106 13.7671Z" fill="#FFD67C"/>
<path d="M26.895 17.9593V16.8313L27.3303 15.9897C27.4065 15.8425 27.4467 15.6777 27.4467 15.5129V15.3571C27.4467 14.7688 26.9518 14.2904 26.3433 14.2904H25.9455L25.5201 13.0552C25.4445 12.8371 25.2338 12.6904 24.9965 12.6904H22.7653C22.3179 13.3166 21.5493 14.5688 21.4026 15.5726L22.4812 16.0942V17.1609C22.4812 17.4899 22.6705 17.7854 22.975 17.9326C23.098 17.9923 23.236 18.0238 23.3739 18.0238H25.2398V20.1572H27.7805C27.2106 19.554 26.895 18.7806 26.895 17.9593Z" fill="#FFB81D"/>
<path d="M21.9295 9.49023C21.3209 9.49023 20.826 9.96864 20.826 10.5569C20.826 11.1452 21.3209 11.6236 21.9295 11.6236H24.9965C25.7099 11.6236 26.3411 12.0631 26.5667 12.7175L26.7543 13.2604C27.7755 13.4471 28.5502 14.3159 28.5502 15.357V15.5127C28.5502 15.8418 28.4696 16.1719 28.3173 16.4663L27.9984 17.0828V17.9591C27.9984 18.5373 28.2412 19.1037 28.6644 19.5133C29.0936 19.9282 29.6646 20.157 30.2721 20.157H31.3088C31.9173 20.157 32.4122 19.6786 32.4122 19.0903C32.4122 18.5021 31.9173 18.0236 31.3088 18.0236H30.7571V13.2236C30.7571 11.1649 29.0241 9.49023 26.895 9.49023H21.9295Z" fill="#FFD67C"/>
<path d="M27.4467 22.2898C27.4467 21.8994 27.5637 21.5383 27.7535 21.2231H24.756L22.9154 21.6679C21.8098 21.9352 21.0098 22.8232 20.858 23.8898H27.4467V22.2898Z" fill="#FFB81D"/>
<path d="M28.5502 22.2898V23.8898H30.7571V22.2898C30.7571 21.7015 30.2622 21.2231 29.6536 21.2231C29.0451 21.2231 28.5502 21.7015 28.5502 22.2898Z" fill="#FFB81D"/>
<path d="M26.3433 31.3571H17.5157V24.957H14.2053V31.3571H5.37775V24.957H0.412231V32.4238H32.4122V24.957H26.3433V31.3571Z" fill="#FFB81D"/>
<path d="M3.72307 15.8914H4.27529V14.8237H3.72307C3.41825 14.8237 3.17085 15.0634 3.17085 15.3575C3.17085 15.6517 3.41825 15.8914 3.72307 15.8914Z" fill="#FFB81D"/>
<path d="M14.2053 23.5016C14.2053 22.8355 13.9775 22.1752 13.5642 21.6419C13.0677 21.0013 12.3433 20.5757 11.5262 20.444L10.3339 20.252C10.2809 21.3832 9.31983 22.2904 8.13638 22.2904C6.95293 22.2904 5.99183 21.3832 5.93941 20.2515L4.74714 20.4435C3.93003 20.5752 3.20562 21.0003 2.70907 21.6413C2.29528 22.1752 2.06741 22.8355 2.06741 23.5016V23.8904H14.2053V23.5016Z" fill="#FFB81D"/>
<path d="M10.895 16.4237V14.7277L10.1099 14.5757C9.17637 14.3954 8.31402 13.997 7.58795 13.4141C6.93692 13.9559 6.18382 14.3847 5.37775 14.6711V16.4237C5.37775 17.8941 6.61526 19.0904 8.13637 19.0904C9.65747 19.0904 10.895 17.8941 10.895 16.4237Z" fill="#FFB81D"/>
<path d="M7.03294 19.9995V20.1568C7.03294 20.7451 7.52784 21.2235 8.13639 21.2235C8.74494 21.2235 9.23984 20.7451 9.23984 20.1568V19.9995C8.89005 20.1008 8.51984 20.1568 8.13639 20.1568C7.75294 20.1568 7.38274 20.1008 7.03294 19.9995Z" fill="#FFB81D"/>
<path d="M13.1019 30.2904V24.957H6.4812V30.2904H13.1019ZM7.58465 26.0237H11.9984V27.0904H7.58465V26.0237ZM7.58465 28.1571H11.9984V29.2237H7.58465V28.1571Z" fill="#FFD67C"/>
<path d="M18.8028 8.95724C19.2056 8.95724 19.5913 8.77111 19.8329 8.45964L21.1019 6.82389H26.895C27.8075 6.82389 28.5502 6.10602 28.5502 5.22387V2.02384C28.5502 1.1417 27.8075 0.423828 26.895 0.423828H19.1708C18.2583 0.423828 17.5157 1.1417 17.5157 2.02384V7.71296C17.5157 8.39884 18.0933 8.95724 18.8028 8.95724ZM19.7226 2.55718H26.3433V3.62386H19.7226V2.55718Z" fill="#FFB81D"/>
<path d="M4.82602 6.82389H11.7226L12.9915 8.45964C13.2332 8.77111 13.6189 8.95724 14.0216 8.95724C14.7311 8.95724 15.3088 8.39884 15.3088 7.71296V2.02384C15.3088 1.1417 14.5662 0.423828 13.6536 0.423828H4.82602C3.91347 0.423828 3.17085 1.1417 3.17085 2.02384V5.22387C3.17085 6.10602 3.91347 6.82389 4.82602 6.82389ZM11.9984 2.55718H13.1019V3.62386H11.9984V2.55718ZM9.79154 2.55718H10.895V3.62386H9.79154V2.55718ZM7.58465 2.55718H8.68809V3.62386H7.58465V2.55718ZM5.37775 2.55718H6.4812V3.62386H5.37775V2.55718Z" fill="#FFB81D"/>
</svg>
