<svg width="31" height="33" viewBox="0 0 31 33" fill="none" xmlns="http://www.w3.org/2000/svg">
<path d="M0.480469 28.2935V32.3903H19.7829V28.2935C19.7829 25.8086 17.7492 23.8945 15.1089 23.8945H5.19012C2.6569 23.8945 0.480469 25.8422 0.480469 28.2935Z" fill="#FFD67C"/>
<path d="M10.1495 22.0812C13.1109 22.0812 15.5371 19.7977 15.5371 17.0106C15.5371 14.2234 13.1109 11.9399 10.1495 11.9399C7.18815 11.9399 4.76196 14.2234 4.76196 17.0106C4.79764 19.7977 7.15247 22.0812 10.1495 22.0812Z" fill="#FFB81D"/>
<path d="M22.7443 22.8199C25.0991 22.8199 26.9544 21.0066 26.9544 18.8575C26.9544 16.7083 25.0277 14.895 22.7443 14.895C20.3894 14.895 18.5341 16.7083 18.5341 18.8575C18.5341 21.0066 20.4251 22.8199 22.7443 22.8199Z" fill="#FFB81D"/>
<path d="M26.6333 24.2974H19.3548C20.5678 25.2712 21.3171 26.7487 21.3171 28.3606L21.4955 32.4238H30.3439V27.7561C30.3439 25.8085 28.7384 24.2974 26.6333 24.2974Z" fill="#FFD67C"/>
<path d="M27.561 4.85478C26.669 1.66467 23.2438 -0.215825 19.8543 0.62368C16.5004 1.46318 14.4667 4.72046 15.3587 7.877C15.7868 9.38811 16.7859 10.597 18.0703 11.3693L16.4291 13.7535L23.1011 12.1081C26.4549 11.2686 28.4529 8.01132 27.561 4.85478ZM22.2091 9.05231C19.6045 7.84342 18.9266 5.66071 18.8196 4.88836C18.7125 4.08244 20.1754 3.41084 20.1754 3.41084L21.103 4.88836C21.103 4.88836 20.104 5.39207 20.2467 5.66071C20.9603 7.10466 21.9237 7.64194 21.9237 7.64194C22.2448 7.74268 22.9227 7.0375 22.9227 7.0375L24.2428 8.2128C24.2071 8.14564 23.1011 9.45527 22.2091 9.05231Z" fill="#FFB81D"/>
</svg>
