<svg width="33" height="33" viewBox="0 0 33 33" fill="none" xmlns="http://www.w3.org/2000/svg">
<path d="M27.808 9.9065C29.8198 5.62401 26.7248 0.423828 21.618 0.423828C18.8325 0.423828 16.3049 2.10624 15.3248 4.65534C11.1465 2.36115 5.83343 5.0632 5.3176 9.85552C1.65516 9.95749 -0.253428 13.0674 0.623493 15.9224C1.13933 17.6048 2.4805 18.8284 4.23434 19.1853C4.28593 19.1853 4.28593 19.1853 4.33751 19.1853H5.05968V16.8911C5.05968 15.2086 6.45244 13.8321 8.1547 13.8321H24.6614C26.3637 13.8321 27.7565 15.2086 27.7565 16.8911V19.1853H28.4786C28.5302 19.1853 28.5302 19.1853 28.5818 19.1853C33.5338 18.1656 34.1012 10.4673 27.808 9.9065ZM12.075 6.79659C10.0117 6.79659 8.30945 8.37704 8.25786 10.4673C8.25786 10.7222 8.05153 10.9261 7.74203 10.9261C7.48411 10.9261 7.22619 10.6712 7.27777 10.4163C7.38094 7.81624 9.49587 5.82793 12.075 5.82793C12.333 5.82793 12.5909 6.03186 12.5909 6.33776C12.5909 6.54168 12.3846 6.79659 12.075 6.79659ZM25.951 7.61231C25.6931 7.61231 25.4352 7.40838 25.4352 7.10249C25.4352 5.01222 23.7329 3.32981 21.618 3.32981C19.9158 3.32981 18.4198 4.45142 17.9556 6.03186C17.904 6.28677 17.5945 6.43972 17.3366 6.33776C17.0787 6.28677 16.9239 5.98088 16.9755 5.72597C17.5945 3.73767 19.4515 2.31017 21.618 2.31017C24.3004 2.31017 26.4153 4.45142 26.4153 7.05151C26.4669 7.40838 26.209 7.61231 25.951 7.61231Z" fill="#FFD67C"/>
<path fill-rule="evenodd" clip-rule="evenodd" d="M24.6904 14.7837H8.18361C7.04877 14.7837 6.12027 15.7014 6.12027 16.823V27.7332C6.12027 28.8548 7.04877 29.7724 8.18361 29.7724H15.9212V31.4039H13.0325C12.7746 31.4039 12.5166 31.6078 12.5166 31.9137C12.5166 32.2196 12.723 32.4235 13.0325 32.4235H19.7899C20.0478 32.4235 20.3058 32.2196 20.3058 31.9137C20.3058 31.6078 20.0994 31.4039 19.7899 31.4039H16.9012V29.7724H24.6388C25.7736 29.7724 26.7021 28.8548 26.7021 27.7332V16.874C26.7537 15.7524 25.8252 14.7837 24.6904 14.7837ZM23.8307 27.3216C23.882 27.088 23.9166 26.9402 23.9166 27.0194C23.9166 27.1372 23.886 27.2399 23.8307 27.3216ZM14.5055 25.9118C14.9284 25.9947 15.4094 26.0445 15.9484 26.061V27.28H16.7818V26.0362C17.6691 25.9532 18.3325 25.7086 18.772 25.3023C19.2115 24.896 19.4312 24.3901 19.4312 23.7848C19.4312 23.2955 19.3027 22.9016 19.0456 22.6031C18.7969 22.3046 18.4693 22.0599 18.063 21.8692C17.6566 21.6702 17.2296 21.4877 16.7818 21.3219V19.5307C17.072 19.5556 17.383 19.6053 17.7147 19.68C18.0547 19.7546 18.3905 19.8624 18.7222 20.0034L19.2944 18.5854C18.5398 18.2454 17.7022 18.0588 16.7818 18.0256V17.1176H15.9484V18.0505C15.1772 18.1168 14.547 18.3366 14.0577 18.7098C13.5767 19.0746 13.3363 19.568 13.3363 20.19C13.3363 20.5963 13.4192 20.9446 13.585 21.2348C13.7509 21.5251 14.0245 21.7904 14.406 22.0309C14.7957 22.2631 15.3099 22.5036 15.9484 22.7523V24.6306C15.5172 24.6057 15.0611 24.5269 14.5801 24.3943C14.0992 24.2533 13.6887 24.0999 13.3487 23.934V25.5386C13.697 25.6962 14.0826 25.8206 14.5055 25.9118ZM15.1647 20.19C15.1647 19.8417 15.426 19.6302 15.9484 19.5556V20.986C15.6747 20.8617 15.4757 20.7414 15.3513 20.6253C15.2269 20.5092 15.1647 20.3641 15.1647 20.19ZM17.6027 23.8718C17.6027 24.2533 17.3291 24.4938 16.7818 24.5933V23.0758C17.0554 23.2001 17.2586 23.3245 17.3913 23.4489C17.5323 23.565 17.6027 23.706 17.6027 23.8718Z" fill="#FFB81D"/>
</svg>
