<svg width="31" height="33" viewBox="0 0 31 33" fill="none" xmlns="http://www.w3.org/2000/svg">
<path d="M5.81222 13.9254C5.97687 13.9254 6.14093 13.8635 6.25929 13.7417C6.48019 13.5143 6.4591 13.1657 6.21242 12.9626C5.57668 12.4395 5.21222 11.69 5.21222 10.9066C5.21222 9.38557 6.55812 8.14797 8.21222 8.14797C8.54386 8.14797 8.81222 7.9012 8.81222 7.59624C8.81222 4.2498 11.773 1.52728 15.4122 1.52728C18.2353 1.52728 20.7443 3.18083 21.6548 5.64258C21.7263 5.83385 21.9056 5.97447 22.1224 6.00842C24.1439 6.32631 25.6122 7.92221 25.6122 9.80314C25.6122 10.7444 25.2396 11.6517 24.5622 12.3576C24.3431 12.586 24.3665 12.9346 24.615 13.1361C24.8646 13.3376 25.2431 13.3166 25.4622 13.0871C26.3329 12.1798 26.8122 11.0138 26.8122 9.80314C26.8122 7.49225 25.0907 5.51542 22.672 4.98633C21.5071 2.24441 18.6325 0.423828 15.4122 0.423828C11.2995 0.423828 7.91984 3.36564 7.63214 7.08116C5.58957 7.34193 4.01222 8.95777 4.01222 10.9066C4.01222 12.0036 4.52257 13.0526 5.41203 13.7848C5.52687 13.8791 5.66984 13.9254 5.81222 13.9254Z" fill="#FFB81D"/>
<path d="M28.0122 29.6652C28.0122 31.1879 26.6682 32.4238 25.0122 32.4238H5.81224C4.15623 32.4238 2.81224 31.1879 2.81224 29.6652C2.81224 29.3562 3.07621 29.1135 3.41224 29.1135H4.01224V16.4238C4.01224 16.1148 4.27621 15.8721 4.61224 15.8721H5.81224C6.14828 15.8721 6.41224 16.1148 6.41224 16.4238C6.41224 16.7327 6.14828 16.9755 5.81224 16.9755H5.21224V29.1135H25.6122V16.9755H25.0122C24.6762 16.9755 24.4122 16.7327 24.4122 16.4238C24.4122 16.1148 24.6762 15.8721 25.0122 15.8721H26.2122C26.5483 15.8721 26.8122 16.1148 26.8122 16.4238V29.1135H27.4122C27.7483 29.1135 28.0122 29.3562 28.0122 29.6652Z" fill="#FFD67C"/>
<path d="M1.01223 23.5963H2.21223C2.54387 23.5963 2.81223 23.3495 2.81223 23.0446C2.81223 22.7396 2.54387 22.4928 2.21223 22.4928H1.61223V10.3549H2.21223C2.54387 10.3549 2.81223 10.1081 2.81223 9.80319C2.81223 9.49823 2.54387 9.25146 2.21223 9.25146H1.01223C0.680591 9.25146 0.412231 9.49823 0.412231 9.80319V23.0446C0.412231 23.3495 0.680591 23.5963 1.01223 23.5963Z" fill="#FFB81D"/>
<path d="M28.6122 22.4928C28.2806 22.4928 28.0122 22.7396 28.0122 23.0446C28.0122 23.3495 28.2806 23.5963 28.6122 23.5963H29.8122C30.1439 23.5963 30.4122 23.3495 30.4122 23.0446V9.80319C30.4122 9.49823 30.1439 9.25146 29.8122 9.25146H28.6122C28.2806 9.25146 28.0122 9.49823 28.0122 9.80319C28.0122 10.1081 28.2806 10.3549 28.6122 10.3549H29.2122V22.4928H28.6122Z" fill="#FFB81D"/>
<path d="M23.1282 14.2828C23.0923 14.0621 22.9243 13.8856 22.7083 13.8304L21.8683 13.6097C21.7363 13.1683 21.5442 12.738 21.2923 12.3297L21.7122 11.6345C21.8203 11.4469 21.8083 11.2152 21.6643 11.0387C21.2203 10.4759 20.6803 9.97934 20.0683 9.57107C19.8762 9.43866 19.6243 9.42762 19.4203 9.52696L18.6643 9.91314C18.2203 9.68146 17.7523 9.50487 17.2722 9.3835L17.0322 8.61108C16.9602 8.41246 16.7803 8.25796 16.5403 8.2249C15.7963 8.12556 15.0282 8.12556 14.2842 8.2249C14.0442 8.25796 13.8523 8.41246 13.7923 8.61108L13.5523 9.3835C13.0722 9.50487 12.6042 9.68146 12.1602 9.91314L11.4042 9.52696C11.1882 9.41657 10.9363 9.43866 10.7562 9.57107C10.1442 9.97934 9.60422 10.4759 9.16022 11.0387C9.01623 11.2152 8.99228 11.4469 9.11225 11.6345L9.53222 12.3297C9.28027 12.738 9.08823 13.1683 8.95624 13.6097L8.11623 13.8304C7.90024 13.8856 7.73222 14.0621 7.69626 14.2828C7.58823 14.9669 7.58823 15.6732 7.69626 16.3573C7.73222 16.578 7.90024 16.7545 8.11623 16.8097L8.95624 17.0304C9.08823 17.4718 9.28027 17.9021 9.53222 18.3104L9.11225 19.0055C8.99228 19.1932 9.01623 19.4249 9.16022 19.6014C9.60422 20.1642 10.1442 20.6607 10.7562 21.069C10.9483 21.2014 11.1882 21.2235 11.4042 21.1132L12.1602 20.7269C12.6042 20.9587 13.0722 21.1352 13.5523 21.2566L13.7923 22.029C13.8523 22.2277 14.0442 22.3821 14.2842 22.4152C14.6562 22.4704 15.0282 22.4925 15.4122 22.4925C15.7963 22.4925 16.1683 22.4704 16.5403 22.4152C16.7803 22.3821 16.9602 22.2277 17.0322 22.029L17.2722 21.2566C17.7523 21.1352 18.2203 20.9587 18.6643 20.7269L19.4203 21.1132C19.6243 21.2124 19.8762 21.2014 20.0683 21.069C20.6803 20.6607 21.2203 20.1642 21.6643 19.6014C21.8083 19.4249 21.8203 19.1932 21.7122 19.0055L21.2923 18.3104C21.5442 17.9021 21.7363 17.4718 21.8683 17.0304L22.7083 16.8097C22.9243 16.7545 23.0923 16.578 23.1282 16.3573C23.2363 15.6732 23.2363 14.9669 23.1282 14.2828ZM15.4122 18.0787C13.7562 18.0787 12.4122 16.8428 12.4122 15.3201C12.4122 13.7973 13.7562 12.5614 15.4122 12.5614C17.0683 12.5614 18.4122 13.7973 18.4122 15.3201C18.4122 16.8428 17.0683 18.0787 15.4122 18.0787Z" fill="#FFB81D"/>
<path d="M15.4122 16.9759C16.4063 16.9759 17.2122 16.2348 17.2122 15.3207C17.2122 14.4066 16.4063 13.6655 15.4122 13.6655C14.4181 13.6655 13.6122 14.4066 13.6122 15.3207C13.6122 16.2348 14.4181 16.9759 15.4122 16.9759Z" fill="#FFB81D"/>
</svg>
