<svg width="30" height="32" viewBox="0 0 30 32" fill="none" xmlns="http://www.w3.org/2000/svg">
<path d="M24.9912 17.825C25.0076 15.3985 22.4583 13.7892 20.2863 14.805C19.8002 12.014 17.3574 9.97998 14.5512 9.97998C11.6992 9.97998 9.3985 12.0086 8.86125 14.58C6.85395 14.0992 4.77215 15.6678 4.78625 17.825C3.02625 17.945 1.15625 19.555 1.15625 21.825C1.15625 24.025 2.94625 25.81 5.14125 25.81H7.63625C8.61125 24.15 10.3363 22.985 12.3363 22.78C11.3013 21.995 10.6313 20.75 10.6313 19.355C10.6313 16.99 12.5513 15.07 14.9113 15.07C17.2763 15.07 19.1963 16.99 19.1963 19.355C19.1963 20.74 18.5363 21.975 17.5163 22.76C19.6613 22.86 21.5212 24.06 22.5462 25.81H24.6413C26.8413 25.81 28.6312 24.025 28.6312 21.825C28.6312 19.555 26.7562 17.945 24.9912 17.825Z" fill="#FFB81D"/>
<path d="M10.5517 1.925V10.245C10.1917 10.505 9.85672 10.8 9.55172 11.135V2.425H7.53672C7.31672 3.245 6.57172 3.85 5.68672 3.85C4.62672 3.85 3.76172 2.985 3.76172 1.925C3.76172 0.865 4.62672 0 5.68672 0C6.57172 0 7.31672 0.605 7.53672 1.425H10.0517C10.3267 1.425 10.5517 1.645 10.5517 1.925Z" fill="#FFB81D" fill-opacity="0.5"/>
<path d="M7.54 7.65498V13.51C7.195 13.56 6.86 13.65 6.54 13.775V8.15498H3.78C3.56 8.97498 2.815 9.57998 1.925 9.57998C0.865 9.57998 0 8.71998 0 7.65498C0 6.59498 0.865 5.72998 1.925 5.72998C2.815 5.72998 3.55495 6.33498 3.78 7.15498H7.04C7.315 7.15498 7.54 7.37998 7.54 7.65498Z" fill="#FFB81D" fill-opacity="0.5"/>
<path d="M29.0691 7.65503C29.0691 8.72003 28.2091 9.58003 27.1441 9.58003C26.2441 9.58003 25.4941 8.96003 25.2841 8.12503H22.5391V13.555C22.2641 13.5 21.9741 13.47 21.6791 13.47C21.6341 13.47 21.5841 13.47 21.5391 13.475V7.62498C21.5391 7.34998 21.7591 7.12498 22.0391 7.12498H25.3041C25.5391 6.32498 26.2691 5.72998 27.1441 5.72998C28.2091 5.73003 29.0691 6.59503 29.0691 7.65503Z" fill="#FFB81D" fill-opacity="0.5"/>
<path d="M21.5423 2.425H19.5273V11.105C19.2223 10.78 18.8873 10.49 18.5273 10.23V1.925C18.5273 1.645 18.7473 1.425 19.0273 1.425H21.5423C21.7623 0.605 22.5023 0 23.3923 0C24.4523 0 25.3173 0.865 25.3173 1.925C25.3173 2.985 24.4523 3.85 23.3923 3.85C22.5023 3.85 21.7623 3.245 21.5423 2.425Z" fill="#FFB81D" fill-opacity="0.5"/>
<path d="M16.3969 5.4001C16.3969 6.2851 15.7919 7.0251 14.9769 7.2501V8.9601C14.8369 8.9551 14.6919 8.9501 14.5519 8.9501C14.3569 8.9501 14.1669 8.9601 13.9769 8.9801V7.2501C13.1569 7.0301 12.5469 6.2851 12.5469 5.4001C12.5469 4.3351 13.4119 3.4751 14.4719 3.4751C15.5369 3.4751 16.3969 4.3351 16.3969 5.4001Z" fill="#FFB81D" fill-opacity="0.5"/>
<path d="M18.1978 19.3548C18.1978 17.5448 16.7278 16.0698 14.9128 16.0698C13.1028 16.0698 11.6328 17.5448 11.6328 19.3548C11.6328 21.1648 13.1028 22.6398 14.9128 22.6398C16.7278 22.6398 18.1978 21.1648 18.1978 19.3548Z" fill="#FFB81D" fill-opacity="0.5"/>
<path d="M17.2112 23.75H12.9713C10.1113 23.75 7.78125 26.08 7.78125 28.945V31.5C7.78125 31.775 8.00625 32 8.28125 32H11.2613V29.11C11.2613 28.835 11.4813 28.61 11.7613 28.61C12.0363 28.61 12.2613 28.835 12.2613 29.11V32H17.9262V29.11C17.9262 28.835 18.1512 28.61 18.4262 28.61C18.7012 28.61 18.9262 28.835 18.9262 29.11V32H21.9012C22.1812 32 22.4012 31.775 22.4012 31.5V28.945C22.4012 26.08 20.0762 23.75 17.2112 23.75Z" fill="#FFB81D" fill-opacity="0.5"/>
</svg>
