<svg width="33" height="32" viewBox="0 0 33 32" fill="none" xmlns="http://www.w3.org/2000/svg">
<path d="M31.0201 12.5702H28.5533C28.2492 11.5227 27.8437 10.5428 27.3369 9.63041L29.094 7.87328C29.5333 7.434 29.5333 6.75818 29.094 6.3189L25.7487 2.9736C25.3432 2.53432 24.6336 2.53432 24.2281 2.9736L22.471 4.73073C21.5586 4.22387 20.5787 3.81837 19.5311 3.54805V1.08131C19.5311 0.473073 19.0581 0 18.4498 0H13.6853C13.0771 0 12.604 0.473073 12.604 1.08131V3.54805C11.5565 3.85216 10.5766 4.25766 9.6642 4.76452L7.90707 3.00739C7.50158 2.56811 6.79197 2.56811 6.38648 3.00739L3.04118 6.35269C2.6019 6.75818 2.6019 7.46779 3.04118 7.87328L4.79831 9.63041C4.29145 10.5428 3.85216 11.5227 3.61563 12.5702H1.08131C0.473073 12.5702 0 13.0433 0 13.6515V18.3823C0 18.9905 0.506864 19.4636 1.08131 19.4636H3.54805C3.85216 20.5111 4.25766 21.491 4.76452 22.4034L3.04118 24.1605C2.6019 24.566 2.6019 25.2756 3.04118 25.6811L6.38648 29.0264C6.79197 29.4657 7.50158 29.4657 7.90707 29.0264L9.6642 27.2693C10.5766 27.7761 11.5565 28.2154 12.604 28.452V30.9187C12.604 31.5269 13.0771 32 13.6853 32H18.416C19.0243 32 19.4974 31.4931 19.4974 30.9187V28.452C19.9028 28.3506 20.3083 28.2154 20.6462 28.0465L17.4023 24.8363C16.963 24.9039 16.49 24.9377 16.0507 24.9377C11.1172 24.9377 7.12988 20.9504 7.12988 16.0169C7.12988 11.0834 11.1172 7.09609 16.0507 7.09609C20.9842 7.09609 24.9715 11.0834 24.9715 16.0169C24.9715 16.49 24.9377 16.9293 24.8701 17.3685L28.1478 20.6125C28.3168 20.2408 28.4182 19.8353 28.5533 19.4298H31.0201C31.6283 19.4298 32.1014 18.9567 32.1014 18.3485V13.6177C32.1014 13.0433 31.6283 12.5702 31.0201 12.5702Z" fill="#FFB81D" fill-opacity="0.58"/>
<path d="M21.5568 17.8759C21.861 16.9973 21.9285 16.0174 21.7596 15.0036C21.3879 12.8748 19.7321 11.0501 17.6709 10.4756C16.5558 10.1715 15.4745 10.1715 14.4945 10.4756C14.1228 10.577 13.9877 11.0501 14.258 11.3204L16.4882 13.5506C17.2992 14.3616 17.2992 15.6794 16.4882 16.5242C15.6772 17.3352 14.3594 17.3352 13.5146 16.5242L11.3182 14.2602C11.0479 13.9899 10.5748 14.1251 10.4734 14.4968C10.2031 15.4767 10.1693 16.558 10.4734 17.6731C11.0479 19.7681 12.8726 21.3901 15.0014 21.7618C16.0151 21.9308 16.9951 21.8632 17.8736 21.5591L25.9834 29.6689C26.3889 30.0744 26.9972 30.0744 27.4027 29.6689L29.6667 27.4049C30.0722 26.9994 30.0722 26.3912 29.6667 25.9857L21.5568 17.8759Z" fill="#FFB81D"/>
</svg>
