<svg width="40" height="32" viewBox="0 0 40 32" fill="none" xmlns="http://www.w3.org/2000/svg">
<path d="M20.713 21.077C21.0529 21.077 21.3284 20.8014 21.3284 20.4616C21.3284 20.1217 21.0529 19.8462 20.713 19.8462C20.3732 19.8462 20.0977 20.1217 20.0977 20.4616C20.0977 20.8014 20.3732 21.077 20.713 21.077Z" fill="#FFB81D"/>
<path d="M14.0587 16.9232H22.0587L22.3045 15.6924H13.8125L14.0587 16.9232Z" fill="#FFB81D"/>
<path d="M15.7873 21.077C16.1271 21.077 16.4026 20.8014 16.4026 20.4616C16.4026 20.1217 16.1271 19.8462 15.7873 19.8462C15.4474 19.8462 15.1719 20.1217 15.1719 20.4616C15.1719 20.8014 15.4474 21.077 15.7873 21.077Z" fill="#FFB81D"/>
<path d="M13.074 11.9998H23.0435L23.2897 10.769H12.8281L13.074 11.9998Z" fill="#FFB81D"/>
<path d="M9.53756 0C9.0481 0.000553781 8.57885 0.195237 8.23274 0.541338C7.88664 0.887439 7.69196 1.35669 7.69141 1.84615V22.7692C7.69196 23.2587 7.88664 23.7279 8.23274 24.074C8.57885 24.4201 9.0481 24.6148 9.53756 24.6154H29.8453C30.3347 24.6148 30.804 24.4201 31.1501 24.074C31.4962 23.7279 31.6909 23.2587 31.6914 22.7692V1.84615C31.6909 1.35669 31.4962 0.887439 31.1501 0.541338C30.804 0.195237 30.3347 0.000553781 29.8453 0H9.53756ZM15.7876 22.3077C15.4224 22.3077 15.0655 22.1994 14.7619 21.9966C14.4583 21.7937 14.2217 21.5054 14.0819 21.168C13.9422 20.8307 13.9056 20.4595 13.9769 20.1014C14.0481 19.7433 14.2239 19.4143 14.4821 19.1561C14.7403 18.8979 15.0693 18.7221 15.4274 18.6509C15.7855 18.5796 16.1567 18.6162 16.4941 18.7559C16.8314 18.8956 17.1197 19.1323 17.3226 19.4359C17.5254 19.7395 17.6337 20.0964 17.6337 20.4615C17.6332 20.951 17.4385 21.4203 17.0924 21.7664C16.7463 22.1125 16.277 22.3071 15.7876 22.3077ZM20.7106 22.3077C20.3455 22.3077 19.9886 22.1994 19.685 21.9966C19.3814 21.7937 19.1447 21.5054 19.005 21.168C18.8653 20.8307 18.8287 20.4595 18.9 20.1014C18.9712 19.7433 19.147 19.4143 19.4052 19.1561C19.6634 18.8979 19.9924 18.7221 20.3505 18.6509C20.7086 18.5796 21.0798 18.6162 21.4171 18.7559C21.7545 18.8956 22.0428 19.1323 22.2457 19.4359C22.4485 19.7395 22.5568 20.0964 22.5568 20.4615C22.5562 20.951 22.3616 21.4203 22.0155 21.7664C21.6694 22.1125 21.2001 22.3071 20.7106 22.3077ZM27.1362 8.47606L25.5686 8.61279C25.5486 8.61454 25.5286 8.61548 25.5085 8.61548C25.3727 8.61351 25.2405 8.65937 25.1351 8.74503C25.0296 8.83069 24.9577 8.9507 24.9319 9.08404L23.2637 17.1645C23.2079 17.4435 23.0571 17.6945 22.8371 17.8749C22.617 18.0553 22.3413 18.1538 22.0568 18.1538H14.0568C13.7723 18.1538 13.4965 18.0553 13.2765 17.8749C13.0565 17.6945 12.9057 17.4435 12.8499 17.1645L11.6192 11.0106C11.5834 10.8321 11.5878 10.6478 11.6319 10.4711C11.676 10.2944 11.7588 10.1298 11.8742 9.98894C11.9897 9.84812 12.1349 9.73467 12.2995 9.65677C12.4641 9.57887 12.6439 9.53846 12.826 9.53846H23.5832L23.7194 8.89631C23.8088 8.4999 24.0324 8.14655 24.3523 7.89608C24.6723 7.64561 25.069 7.5134 25.4753 7.52185L27.016 7.38751C27.1699 7.36603 27.3261 7.40523 27.4516 7.49684C27.5771 7.58845 27.662 7.72528 27.6885 7.87839C27.6924 7.95413 27.6812 8.02989 27.6554 8.10122C27.6296 8.17255 27.5898 8.23799 27.5384 8.29369C27.4869 8.3494 27.4248 8.39423 27.3557 8.42555C27.2866 8.45687 27.212 8.47404 27.1362 8.47606ZM30.4606 1.84615V4.92308H8.92218V1.84615C8.92218 1.68294 8.98701 1.52642 9.10242 1.41101C9.21782 1.2956 9.37435 1.23077 9.53756 1.23077H29.8453C30.0085 1.23077 30.165 1.2956 30.2804 1.41101C30.3958 1.52642 30.4606 1.68294 30.4606 1.84615Z" fill="#FFB81D"/>
<path d="M13.5629 14.4617H22.5472L22.7936 13.231H13.3164L13.5629 14.4617Z" fill="#FFB81D"/>
<path d="M28.6157 2.46143H27.3849C27.2217 2.46143 27.0652 2.52626 26.9498 2.64167C26.8344 2.75707 26.7695 2.9136 26.7695 3.07681C26.7695 3.24002 26.8344 3.39655 26.9498 3.51195C27.0652 3.62736 27.2217 3.6922 27.3849 3.6922H28.6157C28.7789 3.6922 28.9354 3.62736 29.0508 3.51195C29.1662 3.39655 29.2311 3.24002 29.2311 3.07681C29.2311 2.9136 29.1662 2.75707 29.0508 2.64167C28.9354 2.52626 28.7789 2.46143 28.6157 2.46143Z" fill="#FFB81D" fill-opacity="0.58"/>
<path d="M24.9243 2.46143H23.6935C23.5303 2.46143 23.3738 2.52626 23.2584 2.64167C23.143 2.75707 23.0781 2.9136 23.0781 3.07681C23.0781 3.24002 23.143 3.39655 23.2584 3.51195C23.3738 3.62736 23.5303 3.6922 23.6935 3.6922H24.9243C25.0875 3.6922 25.244 3.62736 25.3594 3.51195C25.4748 3.39655 25.5397 3.24002 25.5397 3.07681C25.5397 2.9136 25.4748 2.75707 25.3594 2.64167C25.244 2.52626 25.0875 2.46143 24.9243 2.46143Z" fill="#FFB81D" fill-opacity="0.58"/>
<path d="M0.0844963 31.2175C0.174666 31.4481 0.332299 31.6461 0.536799 31.7858C0.741299 31.9254 0.983157 32.0001 1.23077 32.0001H38.1538C38.4053 32.0001 38.6508 31.923 38.8571 31.7793C39.0635 31.6356 39.2209 31.4322 39.3082 31.1963C39.3954 30.9605 39.4083 30.7035 39.3451 30.4601C39.282 30.2167 39.1457 29.9985 38.9548 29.8348L34.9422 26.3954C35.0296 26.2255 35.0757 26.0373 35.0769 25.8462V9.53854C35.0764 9.04908 34.8817 8.57982 34.5356 8.23372C34.1895 7.88762 33.7202 7.69294 33.2308 7.69238H32.9231V8.92315H33.2308C33.394 8.92315 33.5505 8.98799 33.6659 9.10339C33.7813 9.2188 33.8462 9.37533 33.8462 9.53854V25.8462H5.53847V9.53854C5.53847 9.37533 5.6033 9.2188 5.71871 9.10339C5.83411 8.98799 5.99064 8.92315 6.15385 8.92315H6.46154V7.69238H6.15385C5.66439 7.69294 5.19513 7.88762 4.84903 8.23372C4.50293 8.57982 4.30825 9.04908 4.3077 9.53854V25.8462C4.3094 25.9666 4.32895 26.086 4.36569 26.2006L0.395964 29.8649C0.214016 30.0329 0.0869584 30.2518 0.0313914 30.4931C-0.0241756 30.7344 -0.00566793 30.9869 0.0844963 31.2175Z" fill="#FFB81D" fill-opacity="0.58"/>
</svg>
