<svg width="30" height="24" viewBox="0 0 30 24" fill="none" xmlns="http://www.w3.org/2000/svg">
<path d="M19.313 7.30185H20.1975L22.7184 4.81755L22.8422 3.76281C21.3981 2.50668 19.6529 1.63408 17.7715 1.22746C15.89 0.820839 13.9344 0.893611 12.0895 1.4389C10.2445 1.98419 8.57103 2.984 7.22717 4.34389C5.8833 5.70377 4.91339 7.37883 4.40906 9.21083C4.68989 9.09739 5.00098 9.079 5.29357 9.15853L10.3353 8.33915C10.3353 8.33915 10.5918 7.92074 10.7244 7.94689C11.8047 6.77767 13.2976 6.05961 14.8976 5.93969C16.4975 5.81978 18.0834 6.30708 19.3307 7.30185H19.313Z" fill="#FFDA8C"/>
<path d="M26.3095 9.21079C25.7301 7.10797 24.5404 5.21756 22.8865 3.77148L19.3485 7.25822C20.0858 7.85198 20.6767 8.603 21.0766 9.45463C21.4765 10.3063 21.675 11.2363 21.657 12.1745V12.7934C22.0705 12.7934 22.48 12.8737 22.862 13.0296C23.2441 13.1856 23.5912 13.4142 23.8836 13.7023C24.176 13.9905 24.4079 14.3326 24.5662 14.7091C24.7244 15.0856 24.8059 15.4891 24.8059 15.8966C24.8059 16.3041 24.7244 16.7076 24.5662 17.0841C24.4079 17.4606 24.176 17.8027 23.8836 18.0909C23.5912 18.379 23.2441 18.6076 22.862 18.7636C22.48 18.9195 22.0705 18.9998 21.657 18.9998H15.3593L14.7313 19.6274V23.3495L15.3593 23.9684H21.657C23.4156 23.9819 25.1319 23.4372 26.5521 22.4148C27.9722 21.3925 29.0207 19.9469 29.5425 18.2917C30.0643 16.6366 30.0317 14.8599 29.4494 13.2245C28.8672 11.5891 27.7663 10.1818 26.3095 9.21079Z" fill="#FBBC05"/>
<path d="M9.0528 23.9341H15.3505V18.9655H9.0528C8.60411 18.9654 8.16069 18.8702 7.75257 18.6865L6.86806 18.9567L4.32953 21.441L4.1084 22.3127C5.53195 23.3721 7.26899 23.9417 9.0528 23.9341Z" fill="#FFDA8C"/>
<path d="M9.05287 7.81646C7.3465 7.8265 5.68591 8.36152 4.30306 9.34679C2.9202 10.3321 1.88413 11.7184 1.33955 13.3121C0.794974 14.9058 0.769086 16.6274 1.2655 18.2363C1.76192 19.8452 2.75585 21.2612 4.10847 22.2864L7.76149 18.6863C7.29727 18.4797 6.89086 18.1651 6.57713 17.7695C6.26341 17.374 6.05174 16.9094 5.96027 16.4156C5.86881 15.9217 5.9003 15.4133 6.05202 14.9341C6.20374 14.4549 6.47118 14.0191 6.83138 13.6641C7.19158 13.3091 7.6338 13.0456 8.12008 12.896C8.60636 12.7465 9.12219 12.7155 9.62332 12.8056C10.1244 12.8958 10.5959 13.1044 10.9972 13.4135C11.3986 13.7227 11.7178 14.1232 11.9275 14.5807L15.5805 10.9807C14.8138 9.99284 13.8256 9.1932 12.6932 8.64427C11.5608 8.09535 10.3148 7.81202 9.05287 7.81646Z" fill="#FBBC05"/>
</svg>
